<?xml version="1.0" standalone="no"?>
<!DOCTYPE svg PUBLIC "-//W3C//DTD SVG 1.1//EN" "http://www.w3.org/Graphics/SVG/1.1/DTD/svg11.dtd" >
<svg>
<metadata>
Created by FontForge 20090622 at Tue May  7 06:27:10 2019
 By deploy user
Copyright 2014 Adobe Systems Incorporated. All rights reserved.
</metadata>
<defs>
<font id="Sunday-Regular" horiz-adv-x="595" >
  <font-face 
    font-family="Sunday"
    font-weight="400"
    font-stretch="normal"
    units-per-em="1000"
    panose-1="0 0 5 0 0 0 0 0 0 0"
    ascent="750"
    descent="-250"
    x-height="744"
    cap-height="760.5"
    bbox="-263 -685 1336 1013"
    underline-thickness="50"
    underline-position="-50"
    unicode-range="U+0020-U+25CA"
  />
<missing-glyph horiz-adv-x="500" 
d="M410 -250h-317v1000h317v-1000zM168 683v-33h65v-37h-66v-33h166v33h-66v37h66v33h-165zM167 554v-104h166v34h-66v70h-100zM233 484h-33v36h33v-36zM167 423v-33h66v-37h-66v-33h100v70h66v33h-166zM300 363v-66h-133v-34h166v100h-33zM233 241v-56h34v23h33v-47h-100
v80h-33v-113h166v113h-100zM167 68v-113h166v113h-166zM300 -12h-100v47h100v-47zM167 -68v-33h70l-70 -47v-33h166v33h-102l70 47h32v33h-166z" />
    <glyph glyph-name=".notdef" horiz-adv-x="500" 
d="M410 -250h-317v1000h317v-1000zM168 683v-33h65v-37h-66v-33h166v33h-66v37h66v33h-165zM167 554v-104h166v34h-66v70h-100zM233 484h-33v36h33v-36zM167 423v-33h66v-37h-66v-33h100v70h66v33h-166zM300 363v-66h-133v-34h166v100h-33zM233 241v-56h34v23h33v-47h-100
v80h-33v-113h166v113h-100zM167 68v-113h166v113h-166zM300 -12h-100v47h100v-47zM167 -68v-33h70l-70 -47v-33h166v33h-102l70 47h32v33h-166z" />
    <glyph glyph-name=".null" horiz-adv-x="0" 
 />
    <glyph glyph-name="nonmarkingreturn" horiz-adv-x="333" 
 />
    <glyph glyph-name="space" unicode=" " horiz-adv-x="500" 
 />
    <glyph glyph-name="exclam" unicode="!" horiz-adv-x="174" 
d="M106 -44l-20 1q-36 41 -28 196q2 32 -7.5 71t-11.5 67q-21 206 -17 273l1 19q-8 12 -8 15t5 9.5t5 13.5q6 117 26 136q21 -1 32.5 -2.5t29 -5.5t26 -13t7.5 -23q12 -28 13 -67t-5 -73.5l-14 -84.5t-10 -86q-3 -42 2.5 -115t4.5 -99q-2 -37 -17.5 -111t-13.5 -121z
M34 -163q0 27 33.5 31.5t62.5 -12.5q19 -9 25.5 -32.5t-5.5 -43.5t-39 -20q-29 -15 -53 9t-24 68z" />
    <glyph glyph-name="quotedbl" unicode="&#x22;" horiz-adv-x="227" 
d="M55 539h-14q0 80 -13 106v14q0 25 -13 39q10 21 32.5 27t33.5 -13q28 -29 0 -147q10 -19 -4 -33q-13 -10 -22 7zM173 526q-15 0 -18 24t-8 29q6 24 -4.5 77.5t4.5 68.5q39 0 53 -13q8 -8 10.5 -20t0 -29t-5.5 -30t-9.5 -35.5l-9.5 -32.5q0 -3 1.5 -7t2.5 -7l2 -6
t-0.5 -4.5t-5.5 -1.5q0 -10 -1.5 -11.5t-11.5 -1.5z" />
    <glyph glyph-name="numbersign" unicode="#" horiz-adv-x="552" 
d="M462 283q-39 6 -56 6l-25 -93h59q5 -4 20.5 -12.5t20 -16.5t4.5 -26q0 -23 -45 -23q-36 6 -76 6q-39 -158 -54 -189q-3 -6 -6 -11q-29 -17 -64 -4q8 23 24 65q11 29 25 70q1 10 12 68q-20 0 -41 -1.5t-42 -2.5q-41 -171 -61 -204q-29 -18 -64 -4q5 16 24 64
q5 13 13.5 37.5t12.5 33.5q1 10 12 70q-43 -2 -85 5q-25 20 -25 59h60h55l9 2q5 24 11.5 52l11.5 48q-50 -2 -56.5 -1.5t-33.5 5.5q-25 20 -25 59h60h15q24 5 57 8q8 22 25 80l19 65q8 5 16.5 14t13 13t15.5 7.5t22 -3.5q9 -3 10 -10t-1.5 -22.5t-2.5 -25.5
q-10 -17 -26.5 -61t-21.5 -52q19 0 38.5 1l39.5 2q7 21 23.5 78.5t20.5 67.5q8 5 16.5 14t13 13t15.5 7.5t23 -2.5q14 -6 16.5 -21t-11.5 -38q-10 -18 -27 -64.5t-22 -54.5h38q5 -4 20.5 -12.5t20 -16.5t4.5 -26q0 -23 -45 -23zM235 190q53 4 81 5q5 24 12 50.5t11 43.5
q-22 -1 -42.5 -2.5t-36.5 -2.5z" />
    <glyph glyph-name="dollar" unicode="$" horiz-adv-x="477" 
d="M331 647q13 0 14.5 13.5t8.5 19.5q10 12 32.5 9t25.5 -18q1 -9 -4.5 -74t6.5 -92q-13 -11 -21.5 -12t-18 9t-15.5 21l-14 24.5t-14 18.5q0 9 -6.5 14t-13.5 5.5t-20 0.5q-13 -7 -14.5 -28t2.5 -43.5t-2 -43.5t-26 -28q-17 0 -22.5 25.5t-7.5 57.5t-9 40
q-23 -15 -30.5 -52t-1 -75t23.5 -60q27 -35 71 -66t90 -59.5t70 -52.5q27 -86 16.5 -169.5t-55 -151t-105.5 -88.5q-8 -8 -9 -38.5t-2 -56.5t-9 -26q-26 -9 -36.5 11.5t-13.5 58.5t-9 51q-118 0 -184 103q1 17 -3.5 41.5t-1 41.5t24.5 38q14 0 38.5 9t39.5 9t23 -18
q0 -10 -9 -20t-9 -20q0 -53 19 -84t62 -18q9 21 9 61t9 61q28 14 44.5 -15t16.5 -65q14 8 23 18t12.5 25.5t4 26t0.5 30.5t-5.5 59.5t-5.5 60.5q0 40 -32 80.5t-76 63.5q-48 27 -80.5 70t-43 104t20.5 132q4 4 20 23.5t35.5 34.5t47.5 24v61q0 9 10 14t20 5l9 1
q20 -42 20 -81q20 -21 60 -21z" />
    <glyph glyph-name="ampersand" unicode="&#x26;" horiz-adv-x="645" 
d="M594 366q35 -37 28 -109t-43 -97q-8 -8 -32.5 -16t-32.5 -16q4 -8 14.5 -25.5t14.5 -28.5t4 -26q12 -59 -8 -128.5t-55 -93.5q-7 -15 -27 -28t-36.5 -19l-48.5 -17q-49 -16 -144 0q-49 8 -92.5 34t-66.5 62q-16 16 -31.5 47t-15.5 64q0 85 32 159q6 22 22 38t40 31t34 25
q-70 70 -75 137q-11 133 51.5 203t181.5 58q88 0 112 -47q2 -5 9 -17.5t8.5 -17.5t4 -15t1 -20.5t-6.5 -24.5q0 -7 -4 -15t-8 -13l-4 -4q-17 -17 -48 16v32h15q14 39 -18 59t-77 20q-35 0 -54 -10.5t-42 -37.5q-33 -96 -25 -149q8 -56 28.5 -88t61.5 -34q27 -2 42 -20.5
t5 -39.5q-12 -26 -38.5 -35l-52.5 -17t-37 -31q-33 -70 -35.5 -106t23.5 -112q14 -38 54 -69t86 -30q17 1 37.5 7t31.5 11t33.5 17t25.5 13q5 5 16 14t19 17t13 17q18 34 23 84t-12.5 96t-58.5 58q-9 -2 -15.5 -7t-10 -10t-5 -13t-2 -12t0 -12.5t0.5 -9.5q12 -12 16 -14
t16 -2q11 -12 4 -29.5t-20 -17.5q-7 0 -15.5 3.5t-12.5 7.5l-5 4q-31 33 -31 48q-10 17 -8 40.5t8 39.5q6 14 27.5 23t36.5 9h32q29 0 95 32q37 32 16 95q0 21 -34 35q-41 17 -61 -1q-9 -8 -9 -22q0 -27 19.5 -45t19.5 -32q0 -11 -7 -13.5t-23 -2.5q-22 0 -43 35t-21 61
q0 16 32 48q24 24 73.5 24t84.5 -24z" />
    <glyph glyph-name="quotesingle" unicode="'" horiz-adv-x="137" 
d="M81 539q-9 -6 -16 -2.5t-9.5 7t-6.5 11.5t-7 11q0 27 -13.5 67t-13.5 67q4 4 9 15t11.5 17.5t18.5 6.5q12 9 27 4t27 -17q7 -13 7 -36.5t7 -43.5q-3 -8 -8.5 -31.5t-13 -43.5t-19.5 -32z" />
    <glyph glyph-name="parenleft" unicode="(" horiz-adv-x="286" 
d="M111 -115q-77 193 -96 288q0 211 19 288q0 18 4.5 31t17 34.5l17.5 30.5q0 76 56 134q61 58 87 58q13 0 16 -9.5t3 -29.5t-39 -57q-19 -20 -19 -39q0 -10 -19.5 -38t-19.5 -38q0 -38 -18 -38q-40 -203 -19 -327v-39q0 -37 37 -115q0 -13 0.5 -19.5t5.5 -13t14 -6.5
q7 -21 15.5 -38.5t14.5 -27t22.5 -32.5t24.5 -36q3 -3 13 -11t13.5 -13.5t7.5 -14t0 -18t-15 -20.5q-5 -5 -10.5 -5t-11 2.5t-12 8t-11.5 10.5l-11.5 12l-10.5 11q-10 10 -29 19.5t-29 18.5q0 9 -4.5 18.5t-8.5 15.5z" />
    <glyph glyph-name="parenright" unicode=")" horiz-adv-x="285" 
d="M174 -115q-18 -19 -18 -39q-10 -9 -29 -18.5t-29 -19.5l-10.5 -11l-11.5 -12t-11.5 -10.5t-12 -8t-11 -2.5t-10.5 5q-11 11 -15 20.5t0 18t7.5 14t13.5 13.5t13 11q8 13 24.5 36t22.5 32.5t14.5 27t15.5 38.5q9 0 14 6.5t5.5 13t0.5 19.5q37 78 37 115v39q21 124 -19 327
q-18 0 -18 38q0 10 -19.5 38t-19.5 38q0 8 -5 18t-9 16l-5 5q-39 37 -39 57q0 13 0.5 19.5t5 13t13.5 6.5q26 0 87 -58q56 -58 56 -134q5 -10 13.5 -25l13.5 -23.5t8.5 -21t3.5 -26.5q19 -77 19 -288q-19 -95 -96 -288z" />
    <glyph glyph-name="asterisk" unicode="*" horiz-adv-x="260" 
d="M232 608q19 -12 11 -28.5t-31 -16.5l-17 11q-18 5 -41 14l4 -52q0 -14 -8.5 -20t-20 -2.5t-19.5 16.5v21q-4 13 -8 37l-38 -36q-17 -13 -30 -0.5t-5 34.5l16 13q8 11 26 31l-24 15q-3 7 -15 22t-15 23t2 26q3 5 12.5 0l23 -12.5t23.5 -6.5l17 -12q-1 10 -1 29
q5 7 11.5 23.5t14 26.5t21.5 10q7 0 7.5 -10.5t1 -26t7.5 -23.5l-1 -6q4 4 6 5q7 0 19.5 4t21 7t18.5 1.5t17 -10.5q4 -5 -4 -12l-19.5 -17.5t-13.5 -20.5q-19 -11 -36 -24q28 -15 67 -33z" />
    <glyph glyph-name="plus" unicode="+" horiz-adv-x="454" 
d="M266 462q7 -21 7 -69.5t7 -69.5q7 -7 48 0t63 0q0 -4 11 -25.5t3 -29.5q-13 -7 -58 0t-67 0q-7 -38 -4 -72t-1 -69t-22 -53q-19 0 -28.5 1t-21.5 7.5t-19 19.5q10 31 10 78t-10 88h-14h-56q-4 0 -16.5 3t-22.5 3t-16 -6q0 5 -7 15.5t-7 25.5q41 14 139 14q6 13 6 30.5
t-3 38t-3 28.5l-3 17q0 5 -2.5 13t-1.5 14t7 12q0 7 20.5 8.5t41 -4.5t20.5 -18z" />
    <glyph glyph-name="comma" unicode="," horiz-adv-x="158" 
d="M15 -320q35 12 53 42.5t8 64.5q-31 27 -31 44q0 22 26.5 32t48.5 -2q15 -18 19.5 -39t3.5 -37.5t-11.5 -40.5t-17 -34.5l-21.5 -33.5l-17 -26q-8 0 -23.5 -7.5t-22.5 -7.5q-15 0 -15 45z" />
    <glyph glyph-name="hyphen" unicode="-" horiz-adv-x="502" 
d="M389 248q-63 9 -170 0.5t-152 -0.5q-22 18 -22 53h92h68q68 17 184 17q7 -6 26 -12.5t30.5 -15t11.5 -24.5q0 -8 -12 -8.5t-29.5 -1.5t-26.5 -8z" />
    <glyph glyph-name="period" unicode="." horiz-adv-x="141" 
d="M81 -253q-31 -10 -54.5 27.5t-2.5 59.5q15 14 57 14q14 0 33 -19t9 -38q0 -21 -42 -44z" />
    <glyph glyph-name="slash" unicode="/" horiz-adv-x="453" 
d="M374 507q-11 -43 -42.5 -127.5t-42.5 -126.5q-15 -15 -28.5 -41.5t-13.5 -41.5q-11 -11 -21 -43t-20 -43q0 -17 -42 -105q0 -18 -14.5 -54.5t-29.5 -50.5q-9 -10 -14 -26t-6 -27v-11q-8 -17 -19 -30.5t-23 -20.5t-23.5 0t-19.5 30q0 37 29.5 95.5t34.5 72.5q0 61 41 149
q85 161 106 274q21 42 53 137.5t54 138.5q0 21 1 31.5t4 25t12 21t24 6.5q16 0 40 -24t24 -40q0 -23 -21 -70.5t-21 -56.5q0 -15 -3 -20t-19 -22z" />
    <glyph glyph-name="zero" unicode="0" horiz-adv-x="505" 
d="M213 741q42 12 97.5 1t85.5 -41q6 -6 12 -13.5t10.5 -14t10 -16.5t8.5 -16t8 -17.5t7 -16.5t6.5 -17.5t5.5 -15.5l5.5 -16t4.5 -14q13 -39 27 -104q5 -22 5.5 -47t-0.5 -66.5t-1 -58.5q0 -126 -21 -189q0 -83 -42 -190q-18 -45 -50.5 -81t-67.5 -45q-43 -11 -77.5 -11.5
t-55.5 4.5t-41.5 22t-30 29.5t-28 40.5t-28.5 41q-41 123 -63 211q9 9 9 14.5t-4.5 12.5t-4.5 15q0 209 10 285q20 150 95 241q4 4 16 20.5t18 21t25 14t49 17.5zM232 639q-47 -47 -54 -64q-6 -13 -12 -32t-11 -33q-1 -1 -8 -54.5t-7 -58.5q0 -32 -5 -107t-5 -106v-130
q0 -61 23 -117t57 -90q16 -16 47 -15t47 17q20 20 54 103q5 12 8.5 24.5t6 27.5l4 24t2 26.5t0.5 22v24v20.5q0 5 0.5 78.5t-0.5 89.5q-1 1 -0.5 37t0.5 47v63q0 10 3 37.5t0.5 46t-13.5 36.5q-26 42 -38 72q-8 20 -45.5 23.5t-53.5 -12.5z" />
    <glyph glyph-name="one" unicode="1" horiz-adv-x="291" 
d="M226 727v-61q-32 -415 0 -830q4 -4 18 -14t18.5 -19t4.5 -28q-10 -10 -40.5 -10t-40.5 -10q-15 11 -51 6t-73.5 1.5t-37.5 33.5q0 14 12.5 17t48.5 3v121v223q0 28 4.5 72t4.5 79.5t-9 71.5q9 18 9 48t-4.5 72t-4.5 62q-8 0 -16.5 -9.5t-15.5 -14t-29 3.5v40
q11 33 31.5 84.5t29.5 77.5q5 0 41 4t59 -1t41 -23z" />
    <glyph glyph-name="two" unicode="2" horiz-adv-x="511" 
d="M151 -158q9 -19 28 -24t55.5 -1t42.5 4q104 0 126 21q7 16 9.5 39.5t8 40t24.5 25.5q18 0 28.5 -10.5t13.5 -31.5t3 -38.5t-1.5 -46.5t-1.5 -41q-11 -10 -69 -10t-79 -10h-146h-42q-6 0 -25 -5t-34.5 -5t-24.5 10q-9 0 -14.5 5t-12.5 16.5t-14 19.5q0 15 -5 39.5t-5 40.5
t10 25q0 10 10 31t10 32q15 15 28.5 35.5t21 36.5l18.5 40t16 34q39 30 72.5 79.5t50.5 87.5t44 106q47 179 0 273q-9 0 -19 5t-16 11l-6 5h-84q-21 0 -63 -42q0 -21 -10.5 -52.5t-10.5 -51.5q8 -9 24.5 -15.5t27.5 -12t11 -14.5q0 -15 -22.5 -28.5t-40.5 -13.5t-29 15.5
t-18 31t-15 15.5v105q6 9 22 36t24 37t23.5 25.5t34 21.5t42.5 6q154 15 230 -81.5t43 -253.5q-5 -23 -16 -50t-21 -47.5t-28.5 -50.5l-27.5 -44l-30 -44.5l-25 -36.5q0 -11 -10 -21.5t-10 -20.5q-14 -28 -44.5 -74.5t-51.5 -88.5t-30 -89z" />
    <glyph glyph-name="three" unicode="3" horiz-adv-x="437" 
d="M222 379q24 -23 62 -40q32 -13 80 -82q22 -31 31.5 -55.5t9.5 -66.5q17 -98 -3 -190t-78 -136q-26 -26 -35.5 -34.5t-27 -17t-39.5 -9.5q-28 -2 -58.5 -2t-61.5 1t-43 1q-29 29 -35.5 76.5t4 92t31.5 75.5q10 0 30.5 -10t31.5 -10q0 -21 -4 -48t-7 -45.5t-3 -35.5
t8 -25.5t25 -8.5q41 0 74 38.5t49 84.5q7 22 21 91q2 12 2 30t-1 37t-1 24q0 60 -42 102q-17 17 -28 34.5t-18.5 26.5t-22.5 15t-30 9t-24.5 5.5t-18.5 11.5q-16 16 -18.5 21t-2.5 21q20 3 42 60q12 29 39 71.5t50 86t32 87.5q-81 26 -163 0q0 -82 -20 -82q-14 -7 -23 6.5
t-12 43.5t-4 48.5t-1 44.5q19 20 121 20q13 0 36.5 -2t49 -2t58.5 4h40q40 0 40 -41v-40l-27 -64t-31.5 -70.5t-29.5 -49.5q-38 -70 -54 -102z" />
    <glyph glyph-name="four" unicode="4" horiz-adv-x="485" 
d="M392 734q0 -32 -13 -45t-29 3q-7 -7 -12 -15.5t-7 -14t-4.5 -16l-3.5 -14.5q-8 -30 -34 -99.5t-35 -114.5q-10 -48 -35 -131.5t-36 -137.5h42q11 22 8 54.5t4 52.5q9 19 52.5 17t60.5 -19q0 -12 -2.5 -34.5t-0.5 -33.5t12 -21q12 5 33 5v42q30 32 62 0q13 -34 5 -70.5
t-26 -54.5q-9 -9 -19.5 -9t-23 4.5t-19.5 4.5q-21 -21 -21 -104v-167q0 -9 10.5 -14.5t21.5 -5.5l10 -1v-42h-188q-14 0 -21 0.5t-14 5.5t-7 15q0 9 5.5 14.5t17 12.5t19.5 15q21 0 21 62v209q-15 0 -67.5 -8.5t-87.5 -3.5t-54 33q21 104 94 291.5t94 292.5q-16 0 -29 13
t-13 29q47 15 115 15t115 -15z" />
    <glyph glyph-name="five" unicode="5" horiz-adv-x="509" 
d="M445 723q-10 -24 -5 -56.5t-1.5 -61.5t-32.5 -29q-28 0 -32.5 37t12.5 68h-142q-6 -24 -23 -79t-27 -102t-10 -95q7 0 32.5 -10.5t49.5 -10.5q73 -15 121 -61.5t79 -128.5q20 -21 20 -147q-36 -195 -120 -255q-51 -25 -115.5 -34.5t-128 4.5t-98.5 52v21q0 83 20 105
q9 9 19 9t15 -5l6 -4q7 -16 9.5 -44.5t7.5 -44.5t23 -16q100 0 142 21q30 31 54.5 114t24.5 161l-2 44q0 71 -54.5 119.5t-124.5 48.5q-14 0 -37.5 -5t-38.5 -5t-24 10q-15 17 -15.5 48t8.5 60t18 66t9 59q0 31 10 84t10 85h120h142q24 0 35 -1t23 -5.5t21 -15.5z" />
    <glyph glyph-name="six" unicode="6" horiz-adv-x="494" 
d="M391 752q23 -65 -41 -125q-50 -52 -85 -119t-51 -119.5t-44 -159.5q20 0 58.5 1.5t59.5 1.5q31 0 69.5 -13t55.5 -29q43 -44 55.5 -92t12.5 -136q0 -94 -66.5 -151t-146.5 -57q-78 0 -136.5 45t-86 114.5t-27.5 152.5q0 177 100 371t232 315h41zM151 -41q3 -18 8.5 -32.5
t14.5 -25.5l15.5 -18.5t20 -15.5t19 -11t21 -9.5t18.5 -8.5h62q50 50 67 136.5t-26 152.5q-29 30 -85.5 35t-101.5 -13q-1 -1 -6 -13t-7.5 -17t-7.5 -19t-7.5 -23t-5.5 -24.5t-3.5 -29t0.5 -30.5t4 -34z" />
    <glyph glyph-name="seven" unicode="7" horiz-adv-x="502" 
d="M519 730q-33 -109 -62 -166q0 -21 -10 -52.5t-10 -51.5q-35 -84 -101 -275t-86 -245q0 -6 -4.5 -24.5l-9 -36.5t-5 -35t7.5 -24q2 1 5.5 1.5t12.5 1.5t16 -1t12.5 -9t5.5 -19q0 -9 -4.5 -18.5t-8.5 -15.5l-5 -5q-105 -12 -127 -2q-12 5 -28 5t-39 -2.5t-37 -2.5
q-10 0 -15 7t-5.5 14t-0.5 20q0 7 7 9.5t16 3.5t20.5 8.5t18.5 21.5q21 42 52.5 146t51.5 145l63 186q9 28 19.5 75.5t21.5 70.5l30 108.5t32 120.5q-130 30 -228 0q-17 -9 -14.5 -38.5t8.5 -56.5t-14 -52q-15 -14 -29 5t-14 38q0 24 -16 67t-4 78q41 21 145 21h291
q16 0 21.5 -2.5t19.5 -18.5z" />
    <glyph glyph-name="eight" unicode="8" horiz-adv-x="450" 
d="M141 290q3 15 -25 43t-34 43q-65 172 -20 260q38 76 109.5 105.5t156.5 -1.5q43 -15 67.5 -42.5t30.5 -65t4.5 -66.5t-8.5 -69q-6 -36 -31.5 -70.5l-47 -63t-21.5 -53.5q0 -22 36 -52.5t44 -46.5q23 -57 36.5 -125.5t7 -143t-43.5 -111.5q-53 -53 -140.5 -69t-159.5 9
q-100 67 -100 179q0 154 139 340zM181 636q0 -7 -10 -31.5t-10 -47.5q0 -50 16 -98.5t44 -62.5q18 9 33.5 24t34.5 39t33 38q11 21 16 51t0 58.5t-23 38.5q-22 12 -46.5 18t-50 0.5t-37.5 -27.5zM181 191q-34 -30 -68.5 -104t-41.5 -148.5t51 -107.5q21 -11 40 -14t38.5 3.5
t30 12t31.5 18.5q31 45 42.5 112t-2.5 128q-4 8 -19 46t-29.5 61.5t-32.5 32.5z" />
    <glyph glyph-name="nine" unicode="9" horiz-adv-x="483" 
d="M105 -144q29 -7 54 2.5t44.5 32.5t33 44.5t27.5 49.5q5 11 8 16q21 48 31 96t11.5 84t1.5 112q-57 0 -111.5 14.5t-75.5 48.5l-21 31.5t-22 34.5t-16.5 32t-14.5 41.5t-7 45.5q-6 86 40.5 148t123.5 62h63h21q19 0 39.5 -10t46 -28t38.5 -25q63 -93 63 -269
q0 -126 -36.5 -269t-91.5 -253q-28 -78 -126 -124q-72 -37 -124 -21q-35 11 -69.5 50t-34.5 74q0 9 5.5 25t10.5 27l5 11q7 7 14.5 18.5t13 16.5t14.5 6q23 2 28.5 -19t5 -55.5t7.5 -49.5zM305 598q-16 59 -50 70q-20 4 -34 5.5t-26 -6.5t-20 -15t-15.5 -20.5t-11.5 -23.5
l-9.5 -23.5t-9.5 -20.5q0 -45 13 -87t29 -58q15 -15 28.5 -25.5t22 -14.5t26 -11t27.5 -12h41q26 98 -11 242z" />
    <glyph glyph-name="colon" unicode=":" horiz-adv-x="159" 
d="M90 474q18 -6 42 -40.5t3 -53.5q0 -34 -14 -52.5t-35 -18.5q-33 11 -48.5 36.5t-13.5 53t14 53.5q27 22 52 22zM63 77q38 0 55 -22t17 -75q-11 -24 -35.5 -31.5t-49 7t-35.5 48.5q9 10 16.5 29t14 31.5t17.5 12.5z" />
    <glyph glyph-name="semicolon" unicode=";" horiz-adv-x="158" 
d="M130 352v-32q-1 -1 -12 -14t-17.5 -18.5t-21 -12t-31.5 -6.5q-12 13 -22.5 41.5t-10.5 41.5q0 24 10.5 37t25.5 13.5t31.5 -5t29.5 -18t18 -27.5zM114 -175q-12 -23 -18 -33.5t-19.5 -26t-28.5 -22.5q-33 31 -33 49q49 30 49 83q8 14 8 35t-4 50t-4 46q-11 23 -19 46
t-5.5 50.5t24.5 35.5q35 0 54.5 -23.5t22.5 -62t0 -73t-11 -72.5q0 -49 -16 -82z" />
    <glyph glyph-name="less" unicode="&#x3c;" horiz-adv-x="421" 
d="M336 59q-13 11 -38 23q-9 10 -36.5 27.5t-36.5 27.5q-22 26 -67.5 51.5t-59.5 39.5q-13 0 -33 20t-20 34q0 15 11.5 34.5t24.5 19.5q34 18 111.5 70t124.5 76l3 3q54 19 34 -30q-72 -41 -72 -55q-19 -9 -54.5 -35t-52.5 -35q-6 -6 -18 -14t-18.5 -14.5t-6.5 -14.5
q0 -18 41 -50.5t94.5 -68t67.5 -49.5q26 -13 31 -16q15 -25 7.5 -35t-37.5 -9z" />
    <glyph glyph-name="equal" unicode="=" horiz-adv-x="539" 
d="M419 341q-64 10 -184 2t-165 1q-25 20 -25 59h175q62 16 199 16q9 -6 29.5 -13t33 -16t12.5 -26q0 -8 -13 -9.5t-32.5 -3.5t-29.5 -10zM419 147q-64 10 -184 2t-165 1q-25 20 -25 59h175q62 16 199 16q9 -6 29.5 -13t33 -16t12.5 -26q0 -8 -13 -9.5t-32.5 -3.5t-29.5 -10
z" />
    <glyph glyph-name="greater" unicode="&#x3e;" horiz-adv-x="421" 
d="M85 59q-30 -1 -37.5 9t7.5 35q5 3 31 16q14 14 67.5 49.5t94.5 68t41 50.5q0 8 -6.5 14.5t-18.5 14.5t-18 14q-17 9 -52.5 35t-54.5 35q0 14 -72 55q-20 49 34 30l3 -3q47 -24 124.5 -76t111.5 -70q13 0 24.5 -19.5t11.5 -34.5q0 -14 -20 -34t-33 -20
q-14 -14 -59.5 -39.5t-67.5 -51.5q-9 -10 -36.5 -27.5t-36.5 -27.5q-25 -12 -38 -23z" />
    <glyph glyph-name="question" unicode="?" horiz-adv-x="428" 
d="M185 -16q-16 0 -23 14.5t4 42.5q0 24 17 61.5t43.5 83.5t34.5 63l57 114q12 49 17 82t-2 75.5t-34 69.5q-15 30 -60 50.5t-73 6.5q-45 -15 -76.5 -65.5t-18.5 -105.5q14 -22 60 -25.5t58 -15.5q38 -26 16 -54q-20 -26 -60 -22q-9 1 -17 4q-49 0 -75 57q-39 39 -38 114.5
t38 112.5q8 17 21.5 26t38.5 17t35 13q79 0 129 -23t98 -70q4 -14 13 -39t13 -38t8 -34t4 -41q0 -35 -8.5 -69.5t-27.5 -83.5t-21 -56q-75 -111 -95 -170q-14 -14 -22 -40t-18.5 -40.5t-35.5 -14.5zM223 -224q-18 -12 -40 -7t-37 16q-21 17 -24.5 36.5t7.5 36.5t25.5 29.5
t30.5 21.5q34 0 58 -38q6 -10 8.5 -19t-0.5 -19.5t-5.5 -16.5t-11 -19.5t-11.5 -20.5z" />
    <glyph glyph-name="at" unicode="@" horiz-adv-x="632" 
d="M402 140q-42 -19 -83.5 -15.5t-74.5 21t-51 53.5t-12 82l10.5 31.5t12.5 28.5t20 30.5t27.5 20.5t39.5 15q37 0 95 -31q16 16 48 16q9 -26 -4 -79t-13 -78q0 -17 16 -48.5t33 -31.5q4 0 12 5t18 13.5t18 16t17.5 17.5t12.5 12q0 8 8 31t8 31q2 14 2.5 28.5t-1 26.5t-6 26
t-8.5 25t-11 24.5l-12 22.5t-14 22l-13.5 19.5l-13.5 19t-13 17.5q-9 13 -59 24.5t-87 11.5q-21 0 -40 -6.5t-37.5 -23.5l-31 -29t-29.5 -40l-23.5 -39t-24 -43.5t-19.5 -36.5q-41 -76 0 -237q7 -14 15 -42.5t16 -37.5q11 -33 48 -54.5t78 -24.5q23 -1 47.5 7t39.5 16.5
t45.5 28.5l41.5 27q10 11 24.5 18.5t34.5 5t35 -23.5q0 -21 -7 -35t-24 -30l-17 -15q-98 -46 -221 -46q-39 0 -114 35q-23 11 -40.5 27.5t-33 43.5t-23.5 44.5t-24 55.5q-13 32 -16.5 95t5 135t44 136.5t92.5 88.5q4 2 29 13l39.5 17t34 11.5t30.5 4.5q76 5 150 -20t112 -72
q47 -58 47 -172q12 -80 -26 -136.5t-100 -68.5q-15 0 -39 7.5t-40 7.5zM324 360q-30 -14 -42 -53.5t0 -79.5t42 -56q14 0 30 10t16 23q0 23 8 70t8 72q-6 0 -25 7t-37 7z" />
    <glyph glyph-name="A" unicode="A" 
d="M407 -168q0 275 -22 381q-17 0 -74.5 10.5t-91.5 10.5q-22 -21 -22 -108q-23 -84 -23 -295q11 -9 32.5 -9t31.5 -10l-3 -42q-28 -19 -63 -20t-61 4.5t-61 -6.5l-44 42q37 41 63 41q10 0 15.5 7t6 14t0.5 22q11 71 32.5 238.5l29.5 226.5q0 86 44 168q24 93 104 211l5 5
t13 9.5t19.5 10t22.5 3.5t24 -6q32 -16 60 -65t28 -83q24 -49 32 -113q11 -92 26 -278t23 -263v-128q0 -6 10 -19t10 -24t-20 -20l-26 6q-21 0 -60 -3t-61 -3q-4 0 -14 -1.5t-15.5 -2t-12.5 0t-10.5 3.5t-3.5 8q0 18 20 47.5t36 29.5zM301 614q-44 -138 -63 -212
q0 -9 -9.5 -51.5t-9.5 -55.5q62 -19 166 -19v126q0 99 -40 212q0 2 -0.5 5.5t-6 9.5t-15.5 6z" />
    <glyph glyph-name="C" unicode="C" horiz-adv-x="555" 
d="M495 688q0 -10 11 -20t11 -20q0 -104 -22 -104q-14 0 -21 13.5t-7.5 30.5t-3.5 35t-9 25q-101 32 -166 0q-11 -11 -32 -52.5t-31 -51.5q0 -22 -20 -42q-10 -40 -15 -82t-6 -72.5t-1 -95.5v-124q46 -261 146 -313q15 -7 30.5 -8.5t32.5 4t29.5 11t32.5 15.5q10 20 10 72.5
t10 73.5q24 0 40 -11t23 -11v-146q-8 -21 -26 -35t-36.5 -21t-49 -9t-51.5 -1.5t-57.5 6t-52 8.5l-49.5 10q-7 1 -10 2q-12 12 -39.5 33.5t-47.5 42.5t-38 49q-5 24 -24 101t-29 136t-10 115q6 31 16.5 98.5t21 118.5t25.5 95q9 10 18 30.5t22 32.5q36 51 96.5 87.5
t132.5 36.5q16 -5 42.5 -12t40 -11t31.5 -14.5t32 -25.5z" />
    <glyph glyph-name="D" unicode="D" horiz-adv-x="617" 
d="M24 -187h84q11 0 22 10t21 10v235q0 58 -10.5 143t-10.5 112q0 170 -22 233v86q-12 0 -30 -5.5t-28 -8t-18 5t-8 30.5q0 9 5.5 14t17.5 12t20 15l21 22q42 21 128 21q14 0 32.5 1.5t35.5 1.5t40 -4q1 1 3 1.5t7 1t9 -1.5q11 -11 42.5 -32.5t42.5 -31.5q20 -9 37 -28
t26 -35t22 -43q52 -107 63 -193q1 -4 3 -20.5t2.5 -22.5t2.5 -21.5t2.5 -23t1 -22.5t0.5 -24t-0.5 -23t-2 -25t-4 -24.5t-5.5 -25.5q0 -37 -11 -76.5t-21 -64.5t-38 -68t-36.5 -55l-41.5 -56q-8 -4 -40 -23.5t-62 -29.5t-69 -10h-41q-43 -21 -149 -21q-43 41 -43 64z
M257 684q-7 -7 -10.5 -22t-3.5 -26.5t0.5 -32.5t0.5 -25q0 -34 2.5 -82t2.5 -67q0 -21 4 -68t4 -81v-212q0 -22 11 -64.5t11 -62.5q0 -16 -5 -35t-5 -30.5t10 -20.5q11 0 32 10.5t32 10.5q0 10 5.5 15.5t11.5 6.5h5q9 0 14 5t5 11l1 5q20 29 30 72.5t11.5 74t1.5 87.5
q0 13 4.5 46t4.5 64.5t-9 59.5v64q-5 25 -13.5 76.5t-14 79.5t-20.5 63t-37 58q-14 14 -31 17t-55 3z" />
    <glyph glyph-name="E" unicode="E" horiz-adv-x="520" 
d="M450 587q-10 11 -10 41t-11 40q-20 11 -41 21q-101 0 -142 -21q-4 -4 -7.5 -8.5t-5.5 -11.5t-3 -11t-1.5 -14.5t-0.5 -14.5v-18v-18q0 -31 -1.5 -70t-1.5 -57q0 -22 4.5 -53t4.5 -52t-9 -39q21 -19 122 -19q0 60 21 60q15 0 20 -2.5t21 -17.5q-11 -24 -6 -60.5t4 -70
t-19 -33.5q-41 21 -41 41v21h-101q-9 -28 -10.5 -63.5t1.5 -82t3 -61.5q0 -34 3 -99t3 -82q61 -20 163 -20q17 8 19 29t3.5 42.5t18.5 29.5q14 0 23.5 -9t12.5 -27t4 -30.5t1 -34.5q0 -19 -41 -62h-103q-204 0 -326 21v41h82q9 54 9 110t-4.5 125t-4.5 111v41v205v81v183
h-82v41q42 11 123.5 21t121.5 20h204q21 -20 21 -41q0 -10 5 -35.5t6 -41.5t-11 -30.5t-41 -14.5z" />
    <glyph glyph-name="F" unicode="F" horiz-adv-x="587" 
d="M565 567q0 -9 -7 -14t-14 -5.5t-20 -0.5q-9 19 -14 43t-5.5 42.5t-0.5 56.5q-163 0 -225 -21q-8 -18 -8 -54t4 -89t4 -81q0 -6 -4 -24t-4 -33t8 -24h62v81q24 1 39 -10.5t19.5 -35.5t5.5 -43.5t-1 -51.5t-2 -42q-15 -15 -22.5 -17.5t-38.5 -2.5v40q-20 21 -62 21
q-18 -19 -22.5 -37.5t-0.5 -55t4 -50.5q-20 -40 -20 -143v-61q0 -81 20 -122q15 0 35 -24q26 -30 -4 -36q-5 -1 -12 -1q0 -9 -5 -9t-16 4.5t-18 4.5q-9 0 -34.5 -10t-48.5 -10q-10 0 -40.5 10t-40.5 10q-9 0 -14 7t-5.5 14t-0.5 20q9 9 19 14t15 5l6 1q18 9 23.5 35.5t8 66
t9.5 62.5v162q0 14 4.5 33.5t4.5 35t-9 33.5q0 7 10 33t10 48q0 30 -10 102t-10 103q0 13 4.5 43t4.5 55.5t-9 43.5q-14 0 -38 -4.5t-39.5 -4.5t-24.5 9q-30 30 0 61h408h81q17 0 27.5 -12t13.5 -35.5t3 -43.5t-1.5 -50.5t-1.5 -41.5z" />
    <glyph glyph-name="G" unicode="G" horiz-adv-x="545" 
d="M466 537q-23 12 -28.5 70.5t-11.5 71.5q-46 0 -74.5 -2t-69.5 -16t-60 -42q-2 -3 -9 -18l-10.5 -22t-10 -21.5t-10 -25t-7.5 -24.5t-5.5 -28t-1.5 -27q0 -51 -3.5 -151t-3.5 -150q0 -27 -4.5 -77t-4.5 -90.5t9 -76.5q6 -23 18 -39t33.5 -26t37 -15t47.5 -11.5t47 -10.5
q36 5 57.5 25.5t29.5 55.5t10 67t2 81t2 76q-8 9 -18 9t-16 -4l-6 -5q-6 -13 -11.5 -61.5t-29.5 -60.5q-9 0 -14 5t-12 16.5t-14 18.5q0 102 20 142q16 0 44.5 2.5t45.5 3t38 -5t35 -19.5q9 -9 9 -19.5t-4.5 -23t-4.5 -19.5q0 -26 2.5 -73.5t2.5 -75t-6 -60.5t-20 -54
q0 -9 -10.5 -19.5t-26.5 -23t-23 -19.5q-32 -16 -86.5 -16.5t-96.5 16.5q-70 28 -100 56.5t-83 106.5q-41 119 -41 224v121q0 45 17 139q12 60 21 82q8 18 16.5 50t18.5 54.5t28 40.5q11 11 21 31t20 30q9 0 19.5 5t15.5 10l6 5q41 21 122 21q5 0 24.5 4.5t39.5 4.5t38 -9
q16 0 38 -13.5t22 -27.5q14 -48 5.5 -96.5t-25.5 -66.5z" />
    <glyph glyph-name="H" unicode="H" horiz-adv-x="618" 
d="M554 667q-21 -41 -21 -164v-182v-163q0 -51 10.5 -163.5t10.5 -162.5q7 -7 18.5 -14t17 -12.5t5.5 -14.5v-41l-2 4t-6.5 5t-11.5 -5q-9 -3 -16.5 -4.5t-10.5 -1.5l-4 1q-8 0 -28.5 0.5t-43.5 0.5q-11 0 -25 -0.5t-23 -0.5l-7 7t-3.5 6.5t-1 5t2 5l3.5 5t6.5 6.5t7.5 7
q0 11 20 21t20 20q9 72 9 158.5t-4.5 191.5t-4.5 159q0 9 -5 14.5t-11 6.5h-5q-27 9 -62 9t-78 -4.5t-63 -4.5q-19 -19 -28.5 -43.5t-11 -43t-1.5 -57.5v-223v-62q11 -21 11 -51t10 -50q19 0 33 -23t-13 -38q-29 0 -67 -4.5t-69 -4.5t-67 9q-21 41 0 61h41v81v469v41v20v60
v21q-10 20 -10 71t-11 72q-20 0 -41 21q-20 20 0 41h82q13 0 43.5 4.5t55.5 4.5t43 -9q16 0 28.5 -13t12.5 -28q0 -21 -61 -21q-9 -9 -9 -19.5t4.5 -29t4.5 -33.5q0 -13 -4.5 -43.5t-4.5 -55.5t9 -43q123 -30 244 0q0 163 -21 224q-10 11 -40 11t-40 10v41q60 29 121 20
q6 -3 34 -1l28 1q20 -10 27.5 -30t0 -36t-27.5 -16z" />
    <glyph glyph-name="I" unicode="I" horiz-adv-x="280" 
d="M211 675q-10 -39 -9 -61t5.5 -62t3.5 -62q-2 -63 -8 -199t-9.5 -247t-3.5 -212q11 -11 31.5 -21t29.5 -19q0 -9 -5 -14.5t-16 -12.5t-19 -15q-21 10 -87.5 10t-97.5 11q-21 21 0 40q0 11 15 11t25 10q9 9 9 24t-4.5 33.5t-4.5 24.5q0 32 1.5 90.5t1.5 88.5q-3 27 -3 48
v185v349q-13 0 -19.5 0.5t-13.5 5.5t-7 15v41q0 9 6 9t22.5 -4.5t32.5 -4.5q13 0 49.5 4.5t66.5 4.5t48 -9q17 -16 3 -39t-43 -23z" />
    <glyph glyph-name="J" unicode="J" horiz-adv-x="469" 
d="M379 679h-43q-4 -17 -6.5 -35.5t-3.5 -41.5t-1.5 -39t0 -44t1 -40.5t2.5 -44.5t2.5 -39l3 -41t2.5 -36q2 -31 2 -62.5t-1 -63t-1 -43.5q0 -27 3.5 -83t4.5 -96t-3 -86t-21 -76t-47 -42q-19 -9 -45.5 -9t-58 4.5t-45.5 4.5q-5 0 -9.5 1t-9.5 4l-8.5 5t-9.5 7l-9 7.5t-10 9
t-9 8.5q-34 34 -42 98.5t22 115.5q6 0 24.5 4.5t34.5 4.5t26 -9q-11 -21 -16 -33.5t-10.5 -32.5t-4.5 -40t9 -43q0 -18 17 -30.5t48 -12.5l20 21q0 53 10.5 170t10.5 170q0 19 -2 39.5t-5 46.5t-4 42q-2 22 -2 64q0 7 -3 29t-2 41q1 12 -1 40.5t-2 36.5q0 23 -5 47.5
t-5 37.5q0 5 1 15t1.5 17t-2.5 16t-10 16q-11 -11 -37.5 -11t-48.5 -10q0 -63 -42 -63q-22 21 -22 127q0 10 7 15t14 5.5t21 0.5q31 0 108.5 5t136 4.5t96.5 -9.5q32 -16 44.5 -45t-2.5 -62q0 -15 -3 -17.5t-19 -2.5q-18 0 -23.5 10.5t-7.5 27.5t-10 25z" />
    <glyph glyph-name="K" unicode="K" horiz-adv-x="603" 
d="M449 665q0 -76 -40 -202l-61 -121q0 -16 2.5 -18.5t17.5 -2.5q10 -10 40 -30t41 -30q28 -37 42 -83.5t24.5 -124t14.5 -96.5q0 -14 -4.5 -37.5t-4.5 -39t9 -24.5q0 -10 23 -29t23 -30q0 -8 -3.5 -18t-6.5 -15l-4 -6q-33 0 -101 -1.5t-85 -1.5q-9 9 -11 19t1 16l2 5l41 41
q8 18 8 38t-4 44.5t-4 38.5v122v20q0 50 -16 99t-45 63q-61 30 -122 0q-14 -14 -20 -45.5t-5.5 -59.5t3 -72.5t2.5 -64.5t-10.5 -51.5t-10.5 -51.5v-80q33 -16 41.5 -40t-20.5 -41q-30 11 -80.5 0.5t-80.5 -0.5q-16 16 -18.5 21t-2.5 19q8 8 19 15t16 12t5 14v101v162
q2 1 2 22l-2 19q0 7 10.5 42.5t10.5 58.5q0 262 -21 364v60q-13 0 -19.5 0.5t-13.5 5.5t-7 15q-14 1 -13.5 24t11.5 34q6 6 16 6.5t29 -2t34 -2.5q7 0 30 1.5t39.5 1.5t36 -3t30 -13t10.5 -27q0 -9 -5.5 -14t-16.5 -12t-19 -15q0 -40 10 -111t10 -111q0 -6 -4.5 -24
t-4.5 -33t9 -24q103 26 142 182q0 20 10.5 60t10.5 61h-41q0 11 -10.5 21t-10.5 20q12 23 60.5 28.5t61.5 11.5q28 -9 35.5 -29t-4 -36t-31.5 -16z" />
    <glyph glyph-name="L" unicode="L" horiz-adv-x="443" 
d="M288 720q-10 -21 -25 -36.5t-15 -25.5q0 -91 -16.5 -367.5t-5.5 -442.5q0 -15 2.5 -17t19.5 -3q6 -1 20.5 -0.5t19.5 0.5q16 -1 41 0h22v124v83q9 9 19.5 9t16.5 -4l6 -5q18 -19 23 -47t1 -79.5t-4 -60.5q0 -6 4.5 -24t4.5 -33.5t-9 -25.5q-62 -10 -181 -10t-171 -10
q-8 7 -20 14t-17 12.5t-5 15.5q0 9 7 14t14 5.5t21 0.5q14 14 17 30.5t3 52.5q21 104 21 352v22v185q0 146 -21 209q0 9 -5 14t-17 12t-20 14v42h22q18 0 95.5 6.5t115.5 1.5q5 -1 8 -1.5t5 -1t2.5 -3.5t0.5 -4.5v-7.5v-10z" />
    <glyph glyph-name="M" unicode="M" horiz-adv-x="833" 
d="M455 212q17 54 41 187q5 27 17.5 72.5t19.5 75.5q2 10 10 37t11.5 45.5t3.5 37.5q0 30 26 55.5t57 25.5h123q9 0 14.5 -5t12.5 -16.5t15 -19.5q-10 -10 -16.5 -15t-17 -10t-22.5 -4t-27 8q-9 -27 -9 -53t4.5 -58t4.5 -53v-83v-103v-165q0 -22 -1 -51.5t-1 -51t2 -41.5
q4 -38 4 -74t-2 -74.5t-2 -57.5q49 0 75 -31q22 -27 -5 -42q-11 0 -22 3t-22 3q-10 0 -22 -3.5t-23 -3.5l-36 7q5 3 -1 2q-59 -8 -68 -8q0 11 -10 16t-10 15q0 9 10.5 15t27 12.5t24.5 14.5q-7 51 -10.5 115t-3.5 102.5t2 130t2 119.5q0 14 5 61.5t5 68.5v83q3 12 -8 39
q0 4 0.5 9.5t1 8.5t-0.5 7t-4.5 8.5t-9.5 10.5q5 -23 -3 -42q-10 -24 -19 -59t-21 -88t-19 -79q-14 -42 -18 -63q-28 -145 -36 -183q-3 -13 -6.5 -48t-8.5 -56.5t-14 -21.5q-10 0 -30.5 10.5t-29.5 10.5q0 14 -2 29t-4 23t-7.5 26.5t-7.5 24.5q-50 177 -51 181
q-23 74 -42 124q-1 4 -6 19.5t-11 26.5t-15 20v-144q0 -22 -10 -87.5t-10 -97.5v-104v-185q13 0 20 -0.5t14 -5.5t7 -15q0 -18 -14.5 -28t-40 -13t-47 -3.5t-49.5 1.5t-34 2q-9 0 -14.5 5t-12.5 16.5t-15 19.5q4 4 12 14.5t12 12.5t14 2t25 -8v206v268v41v206v144
q-11 0 -19.5 -3.5t-17.5 -3.5t-22.5 3.5t-23.5 3.5q-16 16 -18.5 23.5t-2.5 38.5q79 27 227 -20q13 -28 62 -123v-21q14 -29 29.5 -68t24 -65l24.5 -75.5l21 -65.5q6 -17 11.5 -30.5t9 -20.5l11.5 -22z" />
    <glyph glyph-name="N" unicode="N" horiz-adv-x="647" 
d="M624 736q0 -9 -5 -19t-10 -15l-5 -6h-41q-9 -9 -9 -19.5t4.5 -28.5t4.5 -33q0 -16 -0.5 -150t0 -178.5t2 -148.5t5 -183.5t9.5 -159.5q1 -28 -18 -38.5t-41 -6t-33 15.5l-44 131l-58.5 175.5t-42.5 140.5q-9 32 -47 119l-13 32q-4 8 -13 52t-33 56v-140v-160v-161v-60
v-100q20 -20 59 -20q0 -10 1.5 -24t2 -22.5t-1 -17t-7.5 -12.5t-17 -4q-25 -1 -45 -1q-10 0 -67 -1.5t-67 -1.5q-6 0 -9 4t-3.5 12t-0.5 16.5t1 22t1 23.5q33 -14 33 6q9 18 10.5 41.5t-1 56.5t-2.5 42q0 32 -3.5 97t-3.5 83q0 20 -0.5 69t-0.5 72q0 22 -4 60t-4 58
q0 10 -5.5 31t-5.5 31v20v61q0 9 -1 22.5t-1 28.5t-9 37.5t-9 31.5q-29 0 -45 12t-16 28q0 15 10 26t25 11q11 0 21.5 1.5t24.5 2.5q10 1 30.5 -1.5t34.5 -2.5q12 0 21 -9t12 -19l2 -9q36 -54 65 -116t64.5 -155.5t50.5 -129.5q21 -63 61 -140q0 -22 17 -62l10.5 -32.5
t18 -53t18.5 -38.5q3 -5 3 12q0 14 -4 65q-4 53 -4 68q0 48 4 164.5t4 179.5v20q0 31 -10 81t-10 80q-40 40 -61 40q-4 4 -13.5 11.5t-12 11.5t-2 13.5t7.5 24.5q9 0 14.5 -3t21.5 -3q13 0 24.5 1.5t16.5 3.5l4 1q25 -6 51.5 -1.5t53 1.5t35.5 -21z" />
    <glyph glyph-name="O" unicode="O" horiz-adv-x="614" 
d="M487 -154q-23 -41 -56 -61q-67 -42 -132.5 -37t-116.5 37.5t-77 81.5q-37 70 -62 144q-20 80 -20 244q0 14 -2 36t-2 42.5t4 44.5q11 62 11 78q3 13 7 40t9 42t14 24q12 16 34.5 51t38 55.5t41 43.5t58.5 31t74 2q60 0 95.5 -18t66.5 -64q47 -31 79.5 -96t39.5 -143
q4 -41 4 -108v-26.5v-29.5t-0.5 -28.5t-1.5 -32.5t-3 -31t-5 -35t-7 -34q-30 -142 -91 -253zM398 -140q36 90 54 170q20 61 20 184q0 21 3.5 52.5t3.5 51.5t-3.5 60t-3.5 61q-10 20 -20 61t-21 62q-3 5 -14.5 31t-17.5 37.5t-19.5 27t-27.5 22.5q-19 0 -40.5 2t-42.5 2
q-53 -53 -82 -142q-21 -41 -21 -123q-23 -193 21 -449q8 -16 18.5 -53.5t22.5 -49.5q11 0 14.5 -13.5t8.5 -18.5q23 -23 79.5 -13.5t67.5 38.5z" />
    <glyph glyph-name="P" unicode="P" horiz-adv-x="596" 
d="M250 -173q51 0 70.5 -15.5t-7.5 -47.5q-37 0 -88.5 -4.5t-89 -4.5t-74.5 9q-22 20 -22 42q16 16 24 18.5t39 2.5q10 9 12 25.5t-1 42.5t-3 33q-1 75 2 187t3 156q0 12 1 42t1 59.5t-2 59.5q-3 7 -1.5 64.5t1.5 94.5q0 6 0.5 17.5t0.5 17t-1.5 13t-4.5 12t-9 6.5
q-10 4 -29 5.5t-31 12.5q-9 5 -13.5 9.5t-5 9t0 8.5t5 9.5t7.5 8.5t10 9t10 8q29 5 58.5 8t62.5 4t55 1.5t63.5 0t59.5 -0.5q5 0 17.5 2t25.5 -2q58 -9 104 -77.5t63 -153.5q0 -125 -21 -168q-7 -22 -23 -44.5t-30 -36t-39 -35t-34 -30.5q-20 -10 -44.5 -15t-43 -6t-58.5 -1
q-2 0 -5.5 -0.5t-9.5 -6t-6 -14.5v-83q0 -28 -5 -79.5t-5 -93.5t10 -79zM250 372v-104q15 -16 41.5 -19t39.5 6q30 19 54 51.5t32 65.5q2 7 5 19.5t4 15.5t2.5 12t2 13.5t1 14.5t0.5 20.5v26.5q0 99 -35 171q-9 0 -35 11t-49 11h-63q-10 -47 -10 -99.5t5 -116.5t5 -99z" />
    <glyph glyph-name="Q" unicode="Q" horiz-adv-x="558" 
d="M558 -290q10 0 15.5 -6.5t6 -13.5t0.5 -21q-61 -31 -117 -7q-52 22 -64 50q-2 5 -6.5 24t-10 29.5t-15.5 10.5q-8 0 -35 -11t-52 -11q-29 0 -84 22q-39 16 -85 62q-45 47 -71.5 117.5t-33 157.5t-4 168t13.5 180q1 11 5 19t4 19q11 21 22 53.5t22 53.5q10 11 20.5 32.5
t21.5 31.5q0 10 10.5 20.5t28.5 23.5t25 20q172 34 256 -22q53 -51 86 -147q15 -32 21 -46.5t13 -44.5t7 -59v-107v-149q-27 -108 -63 -212q-16 -17 -29.5 -44t-13.5 -43q-15 -60 20.5 -105t85.5 -45zM424 127q4 15 6 43t2 48.5t-0.5 60t-0.5 49.5q0 177 -28 221
q-3 7 -11.5 30t-11 28l-10.5 20.5t-14.5 19.5l-18 11.5t-25.5 9.5t-32 2h-40q-124 -184 -87 -533q0 -149 43 -171l22 22q15 5 30.5 7t26 2.5t29 -4t25 -6.5t30.5 -10.5l30 -10.5q9 19 14 42.5t10 58t11 60.5zM346 -119q0 10 -5.5 21t-10.5 17l-6 6h-62q-26 0 -25 -35
q0 -36 24 -54q9 -7 19 -7q13 0 19 0.5t13 4t14 11.5q7 7 12 16t6 15z" />
    <glyph glyph-name="R" unicode="R" horiz-adv-x="594" 
d="M441 306q38 -48 54 -129.5t22 -198t12 -158.5q14 0 21 -0.5t14 -5.5t7 -15q0 -54 -91 -48q-12 1 -58 6q-19 18 -16 43t12.5 60.5t-1.5 101.5q-4 26 -4.5 78.5t-8 93t-29.5 73.5q-5 7 -12.5 19t-13.5 20t-16 18q0 10 -5.5 15.5t-17.5 12.5t-20 14q-14 0 -21 -0.5t-14 -5.5
t-7 -14q-10 -48 -10 -106.5t5 -124t5 -91.5q0 -86 20 -130q0 -11 21.5 -21t21.5 -20v-8v-7.5v-6.5t-1 -5.5t-2 -4t-3 -3.5t-5 -2t-7 -1q-9 0 -50.5 3.5t-73.5 2t-50 -11.5q-27 0 -38.5 1.5t-24 11.5t-23.5 31q22 20 64 20v365q0 14 5 40t5 47.5t-10 40.5q0 11 3 26t4 30
q3 50 -2 136t-5 130q-78 0 -78 31q0 44 19 54t74 10q11 0 24.5 6t23.5 6q53 9 105 9.5t103.5 -8t88 -36.5t47.5 -72q26 -108 0 -171q-16 -39 -63 -86l-22 -22q0 -10 11 -21t11 -22zM228 669q0 -98 8 -264q3 -13 26 -10t52.5 16t40.5 24q0 12 9 43t11 42q6 14 3 45t-3 41
q0 7 -2 14t-4 11.5t-7.5 11l-7.5 9t-10.5 10t-10.5 9.5q-11 0 -53 -1t-52 -1z" />
    <glyph glyph-name="S" unicode="S" horiz-adv-x="513" 
d="M345 709q0 22 22 22q14 0 21 -0.5t13.5 -6t6.5 -15.5q10 -9 10 -24.5t-5 -34t-5 -24.5q-2 -5 -6.5 -15t-7.5 -16l-7.5 -15.5t-8 -15t-8.5 -12t-10 -10t-11 -5.5t-12.5 -1.5t-13.5 4.5q-9 9 -9 25t4.5 41t4.5 40q-16 17 -46 30t-60 13q-17 -32 -17 -96t17 -97
q14 -28 44.5 -54t60.5 -44.5t64 -48.5t53 -64q25 -43 41 -76q32 -63 32 -140q0 -103 -40 -190q-24 -52 -64 -81.5t-105 -45.5h-86q-27 0 -64.5 29t-62.5 56q-48 91 -22 191q-11 0 -21.5 -11t-20.5 -11q-22 22 -22 64q29 10 83.5 20t87.5 24q32 0 45 -27t-3 -59
q-42 0 -64 -22q-33 -30 -18.5 -102.5t60.5 -88.5q11 0 22 11t22 11q93 47 126.5 159.5t1.5 244.5q-17 31 -36 50t-50 36q-43 21 -86 64q-9 9 -31 22t-40 32l-16.5 17l-18.5 19.5l-15.5 17.5t-15 20.5t-8.5 19.5t-4 21q-25 82 64 171q8 0 34.5 11t50.5 11q20 0 35 -3t35 -9
t38 -10q20 -22 42 -22z" />
    <glyph glyph-name="T" unicode="T" horiz-adv-x="596" 
d="M524 561q-10 10 -10 46.5t-11 58.5q-9 9 -30 9t-50.5 -4.5t-43.5 -4.5q-9 -19 -9 -45t4.5 -57.5t4.5 -44.5v-394v-168v-42q0 -14 -2.5 -37t-2.5 -39t5 -28q3 -7 19 -9t29.5 -8t13.5 -24q-21 -21 -42 -21h-188q-10 0 -15 7t-5.5 14t-0.5 21q10 0 31 10t31 10
q0 28 0.5 82.5t0.5 96.5t-1 72v249v104v42q0 145 -21 209q-44 8 -84.5 5.5t-65.5 -32t-16 -78.5q-20 -21 -41 0q0 13 -4.5 44.5t-4.5 57.5t9 45q70 36 142 36q30 0 105 2.5t108 2.5q47 0 75.5 -1.5t65 -11t45.5 -28.5q11 -33 13 -65.5t-11.5 -57t-42.5 -24.5z" />
    <glyph glyph-name="U" unicode="U" horiz-adv-x="598" 
d="M221 -105q61 -61 113 -24q26 19 42 53t21.5 85t6.5 75.5t1 75.5v305q0 29 4.5 76.5t4.5 78t-9 48.5q-9 10 -19 15.5t-16 6.5h-5q0 5 -14 37q-7 18 5 18q18 0 71.5 3t78.5 2q35 -1 55 -13.5t18.5 -26.5t-10.5 -24q-25 -20 -31 -66t-5.5 -112t-6.5 -103v-203v-22
q0 -99 -12.5 -170t-47.5 -135q-66 -122 -163 -122q-7 0 -16 -1t-32 -1q-77 11 -135 104q-19 32 -26 96.5t-14 86.5v509q0 1 2 59t-2 62q-1 10 -11 17t-21.5 10.5t-20.5 12.5t-9 22q6 6 12 9.5t15 5.5t14.5 2.5t19.5 1t21 1.5q27 5 67 3t58 -20t-24 -65v-121v-184
q0 -45 0.5 -109.5t0.5 -83.5q0 -197 19 -275z" />
    <glyph glyph-name="V" unicode="V" horiz-adv-x="599" 
d="M415 744q17 -9 41 -9t53.5 4.5t41.5 4.5q10 -10 15 -16t10 -16.5t4 -22t-8 -25.5h-40q-9 -17 -14.5 -37.5t-11 -50t-10.5 -49.5q-29 -109 -82.5 -361.5t-96.5 -383.5q-31 -45 -55 12q-4 8 -24 67q-19 38 -19 98q-18 68 -59 235q-14 41 -26 91.5t-18 85.5l-15.5 94
t-13.5 82q-16 89 -16 111q0 5 -2.5 8.5t-8 4t-10.5 0.5t-13.5 -0.5t-12.5 -0.5q0 10 -2.5 29t-2.5 29q0 5 3.5 8.5t10.5 4t13 0.5t15 -0.5t13 -0.5q101 0 145 3q33 2 36 -30q3 -33 -24 -56q-14 -12 -33 -12q0 -70 40 -274q40 -239 79 -334q1 12 19.5 75t18.5 82
q10 46 33.5 129.5t40 156t24.5 145.5q0 6 3 11.5t5 8.5t0.5 7.5t-8.5 11.5t-23 15t-26 17.5t-10 26.5q2 0 5.5 0.5t9.5 6t6 14.5z" />
    <glyph glyph-name="W" unicode="W" horiz-adv-x="904" 
d="M226 680q-6 -10 -1.5 -29.5l13 -57t8.5 -55.5q0 -24 2 -52t3.5 -46.5t7 -56t7.5 -50l9.5 -61t9.5 -57.5q-3 -20 12 -35q11 -11 23 22q7 20 7 34q94 189 119 384q-18 19 -38 19h-21q-21 21 -21 41q0 9 20 9t54 -4.5t48 -4.5t32.5 4.5t34.5 4.5t34 -9q17 -15 3 -37.5
t-44 -22.5l62 -365q14 14 23.5 32t14 31.5t11.5 39.5t13 42q12 22 22.5 82t17.5 76q22 49 22 111q-44 -9 -44 11q0 6 -3 23t-2.5 27t8.5 11q127 23 198 -8q0 -9 1 -25.5t1 -27.5q-10 -10 -41 -10t-41 -10q-11 -12 -19.5 -57t-11.5 -53q-9 -23 -17.5 -48t-13 -40.5t-11.5 -48
t-8.5 -41l-9 -50t-8.5 -47.5q-12 -77 -30 -207t-26 -182q-1 -8 -4.5 -45t-8.5 -60t-14 -32q-27 0 -44.5 39t-17.5 63q-31 232 -121 465q-48 -96 -99 -297t-82 -270q-49 0 -62 81q-13 84 -37 284.5t-42 303.5q0 106 -41 262q-30 -14 -45 -2.5t-15 42.5q0 21 20 21
q28 0 71.5 4.5t79 4.5t71.5 -9q2 0 5.5 -0.5t9 -6t5.5 -14.5q0 -8 -10 -13.5t-25.5 -12t-23.5 -14.5z" />
    <glyph glyph-name="X" unicode="X" horiz-adv-x="740" 
d="M713 706q0 -20 -59 -20q-71 -85 -180 -339q-20 -45 -20 -61q0 -22 10 -57t10 -42q25 -51 76 -187.5t84 -190.5q39 0 59 -20q0 -15 -2.5 -17.5t-17.5 -2.5q-44 -14 -79 -14t-81 14q-20 20 -20 40h81q-10 28 -40.5 88t-40.5 92l-11.5 36l-13.5 43t-14 39.5t-19 43t-21 36.5
q-13 -51 -81.5 -174t-76.5 -164q0 -9 10 -14.5t25.5 -11.5t23.5 -14q0 -19 -6.5 -35.5t-19.5 -16.5q-9 0 -36.5 2.5t-37.5 2.5q-13 0 -47 3.5t-53 3.5h-39q-10 0 -20 -9.5t-20 -9.5q-9 0 -14 10t-6 20v9q0 49 82 46q25 66 60.5 136l83.5 158l73 137q10 10 19.5 37.5
t20.5 43.5q-20 40 -20 60q-10 20 -28.5 43t-23.5 36q-12 28 -44 78t-45 80q-2 5 -6.5 21t-9.5 23.5t-14 7.5h-40q-7 7 -18.5 14t-16.5 12t-5 14q46 22 180 19q13 0 22.5 -12.5t9.5 -27.5q-22 -1 -29 -11.5t-1.5 -28.5t14.5 -36.5t20.5 -40t14.5 -33.5q10 -35 42 -82t37 -56
q0 9 10 29t10 30q16 32 35.5 94t24.5 103q-17 3 -25 12t-9 16t0.5 20.5t1.5 16.5q16 8 28.5 8t35 -4.5t28.5 -4.5q10 0 40 -1t40 -1q8 0 25 1.5t27.5 1.5t22.5 -3t18 -12.5t6 -26.5z" />
    <glyph glyph-name="Y" unicode="Y" horiz-adv-x="607" 
d="M588 742q0 -57 -18 -57h-59q-9 -26 -46 -161.5t-68 -201.5q-13 -14 -18.5 -30.5t-6 -29.5t1.5 -42.5t2 -49.5q-6 -18 -5.5 -33t4 -43.5t3.5 -38.5q0 -18 -2 -60.5t-2.5 -69.5t5 -56.5t18.5 -42.5q52 2 52 -17q17 -52 -3 -57q-29 -7 -60 -7.5t-62 2.5t-41 3h-96
q-26 28 0 57q10 9 39 9t38 10q0 19 1 77.5t0.5 89t-2.5 84.5t-8.5 89t-16.5 75.5t-27.5 70t-41.5 49.5q-13 38 -57 134q-39 117 -39 190q-57 0 -57 18q-2 22 6.5 34t25.5 14.5t33 2t37 -3.5t30 -3q18 0 57.5 -2.5t58.5 -2.5q19 -19 19 -57q-5 0 -22 3t-30.5 1.5t-21.5 -9.5
q3 -12 8 -76q1 -18 5 -40t4 -32q15 -58 41 -110.5t54 -80.5q18 9 28 25.5t21.5 49t19.5 48.5q45 93 47 202q0 14 -34 25.5t-43 31.5q0 17 25.5 21.5t82.5 1t63 -3.5q7 0 18.5 4.5t21 4.5t17.5 -9z" />
    <glyph glyph-name="Z" unicode="Z" horiz-adv-x="513" 
d="M178 -163h41q15 0 60 -2.5t62 -0.5q10 1 21.5 2t15.5 1t9 2t8.5 6t8.5 12q8 12 9 62.5t13 61.5q9 0 24.5 -5t26.5 -10l11 -5q0 -134 -16 -193q-6 -6 -13 -9.5t-17 -5t-16 -2t-21.5 0t-21.5 0.5l-81 1h-187h-83v42v42q39 77 82.5 238t82.5 238q11 49 42.5 132t41.5 136
q41 43 41 105q-166 0 -227 -22q0 -5 4.5 -29t4.5 -44.5t-9 -28.5q-37 -10 -47 10.5t-9.5 66t-6.5 66.5q0 6 -2 13t-4 11.5t-3 9t1 6.5t8 2h146h83h143q49 0 52 -23q5 -29 -2.5 -57.5t-25.5 -69.5t-24 -57q-18 -38 -44 -130t-50 -137q-19 -64 -56 -150t-57 -152t-19 -134z
" />
    <glyph glyph-name="bracketleft" unicode="[" horiz-adv-x="292" 
d="M268 731q9 -11 8.5 -22.5t-4.5 -20.5l-5 -9q-21 0 -63.5 -5t-63.5 -5q-7 -7 -10 -19.5t-3.5 -21.5t0.5 -24t1 -19q0 -21 -4 -72t-4 -72v-125v-64q-10 -41 -3 -138.5t-3 -138.5q0 -11 3 -38.5t3 -37.5v-62q20 -11 72.5 -11t73.5 -10q13 -28 -4 -45.5t-38 -17.5h-42
q-9 9 -14.5 9t-12.5 -4.5t-15 -4.5h-96q-9 0 -14 5.5t-6 10.5v5q-9 28 -9 59.5t4.5 69.5t4.5 59q0 10 1.5 35t1.5 35q0 42 -1.5 121t-1.5 121v83v84v41v21v146q0 6 -2 21.5t-2 31t4 30.5q1 4 2 6.5t3 5t3.5 3.5t5 2t6 1t9.5 1t12 2q12 2 21.5 -3t19.5 -5q18 0 56.5 6t63 2.5
t42.5 -22.5z" />
    <glyph glyph-name="backslash" unicode="\" horiz-adv-x="480" 
d="M456 -250h-42q-5 11 -14.5 27t-14 25t-8.5 23t-4 29q-19 19 -33 41.5t-32 62.5t-18 41q-9 28 -62.5 154.5t-62.5 198.5q-18 27 -35.5 77t-26.5 68q0 17 -10.5 43.5t-20.5 36.5q-6 6 -13 20t-19 26q-17 17 -23 49t10 64q4 7 7.5 9.5t5.5 3t9 -0.5t13 -1q27 0 41.5 -24.5
t25.5 -76t16 -66.5q7 -15 14 -33.5t12.5 -29t14.5 -20.5q0 -16 41 -104q2 -6 9 -25.5l10 -27.5l9.5 -25.5t11.5 -28l12 -25.5t14.5 -28.5t16.5 -26.5q30 -119 84 -228q0 -46 42 -124q47 -52 20 -104z" />
    <glyph glyph-name="bracketright" unicode="]" horiz-adv-x="324" 
d="M273 -231q-18 -9 -41 -11t-56 0.5t-41 2.5q-7 0 -28.5 -2.5t-35.5 -0.5t-23 11q-2 0 -5.5 0.5t-9 6t-5.5 15.5q0 9 6.5 14t13.5 5.5t21 0.5q18 9 38 9t45 -4.5t39 -4.5v204q-3 36 -3 56q0 28 1.5 97t1.5 113q0 6 4.5 19.5t4.5 28.5t-9 33v82v41v20v102v82q-108 0 -119 1
q-60 5 -57 26q1 8 12 19q15 15 57 10.5t66 4.5q20 0 50 -1t51 -1q14 0 28.5 -21t14.5 -38q28 -173 0 -347v-183q0 -21 1.5 -61t1.5 -60q0 -24 -1.5 -54t-1.5 -51q0 -15 2.5 -47t2.5 -51t-6 -38.5t-20 -27.5z" />
    <glyph glyph-name="asciicircum" unicode="^" horiz-adv-x="413" 
d="M343 518q-35 52 -80 99t-65 47q-6 0 -13.5 -4.5t-12.5 -9.5t-14 -15t-13 -14q-9 -17 -35 -52.5t-35 -54.5h-2q-26 -12 -45 3q-13 11 -1 21q17 27 61.5 86.5t60.5 90.5q0 13 19.5 24.5t34.5 11.5q14 0 34 -20t20 -33q11 -11 47.5 -57.5t63.5 -69.5q10 -9 23 -29
q0 -17 -17 -28.5t-31 4.5z" />
    <glyph glyph-name="underscore" unicode="_" horiz-adv-x="523" 
d="M405 -302q-63 11 -177 1t-160 -1q-23 21 -23 59h167q73 19 193 19q8 -6 28.5 -13.5t32.5 -17t12 -26.5q0 -9 -12.5 -9.5t-31.5 -1.5t-29 -10z" />
    <glyph glyph-name="grave" unicode="`" horiz-adv-x="191" 
d="M35 938q15 14 31 -2q6 3 7.5 2t5 -9t6.5 -11q66 -38 81 -94q-1 -27 -19 -46q-25 6 -52 48t-49 55q-33 33 -11 57z" />
    <glyph glyph-name="a" unicode="a" 
d="M407 -168q0 275 -22 381q-17 0 -74.5 10.5t-91.5 10.5q-22 -21 -22 -108q-23 -84 -23 -295q11 -9 32.5 -9t31.5 -10l-3 -42q-28 -19 -63 -20t-61 4.5t-61 -6.5l-44 42q37 41 63 41q10 0 15.5 7t6 14t0.5 22q11 71 32.5 238.5l29.5 226.5q0 86 44 168q24 93 104 211l5 5
t13 9.5t19.5 10t22.5 3.5t24 -6q32 -16 60 -65t28 -83q24 -49 32 -113q11 -92 26 -278t23 -263v-128q0 -6 10 -19t10 -24t-20 -20l-26 6q-21 0 -60 -3t-61 -3q-4 0 -14 -1.5t-15.5 -2t-12.5 0t-10.5 3.5t-3.5 8q0 18 20 47.5t36 29.5zM301 614q-44 -138 -63 -212
q0 -9 -9.5 -51.5t-9.5 -55.5q62 -19 166 -19v126q0 99 -40 212q0 2 -0.5 5.5t-6 9.5t-15.5 6z" />
    <glyph glyph-name="b" unicode="b" horiz-adv-x="529" 
d="M347 399q0 -7 4.5 -12t10 -8t20 -9t26.5 -12q34 -34 57.5 -93t23.5 -131q16 -108 -25 -215t-117 -153q-19 -9 -43.5 -14t-43 -5.5t-56.5 -0.5q-20 0 -61 10t-62 10q-25 0 -35 1.5t-18 10.5t-8 29v21h61q11 51 11 168.5t10 178.5v40v102v205v163q-16 0 -24.5 0.5
t-21.5 2.5t-19.5 6t-11.5 12t-5 20q20 20 102 20q68 0 103.5 -1.5t79 -11t62.5 -28.5q4 -9 14 -27t14.5 -27.5t8.5 -27.5t4 -40q14 -42 -6.5 -95.5t-54.5 -88.5zM224 685q-14 -14 -17 -30t-3 -52q0 -38 0.5 -56.5t5.5 -43t14 -43.5q7 -4 12 -5t12.5 5t12 12t12 15t12.5 14
q42 121 21 163q-21 21 -82 21zM306 -152l41 41q20 20 20 81q15 16 17.5 21t2.5 20q9 18 9 48.5t-4.5 67t-4.5 48.5q0 8 0.5 19.5t0.5 16.5t-1.5 13t-4.5 16.5t-9 20.5q2 4 -1 20q-8 17 -16 37q-61 61 -132 61q-20 -21 -20 -82v-327v-142q81 0 102 20z" />
    <glyph glyph-name="c" unicode="c" horiz-adv-x="555" 
d="M495 688q0 -10 11 -20t11 -20q0 -104 -22 -104q-14 0 -21 13.5t-7.5 30.5t-3.5 35t-9 25q-101 32 -166 0q-11 -11 -32 -52.5t-31 -51.5q0 -22 -20 -42q-10 -40 -15 -82t-6 -72.5t-1 -95.5v-124q46 -261 146 -313q15 -7 30.5 -8.5t32.5 4t29.5 11t32.5 15.5q10 20 10 72.5
t10 73.5q24 0 40 -11t23 -11v-146q-8 -21 -26 -35t-36.5 -21t-49 -9t-51.5 -1.5t-57.5 6t-52 8.5l-49.5 10q-7 1 -10 2q-12 12 -39.5 33.5t-47.5 42.5t-38 49q-5 24 -24 101t-29 136t-10 115q6 31 16.5 98.5t21 118.5t25.5 95q9 10 18 30.5t22 32.5q36 51 96.5 87.5
t132.5 36.5q16 -5 42.5 -12t40 -11t31.5 -14.5t32 -25.5z" />
    <glyph glyph-name="d" unicode="d" horiz-adv-x="617" 
d="M24 -187h84q11 0 22 10t21 10v235q0 58 -10.5 143t-10.5 112q0 170 -22 233v86q-12 0 -30 -5.5t-28 -8t-18 5t-8 30.5q0 9 5.5 14t17.5 12t20 15l21 22q42 21 128 21q14 0 32.5 1.5t35.5 1.5t40 -4q1 1 3 1.5t7 1t9 -1.5q11 -11 42.5 -32.5t42.5 -31.5q20 -9 37 -28
t26 -35t22 -43q52 -107 63 -193q1 -4 3 -20.5t2.5 -22.5t2.5 -21.5t2.5 -23t1 -22.5t0.5 -24t-0.5 -23t-2 -25t-4 -24.5t-5.5 -25.5q0 -37 -11 -76.5t-21 -64.5t-38 -68t-36.5 -55l-41.5 -56q-8 -4 -40 -23.5t-62 -29.5t-69 -10h-41q-43 -21 -149 -21q-43 41 -43 64z
M257 684q-7 -7 -10.5 -22t-3.5 -26.5t0.5 -32.5t0.5 -25q0 -34 2.5 -82t2.5 -67q0 -21 4 -68t4 -81v-212q0 -22 11 -64.5t11 -62.5q0 -16 -5 -35t-5 -30.5t10 -20.5q11 0 32 10.5t32 10.5q0 10 5.5 15.5t11.5 6.5h5q9 0 14 5t5 11l1 5q20 29 30 72.5t11.5 74t1.5 87.5
q0 13 4.5 46t4.5 64.5t-9 59.5v64q-5 25 -13.5 76.5t-14 79.5t-20.5 63t-37 58q-14 14 -31 17t-55 3z" />
    <glyph glyph-name="e" unicode="e" horiz-adv-x="520" 
d="M450 587q-10 11 -10 41t-11 40q-20 11 -41 21q-101 0 -142 -21q-4 -4 -7.5 -8.5t-5.5 -11.5t-3 -11t-1.5 -14.5t-0.5 -14.5v-18v-18q0 -31 -1.5 -70t-1.5 -57q0 -22 4.5 -53t4.5 -52t-9 -39q21 -19 122 -19q0 60 21 60q15 0 20 -2.5t21 -17.5q-11 -24 -6 -60.5t4 -70
t-19 -33.5q-41 21 -41 41v21h-101q-9 -28 -10.5 -63.5t1.5 -82t3 -61.5q0 -34 3 -99t3 -82q61 -20 163 -20q17 8 19 29t3.5 42.5t18.5 29.5q14 0 23.5 -9t12.5 -27t4 -30.5t1 -34.5q0 -19 -41 -62h-103q-204 0 -326 21v41h82q9 54 9 110t-4.5 125t-4.5 111v41v205v81v183
h-82v41q42 11 123.5 21t121.5 20h204q21 -20 21 -41q0 -10 5 -35.5t6 -41.5t-11 -30.5t-41 -14.5z" />
    <glyph glyph-name="f" unicode="f" horiz-adv-x="587" 
d="M565 567q0 -9 -7 -14t-14 -5.5t-20 -0.5q-9 19 -14 43t-5.5 42.5t-0.5 56.5q-163 0 -225 -21q-8 -18 -8 -54t4 -89t4 -81q0 -6 -4 -24t-4 -33t8 -24h62v81q24 1 39 -10.5t19.5 -35.5t5.5 -43.5t-1 -51.5t-2 -42q-15 -15 -22.5 -17.5t-38.5 -2.5v40q-20 21 -62 21
q-18 -19 -22.5 -37.5t-0.5 -55t4 -50.5q-20 -40 -20 -143v-61q0 -81 20 -122q15 0 35 -24q26 -30 -4 -36q-5 -1 -12 -1q0 -9 -5 -9t-16 4.5t-18 4.5q-9 0 -34.5 -10t-48.5 -10q-10 0 -40.5 10t-40.5 10q-9 0 -14 7t-5.5 14t-0.5 20q9 9 19 14t15 5l6 1q18 9 23.5 35.5t8 66
t9.5 62.5v162q0 14 4.5 33.5t4.5 35t-9 33.5q0 7 10 33t10 48q0 30 -10 102t-10 103q0 13 4.5 43t4.5 55.5t-9 43.5q-14 0 -38 -4.5t-39.5 -4.5t-24.5 9q-30 30 0 61h408h81q17 0 27.5 -12t13.5 -35.5t3 -43.5t-1.5 -50.5t-1.5 -41.5z" />
    <glyph glyph-name="g" unicode="g" horiz-adv-x="545" 
d="M466 537q-23 12 -28.5 70.5t-11.5 71.5q-46 0 -74.5 -2t-69.5 -16t-60 -42q-2 -3 -9 -18l-10.5 -22t-10 -21.5t-10 -25t-7.5 -24.5t-5.5 -28t-1.5 -27q0 -51 -3.5 -151t-3.5 -150q0 -27 -4.5 -77t-4.5 -90.5t9 -76.5q6 -23 18 -39t33.5 -26t37 -15t47.5 -11.5t47 -10.5
q36 5 57.5 25.5t29.5 55.5t10 67t2 81t2 76q-8 9 -18 9t-16 -4l-6 -5q-6 -13 -11.5 -61.5t-29.5 -60.5q-9 0 -14 5t-12 16.5t-14 18.5q0 102 20 142q16 0 44.5 2.5t45.5 3t38 -5t35 -19.5q9 -9 9 -19.5t-4.5 -23t-4.5 -19.5q0 -26 2.5 -73.5t2.5 -75t-6 -60.5t-20 -54
q0 -9 -10.5 -19.5t-26.5 -23t-23 -19.5q-32 -16 -86.5 -16.5t-96.5 16.5q-70 28 -100 56.5t-83 106.5q-41 119 -41 224v121q0 45 17 139q12 60 21 82q8 18 16.5 50t18.5 54.5t28 40.5q11 11 21 31t20 30q9 0 19.5 5t15.5 10l6 5q41 21 122 21q5 0 24.5 4.5t39.5 4.5t38 -9
q16 0 38 -13.5t22 -27.5q14 -48 5.5 -96.5t-25.5 -66.5z" />
    <glyph glyph-name="h" unicode="h" horiz-adv-x="618" 
d="M554 667q-21 -41 -21 -164v-182v-163q0 -51 10.5 -163.5t10.5 -162.5q7 -7 18.5 -14t17 -12.5t5.5 -14.5v-41l-2 4t-6.5 5t-11.5 -5q-9 -3 -16.5 -4.5t-10.5 -1.5l-4 1q-8 0 -28.5 0.5t-43.5 0.5q-11 0 -25 -0.5t-23 -0.5l-7 7t-3.5 6.5t-1 5t2 5l3.5 5t6.5 6.5t7.5 7
q0 11 20 21t20 20q9 72 9 158.5t-4.5 191.5t-4.5 159q0 9 -5 14.5t-11 6.5h-5q-27 9 -62 9t-78 -4.5t-63 -4.5q-19 -19 -28.5 -43.5t-11 -43t-1.5 -57.5v-223v-62q11 -21 11 -51t10 -50q19 0 33 -23t-13 -38q-29 0 -67 -4.5t-69 -4.5t-67 9q-21 41 0 61h41v81v469v41v20v60
v21q-10 20 -10 71t-11 72q-20 0 -41 21q-20 20 0 41h82q13 0 43.5 4.5t55.5 4.5t43 -9q16 0 28.5 -13t12.5 -28q0 -21 -61 -21q-9 -9 -9 -19.5t4.5 -29t4.5 -33.5q0 -13 -4.5 -43.5t-4.5 -55.5t9 -43q123 -30 244 0q0 163 -21 224q-10 11 -40 11t-40 10v41q60 29 121 20
q6 -3 34 -1l28 1q20 -10 27.5 -30t0 -36t-27.5 -16z" />
    <glyph glyph-name="i" unicode="i" horiz-adv-x="280" 
d="M211 675q-10 -39 -9 -61t5.5 -62t3.5 -62q-2 -63 -8 -199t-9.5 -247t-3.5 -212q11 -11 31.5 -21t29.5 -19q0 -9 -5 -14.5t-16 -12.5t-19 -15q-21 10 -87.5 10t-97.5 11q-21 21 0 40q0 11 15 11t25 10q9 9 9 24t-4.5 33.5t-4.5 24.5q0 32 1.5 90.5t1.5 88.5q-3 27 -3 48
v185v349q-13 0 -19.5 0.5t-13.5 5.5t-7 15v41q0 9 6 9t22.5 -4.5t32.5 -4.5q13 0 49.5 4.5t66.5 4.5t48 -9q17 -16 3 -39t-43 -23z" />
    <glyph glyph-name="j" unicode="j" horiz-adv-x="469" 
d="M379 679h-43q-4 -17 -6.5 -35.5t-3.5 -41.5t-1.5 -39t0 -44t1 -40.5t2.5 -44.5t2.5 -39l3 -41t2.5 -36q2 -31 2 -62.5t-1 -63t-1 -43.5q0 -27 3.5 -83t4.5 -96t-3 -86t-21 -76t-47 -42q-19 -9 -45.5 -9t-58 4.5t-45.5 4.5q-5 0 -9.5 1t-9.5 4l-8.5 5t-9.5 7l-9 7.5t-10 9
t-9 8.5q-34 34 -42 98.5t22 115.5q6 0 24.5 4.5t34.5 4.5t26 -9q-11 -21 -16 -33.5t-10.5 -32.5t-4.5 -40t9 -43q0 -18 17 -30.5t48 -12.5l20 21q0 53 10.5 170t10.5 170q0 19 -2 39.5t-5 46.5t-4 42q-2 22 -2 64q0 7 -3 29t-2 41q1 12 -1 40.5t-2 36.5q0 23 -5 47.5
t-5 37.5q0 5 1 15t1.5 17t-2.5 16t-10 16q-11 -11 -37.5 -11t-48.5 -10q0 -63 -42 -63q-22 21 -22 127q0 10 7 15t14 5.5t21 0.5q31 0 108.5 5t136 4.5t96.5 -9.5q32 -16 44.5 -45t-2.5 -62q0 -15 -3 -17.5t-19 -2.5q-18 0 -23.5 10.5t-7.5 27.5t-10 25z" />
    <glyph glyph-name="k" unicode="k" horiz-adv-x="603" 
d="M449 665q0 -76 -40 -202l-61 -121q0 -16 2.5 -18.5t17.5 -2.5q10 -10 40 -30t41 -30q28 -37 42 -83.5t24.5 -124t14.5 -96.5q0 -14 -4.5 -37.5t-4.5 -39t9 -24.5q0 -10 23 -29t23 -30q0 -8 -3.5 -18t-6.5 -15l-4 -6q-33 0 -101 -1.5t-85 -1.5q-9 9 -11 19t1 16l2 5l41 41
q8 18 8 38t-4 44.5t-4 38.5v122v20q0 50 -16 99t-45 63q-61 30 -122 0q-14 -14 -20 -45.5t-5.5 -59.5t3 -72.5t2.5 -64.5t-10.5 -51.5t-10.5 -51.5v-80q33 -16 41.5 -40t-20.5 -41q-30 11 -80.5 0.5t-80.5 -0.5q-16 16 -18.5 21t-2.5 19q8 8 19 15t16 12t5 14v101v162
q2 1 2 22l-2 19q0 7 10.5 42.5t10.5 58.5q0 262 -21 364v60q-13 0 -19.5 0.5t-13.5 5.5t-7 15q-14 1 -13.5 24t11.5 34q6 6 16 6.5t29 -2t34 -2.5q7 0 30 1.5t39.5 1.5t36 -3t30 -13t10.5 -27q0 -9 -5.5 -14t-16.5 -12t-19 -15q0 -40 10 -111t10 -111q0 -6 -4.5 -24
t-4.5 -33t9 -24q103 26 142 182q0 20 10.5 60t10.5 61h-41q0 11 -10.5 21t-10.5 20q12 23 60.5 28.5t61.5 11.5q28 -9 35.5 -29t-4 -36t-31.5 -16z" />
    <glyph glyph-name="l" unicode="l" horiz-adv-x="443" 
d="M288 720q-10 -21 -25 -36.5t-15 -25.5q0 -91 -16.5 -367.5t-5.5 -442.5q0 -15 2.5 -17t19.5 -3q6 -1 20.5 -0.5t19.5 0.5q16 -1 41 0h22v124v83q9 9 19.5 9t16.5 -4l6 -5q18 -19 23 -47t1 -79.5t-4 -60.5q0 -6 4.5 -24t4.5 -33.5t-9 -25.5q-62 -10 -181 -10t-171 -10
q-8 7 -20 14t-17 12.5t-5 15.5q0 9 7 14t14 5.5t21 0.5q14 14 17 30.5t3 52.5q21 104 21 352v22v185q0 146 -21 209q0 9 -5 14t-17 12t-20 14v42h22q18 0 95.5 6.5t115.5 1.5q5 -1 8 -1.5t5 -1t2.5 -3.5t0.5 -4.5v-7.5v-10z" />
    <glyph glyph-name="m" unicode="m" horiz-adv-x="833" 
d="M455 212q17 54 41 187q5 27 17.5 72.5t19.5 75.5q2 10 10 37t11.5 45.5t3.5 37.5q0 30 26 55.5t57 25.5h123q9 0 14.5 -5t12.5 -16.5t15 -19.5q-10 -10 -16.5 -15t-17 -10t-22.5 -4t-27 8q-9 -27 -9 -53t4.5 -58t4.5 -53v-83v-103v-165q0 -22 -1 -51.5t-1 -51t2 -41.5
q4 -38 4 -74t-2 -74.5t-2 -57.5q49 0 75 -31q22 -27 -5 -42q-11 0 -22 3t-22 3q-10 0 -22 -3.5t-23 -3.5l-36 7q5 3 -1 2q-59 -8 -68 -8q0 11 -10 16t-10 15q0 9 10.5 15t27 12.5t24.5 14.5q-7 51 -10.5 115t-3.5 102.5t2 130t2 119.5q0 14 5 61.5t5 68.5v83q3 12 -8 39
q0 4 0.5 9.5t1 8.5t-0.5 7t-4.5 8.5t-9.5 10.5q5 -23 -3 -42q-10 -24 -19 -59t-21 -88t-19 -79q-14 -42 -18 -63q-28 -145 -36 -183q-3 -13 -6.5 -48t-8.5 -56.5t-14 -21.5q-10 0 -30.5 10.5t-29.5 10.5q0 14 -2 29t-4 23t-7.5 26.5t-7.5 24.5q-50 177 -51 181
q-23 74 -42 124q-1 4 -6 19.5t-11 26.5t-15 20v-144q0 -22 -10 -87.5t-10 -97.5v-104v-185q13 0 20 -0.5t14 -5.5t7 -15q0 -18 -14.5 -28t-40 -13t-47 -3.5t-49.5 1.5t-34 2q-9 0 -14.5 5t-12.5 16.5t-15 19.5q4 4 12 14.5t12 12.5t14 2t25 -8v206v268v41v206v144
q-11 0 -19.5 -3.5t-17.5 -3.5t-22.5 3.5t-23.5 3.5q-16 16 -18.5 23.5t-2.5 38.5q79 27 227 -20q13 -28 62 -123v-21q14 -29 29.5 -68t24 -65l24.5 -75.5l21 -65.5q6 -17 11.5 -30.5t9 -20.5l11.5 -22z" />
    <glyph glyph-name="n" unicode="n" horiz-adv-x="647" 
d="M624 736q0 -9 -5 -19t-10 -15l-5 -6h-41q-9 -9 -9 -19.5t4.5 -28.5t4.5 -33q0 -16 -0.5 -150t0 -178.5t2 -148.5t5 -183.5t9.5 -159.5q1 -28 -18 -38.5t-41 -6t-33 15.5l-44 131l-58.5 175.5t-42.5 140.5q-9 32 -47 119l-13 32q-4 8 -13 52t-33 56v-140v-160v-161v-60
v-100q20 -20 59 -20q0 -10 1.5 -24t2 -22.5t-1 -17t-7.5 -12.5t-17 -4q-25 -1 -45 -1q-10 0 -67 -1.5t-67 -1.5q-6 0 -9 4t-3.5 12t-0.5 16.5t1 22t1 23.5q33 -14 33 6q9 18 10.5 41.5t-1 56.5t-2.5 42q0 32 -3.5 97t-3.5 83q0 20 -0.5 69t-0.5 72q0 22 -4 60t-4 58
q0 10 -5.5 31t-5.5 31v20v61q0 9 -1 22.5t-1 28.5t-9 37.5t-9 31.5q-29 0 -45 12t-16 28q0 15 10 26t25 11q11 0 21.5 1.5t24.5 2.5q10 1 30.5 -1.5t34.5 -2.5q12 0 21 -9t12 -19l2 -9q36 -54 65 -116t64.5 -155.5t50.5 -129.5q21 -63 61 -140q0 -22 17 -62l10.5 -32.5
t18 -53t18.5 -38.5q3 -5 3 12q0 14 -4 65q-4 53 -4 68q0 48 4 164.5t4 179.5v20q0 31 -10 81t-10 80q-40 40 -61 40q-4 4 -13.5 11.5t-12 11.5t-2 13.5t7.5 24.5q9 0 14.5 -3t21.5 -3q13 0 24.5 1.5t16.5 3.5l4 1q25 -6 51.5 -1.5t53 1.5t35.5 -21z" />
    <glyph glyph-name="o" unicode="o" horiz-adv-x="614" 
d="M487 -154q-23 -41 -56 -61q-67 -42 -132.5 -37t-116.5 37.5t-77 81.5q-37 70 -62 144q-20 80 -20 244q0 14 -2 36t-2 42.5t4 44.5q11 62 11 78q3 13 7 40t9 42t14 24q12 16 34.5 51t38 55.5t41 43.5t58.5 31t74 2q60 0 95.5 -18t66.5 -64q47 -31 79.5 -96t39.5 -143
q4 -41 4 -108v-26.5v-29.5t-0.5 -28.5t-1.5 -32.5t-3 -31t-5 -35t-7 -34q-30 -142 -91 -253zM398 -140q36 90 54 170q20 61 20 184q0 21 3.5 52.5t3.5 51.5t-3.5 60t-3.5 61q-10 20 -20 61t-21 62q-3 5 -14.5 31t-17.5 37.5t-19.5 27t-27.5 22.5q-19 0 -40.5 2t-42.5 2
q-53 -53 -82 -142q-21 -41 -21 -123q-23 -193 21 -449q8 -16 18.5 -53.5t22.5 -49.5q11 0 14.5 -13.5t8.5 -18.5q23 -23 79.5 -13.5t67.5 38.5z" />
    <glyph glyph-name="p" unicode="p" horiz-adv-x="596" 
d="M250 -173q51 0 70.5 -15.5t-7.5 -47.5q-37 0 -88.5 -4.5t-89 -4.5t-74.5 9q-22 20 -22 42q16 16 24 18.5t39 2.5q10 9 12 25.5t-1 42.5t-3 33q-1 75 2 187t3 156q0 12 1 42t1 59.5t-2 59.5q-3 7 -1.5 64.5t1.5 94.5q0 6 0.5 17.5t0.5 17t-1.5 13t-4.5 12t-9 6.5
q-10 4 -29 5.5t-31 12.5q-9 5 -13.5 9.5t-5 9t0 8.5t5 9.5t7.5 8.5t10 9t10 8q29 5 58.5 8t62.5 4t55 1.5t63.5 0t59.5 -0.5q5 0 17.5 2t25.5 -2q58 -9 104 -77.5t63 -153.5q0 -125 -21 -168q-7 -22 -23 -44.5t-30 -36t-39 -35t-34 -30.5q-20 -10 -44.5 -15t-43 -6t-58.5 -1
q-2 0 -5.5 -0.5t-9.5 -6t-6 -14.5v-83q0 -28 -5 -79.5t-5 -93.5t10 -79zM250 372v-104q15 -16 41.5 -19t39.5 6q30 19 54 51.5t32 65.5q2 7 5 19.5t4 15.5t2.5 12t2 13.5t1 14.5t0.5 20.5v26.5q0 99 -35 171q-9 0 -35 11t-49 11h-63q-10 -47 -10 -99.5t5 -116.5t5 -99z" />
    <glyph glyph-name="q" unicode="q" horiz-adv-x="558" 
d="M558 -290q10 0 15.5 -6.5t6 -13.5t0.5 -21q-61 -31 -117 -7q-52 22 -64 50q-2 5 -6.5 24t-10 29.5t-15.5 10.5q-8 0 -35 -11t-52 -11q-29 0 -84 22q-39 16 -85 62q-45 47 -71.5 117.5t-33 157.5t-4 168t13.5 180q1 11 5 19t4 19q11 21 22 53.5t22 53.5q10 11 20.5 32.5
t21.5 31.5q0 10 10.5 20.5t28.5 23.5t25 20q172 34 256 -22q53 -51 86 -147q15 -32 21 -46.5t13 -44.5t7 -59v-107v-149q-27 -108 -63 -212q-16 -17 -29.5 -44t-13.5 -43q-15 -60 20.5 -105t85.5 -45zM424 127q4 15 6 43t2 48.5t-0.5 60t-0.5 49.5q0 177 -28 221
q-3 7 -11.5 30t-11 28l-10.5 20.5t-14.5 19.5l-18 11.5t-25.5 9.5t-32 2h-40q-124 -184 -87 -533q0 -149 43 -171l22 22q15 5 30.5 7t26 2.5t29 -4t25 -6.5t30.5 -10.5l30 -10.5q9 19 14 42.5t10 58t11 60.5zM346 -119q0 10 -5.5 21t-10.5 17l-6 6h-62q-26 0 -25 -35
q0 -36 24 -54q9 -7 19 -7q13 0 19 0.5t13 4t14 11.5q7 7 12 16t6 15z" />
    <glyph glyph-name="r" unicode="r" horiz-adv-x="594" 
d="M441 306q38 -48 54 -129.5t22 -198t12 -158.5q14 0 21 -0.5t14 -5.5t7 -15q0 -54 -91 -48q-12 1 -58 6q-19 18 -16 43t12.5 60.5t-1.5 101.5q-4 26 -4.5 78.5t-8 93t-29.5 73.5q-5 7 -12.5 19t-13.5 20t-16 18q0 10 -5.5 15.5t-17.5 12.5t-20 14q-14 0 -21 -0.5t-14 -5.5
t-7 -14q-10 -48 -10 -106.5t5 -124t5 -91.5q0 -86 20 -130q0 -11 21.5 -21t21.5 -20v-8v-7.5v-6.5t-1 -5.5t-2 -4t-3 -3.5t-5 -2t-7 -1q-9 0 -50.5 3.5t-73.5 2t-50 -11.5q-27 0 -38.5 1.5t-24 11.5t-23.5 31q22 20 64 20v365q0 14 5 40t5 47.5t-10 40.5q0 11 3 26t4 30
q3 50 -2 136t-5 130q-78 0 -78 31q0 44 19 54t74 10q11 0 24.5 6t23.5 6q53 9 105 9.5t103.5 -8t88 -36.5t47.5 -72q26 -108 0 -171q-16 -39 -63 -86l-22 -22q0 -10 11 -21t11 -22zM228 669q0 -98 8 -264q3 -13 26 -10t52.5 16t40.5 24q0 12 9 43t11 42q6 14 3 45t-3 41
q0 7 -2 14t-4 11.5t-7.5 11l-7.5 9t-10.5 10t-10.5 9.5q-11 0 -53 -1t-52 -1z" />
    <glyph glyph-name="s" unicode="s" horiz-adv-x="513" 
d="M345 709q0 22 22 22q14 0 21 -0.5t13.5 -6t6.5 -15.5q10 -9 10 -24.5t-5 -34t-5 -24.5q-2 -5 -6.5 -15t-7.5 -16l-7.5 -15.5t-8 -15t-8.5 -12t-10 -10t-11 -5.5t-12.5 -1.5t-13.5 4.5q-9 9 -9 25t4.5 41t4.5 40q-16 17 -46 30t-60 13q-17 -32 -17 -96t17 -97
q14 -28 44.5 -54t60.5 -44.5t64 -48.5t53 -64q25 -43 41 -76q32 -63 32 -140q0 -103 -40 -190q-24 -52 -64 -81.5t-105 -45.5h-86q-27 0 -64.5 29t-62.5 56q-48 91 -22 191q-11 0 -21.5 -11t-20.5 -11q-22 22 -22 64q29 10 83.5 20t87.5 24q32 0 45 -27t-3 -59
q-42 0 -64 -22q-33 -30 -18.5 -102.5t60.5 -88.5q11 0 22 11t22 11q93 47 126.5 159.5t1.5 244.5q-17 31 -36 50t-50 36q-43 21 -86 64q-9 9 -31 22t-40 32l-16.5 17l-18.5 19.5l-15.5 17.5t-15 20.5t-8.5 19.5t-4 21q-25 82 64 171q8 0 34.5 11t50.5 11q20 0 35 -3t35 -9
t38 -10q20 -22 42 -22z" />
    <glyph glyph-name="t" unicode="t" horiz-adv-x="596" 
d="M524 561q-10 10 -10 46.5t-11 58.5q-9 9 -30 9t-50.5 -4.5t-43.5 -4.5q-9 -19 -9 -45t4.5 -57.5t4.5 -44.5v-394v-168v-42q0 -14 -2.5 -37t-2.5 -39t5 -28q3 -7 19 -9t29.5 -8t13.5 -24q-21 -21 -42 -21h-188q-10 0 -15 7t-5.5 14t-0.5 21q10 0 31 10t31 10
q0 28 0.5 82.5t0.5 96.5t-1 72v249v104v42q0 145 -21 209q-44 8 -84.5 5.5t-65.5 -32t-16 -78.5q-20 -21 -41 0q0 13 -4.5 44.5t-4.5 57.5t9 45q70 36 142 36q30 0 105 2.5t108 2.5q47 0 75.5 -1.5t65 -11t45.5 -28.5q11 -33 13 -65.5t-11.5 -57t-42.5 -24.5z" />
    <glyph glyph-name="u" unicode="u" horiz-adv-x="598" 
d="M221 -105q61 -61 113 -24q26 19 42 53t21.5 85t6.5 75.5t1 75.5v305q0 29 4.5 76.5t4.5 78t-9 48.5q-9 10 -19 15.5t-16 6.5h-5q0 5 -14 37q-7 18 5 18q18 0 71.5 3t78.5 2q35 -1 55 -13.5t18.5 -26.5t-10.5 -24q-25 -20 -31 -66t-5.5 -112t-6.5 -103v-203v-22
q0 -99 -12.5 -170t-47.5 -135q-66 -122 -163 -122q-7 0 -16 -1t-32 -1q-77 11 -135 104q-19 32 -26 96.5t-14 86.5v509q0 1 2 59t-2 62q-1 10 -11 17t-21.5 10.5t-20.5 12.5t-9 22q6 6 12 9.5t15 5.5t14.5 2.5t19.5 1t21 1.5q27 5 67 3t58 -20t-24 -65v-121v-184
q0 -45 0.5 -109.5t0.5 -83.5q0 -197 19 -275z" />
    <glyph glyph-name="v" unicode="v" horiz-adv-x="599" 
d="M415 744q17 -9 41 -9t53.5 4.5t41.5 4.5q10 -10 15 -16t10 -16.5t4 -22t-8 -25.5h-40q-9 -17 -14.5 -37.5t-11 -50t-10.5 -49.5q-29 -109 -82.5 -361.5t-96.5 -383.5q-31 -45 -55 12q-4 8 -24 67q-19 38 -19 98q-18 68 -59 235q-14 41 -26 91.5t-18 85.5l-15.5 94
t-13.5 82q-16 89 -16 111q0 5 -2.5 8.5t-8 4t-10.5 0.5t-13.5 -0.5t-12.5 -0.5q0 10 -2.5 29t-2.5 29q0 5 3.5 8.5t10.5 4t13 0.5t15 -0.5t13 -0.5q101 0 145 3q33 2 36 -30q3 -33 -24 -56q-14 -12 -33 -12q0 -70 40 -274q40 -239 79 -334q1 12 19.5 75t18.5 82
q10 46 33.5 129.5t40 156t24.5 145.5q0 6 3 11.5t5 8.5t0.5 7.5t-8.5 11.5t-23 15t-26 17.5t-10 26.5q2 0 5.5 0.5t9.5 6t6 14.5z" />
    <glyph glyph-name="w" unicode="w" horiz-adv-x="904" 
d="M226 680q-6 -10 -1.5 -29.5l13 -57t8.5 -55.5q0 -24 2 -52t3.5 -46.5t7 -56t7.5 -50l9.5 -61t9.5 -57.5q-3 -20 12 -35q11 -11 23 22q7 20 7 34q94 189 119 384q-18 19 -38 19h-21q-21 21 -21 41q0 9 20 9t54 -4.5t48 -4.5t32.5 4.5t34.5 4.5t34 -9q17 -15 3 -37.5
t-44 -22.5l62 -365q14 14 23.5 32t14 31.5t11.5 39.5t13 42q12 22 22.5 82t17.5 76q22 49 22 111q-44 -9 -44 11q0 6 -3 23t-2.5 27t8.5 11q127 23 198 -8q0 -9 1 -25.5t1 -27.5q-10 -10 -41 -10t-41 -10q-11 -12 -19.5 -57t-11.5 -53q-9 -23 -17.5 -48t-13 -40.5t-11.5 -48
t-8.5 -41l-9 -50t-8.5 -47.5q-12 -77 -30 -207t-26 -182q-1 -8 -4.5 -45t-8.5 -60t-14 -32q-27 0 -44.5 39t-17.5 63q-31 232 -121 465q-48 -96 -99 -297t-82 -270q-49 0 -62 81q-13 84 -37 284.5t-42 303.5q0 106 -41 262q-30 -14 -45 -2.5t-15 42.5q0 21 20 21
q28 0 71.5 4.5t79 4.5t71.5 -9q2 0 5.5 -0.5t9 -6t5.5 -14.5q0 -8 -10 -13.5t-25.5 -12t-23.5 -14.5z" />
    <glyph glyph-name="x" unicode="x" horiz-adv-x="740" 
d="M713 706q0 -20 -59 -20q-71 -85 -180 -339q-20 -45 -20 -61q0 -22 10 -57t10 -42q25 -51 76 -187.5t84 -190.5q39 0 59 -20q0 -15 -2.5 -17.5t-17.5 -2.5q-44 -14 -79 -14t-81 14q-20 20 -20 40h81q-10 28 -40.5 88t-40.5 92l-11.5 36l-13.5 43t-14 39.5t-19 43t-21 36.5
q-13 -51 -81.5 -174t-76.5 -164q0 -9 10 -14.5t25.5 -11.5t23.5 -14q0 -19 -6.5 -35.5t-19.5 -16.5q-9 0 -36.5 2.5t-37.5 2.5q-13 0 -47 3.5t-53 3.5h-39q-10 0 -20 -9.5t-20 -9.5q-9 0 -14 10t-6 20v9q0 49 82 46q25 66 60.5 136l83.5 158l73 137q10 10 19.5 37.5
t20.5 43.5q-20 40 -20 60q-10 20 -28.5 43t-23.5 36q-12 28 -44 78t-45 80q-2 5 -6.5 21t-9.5 23.5t-14 7.5h-40q-7 7 -18.5 14t-16.5 12t-5 14q46 22 180 19q13 0 22.5 -12.5t9.5 -27.5q-22 -1 -29 -11.5t-1.5 -28.5t14.5 -36.5t20.5 -40t14.5 -33.5q10 -35 42 -82t37 -56
q0 9 10 29t10 30q16 32 35.5 94t24.5 103q-17 3 -25 12t-9 16t0.5 20.5t1.5 16.5q16 8 28.5 8t35 -4.5t28.5 -4.5q10 0 40 -1t40 -1q8 0 25 1.5t27.5 1.5t22.5 -3t18 -12.5t6 -26.5z" />
    <glyph glyph-name="y" unicode="y" horiz-adv-x="607" 
d="M588 742q0 -57 -18 -57h-59q-9 -26 -46 -161.5t-68 -201.5q-13 -14 -18.5 -30.5t-6 -29.5t1.5 -42.5t2 -49.5q-6 -18 -5.5 -33t4 -43.5t3.5 -38.5q0 -18 -2 -60.5t-2.5 -69.5t5 -56.5t18.5 -42.5q52 2 52 -17q17 -52 -3 -57q-29 -7 -60 -7.5t-62 2.5t-41 3h-96
q-26 28 0 57q10 9 39 9t38 10q0 19 1 77.5t0.5 89t-2.5 84.5t-8.5 89t-16.5 75.5t-27.5 70t-41.5 49.5q-13 38 -57 134q-39 117 -39 190q-57 0 -57 18q-2 22 6.5 34t25.5 14.5t33 2t37 -3.5t30 -3q18 0 57.5 -2.5t58.5 -2.5q19 -19 19 -57q-5 0 -22 3t-30.5 1.5t-21.5 -9.5
q3 -12 8 -76q1 -18 5 -40t4 -32q15 -58 41 -110.5t54 -80.5q18 9 28 25.5t21.5 49t19.5 48.5q45 93 47 202q0 14 -34 25.5t-43 31.5q0 17 25.5 21.5t82.5 1t63 -3.5q7 0 18.5 4.5t21 4.5t17.5 -9z" />
    <glyph glyph-name="z" unicode="z" horiz-adv-x="513" 
d="M178 -163h41q15 0 60 -2.5t62 -0.5q10 1 21.5 2t15.5 1t9 2t8.5 6t8.5 12q8 12 9 62.5t13 61.5q9 0 24.5 -5t26.5 -10l11 -5q0 -134 -16 -193q-6 -6 -13 -9.5t-17 -5t-16 -2t-21.5 0t-21.5 0.5l-81 1h-187h-83v42v42q39 77 82.5 238t82.5 238q11 49 42.5 132t41.5 136
q41 43 41 105q-166 0 -227 -22q0 -5 4.5 -29t4.5 -44.5t-9 -28.5q-37 -10 -47 10.5t-9.5 66t-6.5 66.5q0 6 -2 13t-4 11.5t-3 9t1 6.5t8 2h146h83h143q49 0 52 -23q5 -29 -2.5 -57.5t-25.5 -69.5t-24 -57q-18 -38 -44 -130t-50 -137q-19 -64 -56 -150t-57 -152t-19 -134z
" />
    <glyph glyph-name="braceleft" unicode="{" horiz-adv-x="348" 
d="M44 303l21 6q16 9 31.5 47.5t16.5 68.5q-5 29 3.5 71t7.5 48q8 61 24.5 108.5t34.5 54.5q30 21 65.5 29.5t62.5 1.5q24 -22 21.5 -49t-26.5 -37q-12 -7 -38.5 -3.5t-39.5 -1.5q-5 -8 -13.5 -17.5t-11.5 -14t-5.5 -18.5t4.5 -30q-1 -8 -6 -28t-5.5 -28.5t2.5 -30.5
q-8 -84 -6 -110q-18 -74 -73 -100q27 -16 51 -54t32 -77q3 -33 -2.5 -87t-3.5 -75q2 -16 0.5 -52.5t7.5 -46.5q11 -8 39 -9t39 -10q7 -44 -10 -68q-80 -11 -128 42q-16 11 -23.5 74t1.5 107q3 9 4.5 49.5t5.5 64.5q-3 29 -20.5 54.5t-36.5 34.5l-38 17q-14 10 -17 37t12 34z
" />
    <glyph glyph-name="bar" unicode="|" horiz-adv-x="166" 
d="M121 542q7 -44 9 -134t8 -133q-9 -19 -11.5 -49t3.5 -44q-6 -14 -3.5 -47.5t-2.5 -47.5q6 -14 10 -114.5t2 -138.5q7 -16 7.5 -84.5t-8.5 -89.5q-4 -29 -3 -50.5t4 -33.5l4 -12q-2 -26 -11.5 -46t-26 -25.5t-39.5 19.5q-10 26 -10 63.5t4 98t3 108.5q-23 57 -12 293
q17 182 -4 294q3 46 -3.5 146.5t-1.5 149.5q-10 27 -14 40t-0.5 29.5t21.5 23.5q14 6 37 -6.5t29 -28.5q9 -21 10 -73.5t4 -60.5q5 -13 4.5 -19t-9.5 -28z" />
    <glyph glyph-name="braceright" unicode="}" horiz-adv-x="340" 
d="M299 231l-20 -8q-15 -11 -26.5 -48.5t-9.5 -67.5q7 -29 3.5 -71.5t-2.5 -48.5q-1 -61 -12.5 -110t-28.5 -58q-28 -24 -62.5 -36.5t-61.5 -7.5q-26 18 -27 46t23 40q11 8 37.5 7t39.5 6q4 8 11 18t10.5 15.5t3.5 18t-7 30.5q0 8 2.5 26.5t2.5 33t-5 27.5q-2 88 -7 110
q5 33 16.5 56.5t21.5 32.5t25 19q-29 13 -56.5 48t-40.5 73q-6 32 -6 86.5t-5 75.5q-4 16 -5.5 47t-11.5 50q-12 7 -40.5 5t-40.5 6q-10 45 4 69q79 19 131 -29q17 -9 31.5 -70.5t9.5 -106.5q-2 -9 1 -50t1 -65q6 -28 26 -51.5t40 -30.5l39 -13q14 -9 20 -37t-7 -37h-17z
" />
    <glyph glyph-name="asciitilde" unicode="~" horiz-adv-x="533" 
d="M433 368q38 -4 55 -23q-3 -42 -46 -110q-7 -6 -24.5 -6.5t-36.5 3t-46 8t-45 5.5q-19 12 -38.5 21.5t-48.5 19.5t-51 3t-30 -32q-2 -19 -3 -39q-16 -26 -46 -15t-28 40l2 38q1 9 11.5 27t11.5 28q86 37 133 11q31 -2 97 -32t108 -22q10 9 12 37.5t13 37.5z" />
    <glyph glyph-name="exclamdown" unicode="&#xa1;" horiz-adv-x="174" 
d="M34 385q0 44 24 68t53 9q27 0 39 -20t5.5 -43.5t-25.5 -32.5q-29 -17 -62.5 -12.5t-33.5 31.5zM106 266q-2 -47 13.5 -121t17.5 -111q1 -26 -4.5 -99t-2.5 -115q2 -36 10 -86l14 -84.5t5 -73.5t-13 -67q1 -14 -7.5 -23t-26 -13t-29 -5.5t-32.5 -2.5q-20 19 -26 136
q0 7 -5 13.5t-5 9.5t8 15l-1 19q-4 67 17 273q2 28 11.5 67t7.5 71q-8 155 28 196z" />
    <glyph glyph-name="cent" unicode="&#xa2;" horiz-adv-x="515" 
d="M482 442q0 -15 7 -50.5t2.5 -57.5t-29.5 -38q-6 5 -17 11t-14.5 11t-3.5 14q-9 10 -9 42t-10 50q-15 13 -46 25t-45 12h-4l6 -184l-18 -176l4 -166q51 -12 73 31q10 20 10 61t11 51q8 8 17 8t19.5 -4t17.5 -4q14 -55 3 -103t-38 -63q-10 -12 -30 -21t-27 -15
q-27 -10 -55 -11l1 -45q3 -13 10 -49q-30 -40 -60 10q0 5 -1 17t-2 31.5l-2 37.5q-72 11 -128.5 57.5t-73.5 115.5q-4 14 -10.5 32t-8.5 25.5t-3.5 24t-1.5 41.5q-4 9 -4 32.5t2 50.5t2 31l16 35q3 11 10 40t12 43t18.5 33.5t33.5 32.5q33 28 44 36t37.5 20t57.5 15
q3 83 6 97q19 30 50 15v-113q51 -6 98.5 -30t72.5 -59zM217 -8q12 -14 30 -27q-2 45 -4 141q0 21 6 63.5t6 64.5q-5 101 -3 201q-33 -38 -56.5 -93t-23.5 -94q-7 -20 -9.5 -54t-2.5 -58l1 -23q2 -6 5.5 -33.5t14.5 -49t36 -38.5z" />
    <glyph glyph-name="sterling" unicode="&#xa3;" horiz-adv-x="548" 
d="M213 258h100q13 3 49 10q40 -30 -10 -60q-51 -3 -139 -5l1 -40l-1 -96q-8 -98 -19 -130q-7 -21 -20 -45q-5 -7 -6.5 -11t1 -8.5t22.5 8.5q11 7 23 10.5t25 4.5t14 1q27 8 71.5 2.5t70.5 -25.5q9 -7 25 -20.5l25.5 -21t21.5 -12.5t21 -3q4 -2 13 -4.5t12.5 -4.5t7 -5.5
t2 -9.5t-6.5 -15q-20 -19 -30 -22.5t-39 6.5q-10 5 -46 26t-45 25q-18 9 -43 9t-45 -4t-51.5 -16.5t-44.5 -18.5l-43 -20q-29 -11 -45.5 -11.5t-25 12.5t-10.5 22.5t-2 18.5v42q65 72 52 218q-2 45 -4.5 81.5t-2.5 46.5l1 10q-27 1 -49 5q-30 19 -15 50h65q0 129 12 191
q4 14 10 51.5t17 59t37 38.5q2 3 12 17t12 16.5t11 12.5t15.5 12t18 7t25 6t31.5 1q69 0 130 -25t91 -66q0 -15 7 -50.5t2.5 -57.5t-29.5 -38q-6 5 -17 11t-14.5 11t-3.5 14q-10 9 -10 41t-9 51q-16 14 -49.5 25.5t-61.5 11.5h-36q-9 -6 -16.5 -14.5t-13.5 -20.5t-10.5 -23
t-8.5 -28l-6.5 -28.5t-5 -31.5t-4 -30.5t-3.5 -32.5t-3 -31l-10 -91v-9z" />
    <glyph glyph-name="currency" unicode="&#xa4;" horiz-adv-x="561" 
d="M532 155q-24 -150 -117 -229l22 -30q7 -6 20 -18.5l17 -16.5q-2 -50 -55 -26q-34 40 -50 61q-69 -35 -154 -17q-45 9 -86 38l-51 -63q-54 -21 -55 28l36 34l28 37q-77 86 -63 197q22 191 96 275q-37 54 -47 76q-1 21 6.5 30t24.5 11l53 -72l8 -10q27 11 69.5 14.5
t72.5 -3.5q19 -4 52 -12l37 -9l14 20l53 73q18 -3 25 -12t6 -30q-14 -31 -45 -72q113 -92 83 -274zM411 66q24 46 27.5 112.5t-7 117t-26.5 70.5q-52 31 -110 39t-103 -18q-42 -36 -59 -121t-7 -168t37 -124q4 -1 70 -15q4 1 27 6t33 8t31 11.5t33.5 18t27.5 26t26 37.5z
" />
    <glyph glyph-name="yen" unicode="&#xa5;" horiz-adv-x="616" 
d="M537 642q7 0 18.5 4.5t21 4.5t17.5 -9q0 -57 -18 -57h-59q-10 -30 -44.5 -157t-62.5 -191h15q13 3 49 10q40 -30 -10 -60q-5 0 -34.5 -1.5l-49.5 -2.5q-4 -21 1 -26q-6 -13 -4 -39h58q13 3 49 10q40 -30 -10 -60q-75 -4 -91 -4q1 -7 1 -19q0 -19 -2 -54.5t-2.5 -55.5
t5 -43t18.5 -36q52 2 52 -17q17 -52 -3 -57q-29 -7 -60 -7.5t-62 2.5t-41 3h-96q-26 28 0 57q10 9 39 9t38 10q0 192 -1 206q-89 0 -124 6q-30 19 -15 50h131q-6 33 -21 63q-75 0 -105 6q-30 19 -15 50h80q-7 8 -25 24q-13 38 -57 134q-39 117 -39 190q-57 0 -57 18
q-2 22 6.5 34t25.5 14.5t33 2t37 -3.5t30 -3q18 0 57.5 -2.5t58.5 -2.5q19 -19 19 -57q-5 0 -22 3t-30.5 1.5t-21.5 -9.5q3 -12 8 -76q1 -18 5 -40t4 -32q15 -58 41 -110.5t54 -80.5q18 9 28 25.5t21.5 49t19.5 48.5q45 93 47 202q0 14 -34 25.5t-43 31.5q0 17 25.5 21.5
t82.5 1t63 -3.5zM382 160l-1 -3z" />
    <glyph glyph-name="brokenbar" unicode="&#xa6;" horiz-adv-x="161" 
d="M45 274q0 42 -3.5 133.5t-4.5 140t2 107.5q-10 27 -14 40t-0.5 29.5t21.5 23.5q14 6 37 -6.5t29 -28.5q7 -17 8.5 -47t2 -101t3.5 -136q0 -5 1 -11l1.5 -9t-1.5 -10t-6 -17q6 -45 8 -110q-43 -70 -84 2zM55 -456q0 42 -3.5 133.5t-4.5 140t2 107.5q-10 27 -14 40
t-0.5 29.5t21.5 23.5q14 6 37 -6.5t29 -28.5q7 -17 8.5 -47t2 -101t3.5 -136q0 -5 1 -11l1.5 -9t-1.5 -10t-6 -17q6 -45 8 -110q-43 -70 -84 2z" />
    <glyph glyph-name="section" unicode="&#xa7;" horiz-adv-x="353" 
d="M290 112q-4 -10 -30 -40q10 -13 16 -26q22 -35 32 -74q15 -57 -3 -108q-14 -39 -39 -61l-10 -8q-22 -16 -55 -28q-33 -4 -59 -6q-18 -2 -45 15t-45 34q-29 38 -30 91q5 21 26 23.5t26 -15.5q-8 -28 7.5 -59t42.5 -38q6 1 17.5 3.5t20.5 3.5q45 28 68 83q5 17 5 33t-2 27
t-7.5 32t-8.5 38q-4 9 -7.5 15t-9 12.5l-8.5 10t-12.5 12t-14.5 13.5q-34 33 -45 46q-4 4 -12.5 11t-19 18t-24.5 31q-30 41 -27 80q-13 55 41 102q60 32 132 12q-4 6 -12 13t-19.5 16l-16.5 13q-29 27 -46 45q-5 6 -20 15.5t-27 22.5q-32 35 -30 78q-17 64 28 105
q7 0 25 9.5t33 12.5q81 13 131 -31q6 -7 14 -11q9 -24 4 -34t-21 -9q-3 2 -11 11t-15.5 16t-21.5 14.5t-29.5 7t-38.5 -7.5q-11 -21 -12.5 -64t8.5 -66q12 -24 32.5 -45t50 -47.5t51.5 -54.5l9 -10q9 -10 15.5 -19.5t11.5 -22.5q29 -60 28 -94q-2 -69 -41 -146zM118 231
q5 -11 10.5 -21t12.5 -18.5t11.5 -14.5t13.5 -13.5t12.5 -11t14 -12t13.5 -10.5q32 35 35.5 98.5t-15.5 121.5q-1 0 -13.5 3t-24 4.5t-29 -2.5t-33.5 -15q-13 -21 -15.5 -53.5t7.5 -55.5z" />
    <glyph glyph-name="dieresis" unicode="&#xa8;" horiz-adv-x="275" 
d="M80 800q-26 -9 -46 22t-2 49q13 12 48 12q12 0 27.5 -15.5t6.5 -31.5q0 -18 -34 -36zM213 800q-26 -9 -46 22t-2 49q13 12 48 12q11 0 27 -15.5t7 -31.5q0 -18 -34 -36z" />
    <glyph glyph-name="copyright" unicode="&#xa9;" horiz-adv-x="640" 
d="M31 174q-8 71 -8 109q2 42 28.5 118t60.5 115q4 11 11.5 19.5t17 16.5t12.5 12q98 45 217 45q36 0 111 -34q30 -15 53 -43.5t34.5 -53t30.5 -71.5q13 -31 17 -93t-4.5 -132t-43 -133.5t-91.5 -87.5q-4 -2 -22 -10l-29.5 -13t-28 -11t-29 -9t-21.5 -2q-74 -5 -146.5 19
t-110.5 70q-59 74 -59 169zM101 219q-6 -52 7.5 -82.5t82.5 -128.5q9 -13 56.5 -24t83.5 -11q62 0 111.5 56.5t81.5 130.5q35 84 0 241q-8 15 -15.5 41.5t-14.5 35.5q-10 30 -45.5 50.5t-73.5 22.5q-29 2 -58.5 -6t-49.5 -18t-56 -31q-10 -12 -25 -18q-66 -71 -85 -259z
M388 442q0 -3 5 -7t5 -8q0 -40 -10 -40q-12 0 -17 4.5t-7 12t-4 9.5q-31 10 -50 0q-5 -4 -13.5 -13.5t-11.5 -12.5q0 -9 -8 -16q-7 -32 -7 -97v-46q11 -77 47 -103q17 -11 41 0q4 8 7.5 23t7.5 23q9 0 21 -4.5t15 -4.5l-3 -55q-14 -32 -56 -39t-73 23q-3 3 -21 18t-27 30
q-2 13 -9 40t-11.5 51t-4.5 44q2 9 10 54t15 66q4 4 7.5 12t8.5 13q35 47 88 47q6 -2 16.5 -5l15.5 -4.5t11.5 -5t11.5 -9.5z" />
    <glyph glyph-name="guillemotleft" unicode="&#xab;" horiz-adv-x="640" 
d="M407 47h-36q-40 38 -73 54q-9 10 -36.5 27.5t-36.5 27.5q-22 26 -67.5 51.5t-59.5 39.5q-13 0 -33 20t-20 34q0 15 11.5 34.5t24.5 19.5q34 18 111.5 70t124.5 76q9 8 26.5 17t27.5 18q9 0 27 9t27 9q8 0 12.5 -4.5t4.5 -9.5l1 -4q0 -11 -40 -34l-80.5 -46.5t-40.5 -36.5
q-19 -9 -54.5 -35t-52.5 -35q-6 -6 -18 -14t-18.5 -14.5t-6.5 -14.5q0 -18 41 -50.5t94.5 -68t67.5 -49.5q70 -33 90 -73zM328 303l28 28.5l34 35t33 32t38 34t35.5 26.5t37.5 23l18 19q0 8 9 17t9 18h-18q-16 0 -30 -5t-32.5 -15.5t-28.5 -14.5q-41 -18 -125 -95.5
t-83 -100.5q-1 -26 40.5 -60t93 -62.5t102 -62t63.5 -55.5h36q6 6 7 13t-3.5 15t-8.5 13t-13 15q-25 34 -72.5 62l-95.5 56.5t-74 63.5z" />
    <glyph glyph-name="logicalnot" unicode="&#xac;" horiz-adv-x="539" 
d="M491 290q3 -25 3 -69q-6 -9 -13 -29.5t-16 -33t-26 -12.5q-8 0 -9.5 13t-3.5 32.5t-10 29.5q7 42 6 54l-3 -2q-64 10 -184 2t-165 1q-25 20 -25 59h175q62 16 199 16q9 -6 29.5 -13t33 -16t12.5 -26q0 -4 -3 -6z" />
    <glyph glyph-name="registered" unicode="&#xae;" horiz-adv-x="453" 
d="M28 471q-6 55 -6 76q1 28 19.5 81t41.5 79q3 7 8 13t11.5 11.5t8.5 7.5q70 31 149 31q29 0 77 -23q20 -10 36 -30t24 -36.5t21 -48.5q9 -21 11.5 -63.5t-3 -91t-29 -92.5t-62.5 -60l-20.5 -8.5l-26 -11t-23.5 -8t-20 -2.5q-51 -4 -100.5 13t-76.5 48q-40 51 -40 115z
M79 503q-5 -35 4.5 -55t56.5 -87q6 -9 37.5 -16.5t55.5 -7.5q42 0 75.5 38t54.5 88q26 63 0 162q-4 9 -9.5 27.5t-10.5 24.5q-6 21 -30 34.5t-49 15.5q-20 1 -40.5 -5t-32.5 -12l-38 -20q-10 -10 -18 -13q-26 -28 -39.5 -79.5t-16.5 -94.5zM273 550q10 -13 14.5 -35.5
t6 -53.5t3.5 -42q12 0 12 -5q0 -19 -45 -11q-5 5 -4 11.5t3 16t-1 27.5q0 2 -1.5 28t-9.5 38q-4 5 -22 26q-12 0 -12 -6q-3 -12 -3 -28t1.5 -33.5t1.5 -24.5q0 -24 5 -35q0 -4 5.5 -6.5t5.5 -4.5q0 -10 -4 -10q-43 0 -48 -2q-17 0 -23 12q6 4 18 4v100q0 3 1 10t1 13t-2 11
q0 3 0.5 7t0.5 8q1 7 0 34.5t-1 36.5q-21 0 -21 8q0 12 4.5 15t19.5 3q4 0 7.5 2t6.5 2q82 14 92 -26q7 -40 4 -50q-2 -9 -16 -23l-7 -5q0 -3 3.5 -6t3.5 -6zM212 639q0 -12 4 -64q0 -4 11 0t17 8q0 5 5 20v21q0 7 -11 16z" />
    <glyph glyph-name="macron" unicode="&#xaf;" horiz-adv-x="298" 
d="M245 813q-153 -9 -199 0q-30 19 -15 50h175q13 3 49 10q40 -30 -10 -60z" />
    <glyph glyph-name="degree" unicode="&#xb0;" horiz-adv-x="324" 
d="M190 493q-30 -10 -62 1.5t-55 38t-38 58t-13.5 64.5t21.5 54q29 26 57 31.5t90 5.5q36 0 83 -47.5t20 -96.5q0 -58 -103 -109zM178 555q56 29 56 61q16 26 -10 52.5t-46 26.5q-35 0 -50.5 -3t-31.5 -17q-16 -23 -9 -53.5t35 -53t56 -13.5z" />
    <glyph glyph-name="plusminus" unicode="&#xb1;" horiz-adv-x="494" 
d="M266 481q7 -21 7 -59t7 -59q7 -7 48 0t63 0q0 -4 11 -25.5t3 -29.5q-13 -7 -58 0t-67 0q-7 -36 -4 -59t-1 -45t-22 -40q-19 0 -28.5 1t-21.5 7.5t-19 19.5q10 31 10 53t-10 63h-14h-56q-4 0 -16.5 3t-22.5 3t-16 -6q0 5 -7 15.5t-7 25.5q41 14 139 14q6 13 6 25t-3 27
t-3 24l-3 17q0 5 -2.5 13t-1.5 14t7 12q0 7 20.5 8.5t41 -4.5t20.5 -18zM374 57q-64 10 -149 1.5t-130 1.5q-17 14 -21 25t-4 30h125q62 16 179 16q9 -7 29.5 -12t33 -13.5t12.5 -25.5q0 -8 -13 -9.5t-32.5 -3.5t-29.5 -10z" />
    <glyph glyph-name="acute" unicode="&#xb4;" horiz-adv-x="186" 
d="M156 938q10 -11 -4.5 -30.5t-14.5 -26.5q-23 -13 -45.5 -55t-47.5 -48q-18 19 -19 46q9 34 23.5 54t47.5 40q3 3 6.5 11t5 9t7.5 -2q7 7 20.5 7.5t20.5 -5.5z" />
    <glyph glyph-name="mu" unicode="&#xb5;" horiz-adv-x="833" 
d="M455 212q17 54 41 187q5 27 17.5 72.5t19.5 75.5q2 10 10 37t11.5 45.5t3.5 37.5q0 30 26 55.5t57 25.5h123q9 0 14.5 -5t12.5 -16.5t15 -19.5q-10 -10 -16.5 -15t-17 -10t-22.5 -4t-27 8q-9 -27 -9 -53t4.5 -58t4.5 -53v-83v-103v-165q0 -22 -1 -51.5t-1 -51t2 -41.5
q4 -38 4 -74t-2 -74.5t-2 -57.5q49 0 75 -31q22 -27 -5 -42q-11 0 -22 3t-22 3q-10 0 -22 -3.5t-23 -3.5l-36 7q5 3 -1 2q-59 -8 -68 -8q0 11 -10 16t-10 15q0 9 10.5 15t27 12.5t24.5 14.5q-7 51 -10.5 115t-3.5 102.5t2 130t2 119.5q0 14 5 61.5t5 68.5v83q3 12 -8 39
q0 4 0.5 9.5t1 8.5t-0.5 7t-4.5 8.5t-9.5 10.5q5 -23 -3 -42q-10 -24 -19 -59t-21 -88t-19 -79q-14 -42 -18 -63q-28 -145 -36 -183q-3 -13 -6.5 -48t-8.5 -56.5t-14 -21.5q-10 0 -30.5 10.5t-29.5 10.5q0 14 -2 29t-4 23t-7.5 26.5t-7.5 24.5q-50 177 -51 181
q-23 74 -42 124q-1 4 -6 19.5t-11 26.5t-15 20v-144q0 -22 -10 -87.5t-10 -97.5v-104v-185q13 0 20 -0.5t14 -5.5t7 -15q0 -18 -14.5 -28t-40 -13t-47 -3.5t-49.5 1.5t-34 2q-9 0 -14.5 5t-12.5 16.5t-15 19.5q4 4 12 14.5t12 12.5t14 2t25 -8v206v268v41v206v144
q-11 0 -19.5 -3.5t-17.5 -3.5t-22.5 3.5t-23.5 3.5q-16 16 -18.5 23.5t-2.5 38.5q79 27 227 -20q13 -28 62 -123v-21q14 -29 29.5 -68t24 -65l24.5 -75.5l21 -65.5q6 -17 11.5 -30.5t9 -20.5l11.5 -22z" />
    <glyph glyph-name="paragraph" unicode="&#xb6;" horiz-adv-x="550" 
d="M478 623q32 -16 44.5 -45t-2.5 -62q0 -15 -3 -17.5t-19 -2.5q-18 0 -23.5 10.5t-7.5 27.5t-10 25h-53q-5 -22 -7.5 -45.5t-3.5 -51t-1 -47.5t2 -53t2.5 -47t3.5 -51.5t4 -45.5q2 -31 2 -62t-1 -57t-1 -30q0 -28 3.5 -76t4.5 -78.5t-3 -65.5t-21 -58t-47 -35
q-20 -10 -35 -12t-39.5 0t-34.5 2q-5 0 -9.5 1t-9.5 4l-8.5 5t-9.5 7l-9 7.5t-10 9t-9 8.5q-34 34 -42 98.5t22 115.5q6 0 24.5 4.5t34.5 4.5t26 -9q-11 -21 -16 -33.5t-10.5 -32.5t-4.5 -40t9 -43q0 -18 17 -30.5t48 -12.5l20 21q0 53 10.5 130t10.5 130q0 19 -2 39.5
t-5 46.5t-4 42q-2 22 -2 64q0 7 -3 29t-2 41q1 12 -1 40.5t-2 36.5q0 11 -5 30.5t-5 34.5q0 5 1 15t1.5 17t-2.5 16t-10 16q-8 -7 -62 -10v-72v-247q0 -43 -20 -64q-5 0 -20.5 -0.5t-23 0t-22 2t-24 5t-21 10t-21.5 16.5l-16 37l-1 20q-14 28 -15.5 43.5t1.5 42.5
q1 18 -5 42t0 42v77q0 46 32.5 83t79.5 37q33 0 108.5 4.5t135 4.5t97.5 -9z" />
    <glyph glyph-name="periodcentered" unicode="&#xb7;" horiz-adv-x="141" 
d="M81 207q-31 -10 -55 27.5t-2 59.5q15 14 57 14q14 0 32.5 -19t9.5 -38q0 -21 -42 -44z" />
    <glyph glyph-name="cedilla" unicode="&#xb8;" horiz-adv-x="262" 
d="M64 -415q2 -15 24 -21.5t51 0.5q17 7 25.5 19.5t8.5 27t-1 32.5q-11 28 -57 8q-16 -7 -21.5 3t-4.5 29l12 87q2 9 14 11t22 -3.5t7 -16.5l-7 -57q47 0 63 -11q12 -9 19 -26q24 -28 16 -59t-31.5 -56.5t-51.5 -37.5q-94 -6 -123 27q-7 15 -1 29.5t16.5 17.5t19.5 -3z" />
    <glyph glyph-name="guillemotright" unicode="&#xbb;" horiz-adv-x="640" 
d="M233 47l-18 18q20 40 90 73q14 14 67.5 49.5t94.5 68t41 50.5q0 8 -6.5 14.5t-18.5 14.5t-18 14q-17 9 -52.5 35t-54.5 35q0 13 -40.5 36.5l-80.5 46.5t-40 34q0 18 18 18q9 0 27 -9t27 -9q10 -9 27.5 -18t26.5 -17q47 -24 124.5 -76t111.5 -70q13 0 24.5 -19.5
t11.5 -34.5q0 -14 -20 -34t-33 -20q-14 -14 -59.5 -39.5t-67.5 -51.5q-9 -10 -36.5 -27.5t-36.5 -27.5q-33 -16 -73 -54h-36zM312 303q-26 -35 -74 -63.5l-95.5 -56.5t-72.5 -62q-9 -10 -13 -15t-8.5 -13t-3.5 -15t7 -13h36q13 22 63.5 55.5t102 62t93 62.5t40.5 60
q1 23 -83 100.5t-125 95.5q-10 4 -28.5 14.5t-32.5 15.5t-30 5h-18q0 -9 9 -18t9 -17l18 -19q17 -9 37.5 -23t35.5 -26.5t38 -34t33 -32l34 -35z" />
    <glyph glyph-name="questiondown" unicode="&#xbf;" horiz-adv-x="428" 
d="M205 394q18 12 40 7t37 -16q21 -17 24.5 -36.5t-7.5 -36.5t-25.5 -29.5t-30.5 -21.5q-34 0 -58 38q-6 10 -8.5 19t0.5 19.5t5.5 16.5t11 19.5t11.5 20.5zM243 186q16 0 23 -14.5t-4 -42.5q0 -24 -17 -61.5t-43.5 -83.5t-34.5 -63l-57 -114q-12 -49 -17 -82t2 -75.5
t34 -69.5q15 -30 60 -50.5t73 -6.5q45 15 76.5 65.5t18.5 105.5q-14 22 -60 25.5t-58 15.5q-38 26 -16 54q20 26 60 22q9 -1 17 -4q49 0 75 -57q39 -39 38 -114.5t-38 -112.5q-8 -17 -21.5 -26t-38.5 -17t-35 -13q-79 0 -129 23t-98 70q-4 14 -13 39t-13 38t-8 34t-4 41
q0 35 8.5 69.5t27.5 83.5t21 56q75 111 95 170q14 14 22 40t18.5 40.5t35.5 14.5z" />
    <glyph glyph-name="Agrave" unicode="&#xc0;" 
d="M261 950q15 14 31 -2q6 3 7.5 2t5 -9t6.5 -11q66 -38 81 -94q-1 -27 -19 -46q-25 6 -52 48t-49 55q-33 33 -11 57zM407 -168q0 275 -22 381q-17 0 -74.5 10.5t-91.5 10.5q-22 -21 -22 -108q-23 -84 -23 -295q11 -9 32.5 -9t31.5 -10l-3 -42q-28 -19 -63 -20t-61 4.5
t-61 -6.5l-44 42q37 41 63 41q10 0 15.5 7t6 14t0.5 22q11 71 32.5 238.5l29.5 226.5q0 86 44 168q24 93 104 211l5 5t13 9.5t19.5 10t22.5 3.5t24 -6q32 -16 60 -65t28 -83q24 -49 32 -113q11 -92 26 -278t23 -263v-128q0 -6 10 -19t10 -24t-20 -20l-26 6q-21 0 -60 -3
t-61 -3q-4 0 -14 -1.5t-15.5 -2t-12.5 0t-10.5 3.5t-3.5 8q0 18 20 47.5t36 29.5zM301 614q-44 -138 -63 -212q0 -9 -9.5 -51.5t-9.5 -55.5q62 -19 166 -19v126q0 99 -40 212q0 2 -0.5 5.5t-6 9.5t-15.5 6z" />
    <glyph glyph-name="Aacute" unicode="&#xc1;" 
d="M431 948q10 -11 -4.5 -30.5t-14.5 -26.5q-23 -13 -45.5 -55t-47.5 -48q-18 19 -19 46q9 34 23.5 54t47.5 40q3 3 6.5 11t5 9t7.5 -2q7 7 20.5 7.5t20.5 -5.5zM407 -168q0 275 -22 381q-17 0 -74.5 10.5t-91.5 10.5q-22 -21 -22 -108q-23 -84 -23 -295q11 -9 32.5 -9
t31.5 -10l-3 -42q-28 -19 -63 -20t-61 4.5t-61 -6.5l-44 42q37 41 63 41q10 0 15.5 7t6 14t0.5 22q11 71 32.5 238.5l29.5 226.5q0 86 44 168q24 93 104 211l5 5t13 9.5t19.5 10t22.5 3.5t24 -6q32 -16 60 -65t28 -83q24 -49 32 -113q11 -92 26 -278t23 -263v-128
q0 -6 10 -19t10 -24t-20 -20l-26 6q-21 0 -60 -3t-61 -3q-4 0 -14 -1.5t-15.5 -2t-12.5 0t-10.5 3.5t-3.5 8q0 18 20 47.5t36 29.5zM301 614q-44 -138 -63 -212q0 -9 -9.5 -51.5t-9.5 -55.5q62 -19 166 -19v126q0 99 -40 212q0 2 -0.5 5.5t-6 9.5t-15.5 6z" />
    <glyph glyph-name="Acircumflex" unicode="&#xc2;" 
d="M476 808q-16 -21 -29 -12q-5 -4 -7 -3t-6.5 8t-7.5 9q-9 3 -17.5 8.5t-14.5 10t-13.5 12.5l-11 11.5t-11 12.5t-8.5 11l-5 -6q-5 -7 -6 -8.5t-6 -8t-7.5 -8.5t-7.5 -7.5t-8.5 -8l-9 -6.5t-10.5 -7t-11 -5l-20 -17q-9 -5 -19 -0.5t-17 12.5q-8 12 8.5 28.5t17.5 23.5
q23 9 50.5 42t43.5 40l1 1h2q6 2 10 2l4 -6q15 -6 40 -37.5t49 -40.5l13 -10t10 -9t7.5 -10t1 -10t-4.5 -12zM407 -168q0 275 -22 381q-17 0 -74.5 10.5t-91.5 10.5q-22 -21 -22 -108q-23 -84 -23 -295q11 -9 32.5 -9t31.5 -10l-3 -42q-28 -19 -63 -20t-61 4.5t-61 -6.5
l-44 42q37 41 63 41q10 0 15.5 7t6 14t0.5 22q11 71 32.5 238.5l29.5 226.5q0 86 44 168q24 93 104 211l5 5t13 9.5t19.5 10t22.5 3.5t24 -6q32 -16 60 -65t28 -83q24 -49 32 -113q11 -92 26 -278t23 -263v-128q0 -6 10 -19t10 -24t-20 -20l-26 6q-21 0 -60 -3t-61 -3
q-4 0 -14 -1.5t-15.5 -2t-12.5 0t-10.5 3.5t-3.5 8q0 18 20 47.5t36 29.5zM301 614q-44 -138 -63 -212q0 -9 -9.5 -51.5t-9.5 -55.5q62 -19 166 -19v126q0 99 -40 212q0 2 -0.5 5.5t-6 9.5t-15.5 6z" />
    <glyph glyph-name="Atilde" unicode="&#xc3;" 
d="M461 906q20 -7 29 -42q-8 -22 -51 -59q-12 -5 -29 0.5t-30 17.5q-2 3 -32 20t-34 20q-10 4 -24.5 -3t-22.5 -19l-11 -26q-16 -12 -33 1.5t-9 30.5q9 26 18 36q29 31 36 36q3 0 16 1.5t19.5 1.5h17t18 -2.5t13.5 -7.5l7 -6l27 -20q26 -16 38 -18q8 3 17.5 19.5t19.5 18.5z
M407 -168q0 275 -22 381q-17 0 -74.5 10.5t-91.5 10.5q-22 -21 -22 -108q-23 -84 -23 -295q11 -9 32.5 -9t31.5 -10l-3 -42q-28 -19 -63 -20t-61 4.5t-61 -6.5l-44 42q37 41 63 41q10 0 15.5 7t6 14t0.5 22q11 71 32.5 238.5l29.5 226.5q0 86 44 168q24 93 104 211l5 5
t13 9.5t19.5 10t22.5 3.5t24 -6q32 -16 60 -65t28 -83q24 -49 32 -113q11 -92 26 -278t23 -263v-128q0 -6 10 -19t10 -24t-20 -20l-26 6q-21 0 -60 -3t-61 -3q-4 0 -14 -1.5t-15.5 -2t-12.5 0t-10.5 3.5t-3.5 8q0 18 20 47.5t36 29.5zM301 614q-44 -138 -63 -212
q0 -9 -9.5 -51.5t-9.5 -55.5q62 -19 166 -19v126q0 99 -40 212q0 2 -0.5 5.5t-6 9.5t-15.5 6z" />
    <glyph glyph-name="Adieresis" unicode="&#xc4;" 
d="M289 810q-26 -9 -46 22t-2 49q13 12 48 12q11 0 27 -15.5t7 -31.5q0 -18 -34 -36zM422 810q-26 -9 -46 22t-2 49q13 12 48 12q12 0 27.5 -15.5t6.5 -31.5q0 -18 -34 -36zM407 -168q0 275 -22 381q-17 0 -74.5 10.5t-91.5 10.5q-22 -21 -22 -108q-23 -84 -23 -295
q11 -9 32.5 -9t31.5 -10l-3 -42q-28 -19 -63 -20t-61 4.5t-61 -6.5l-44 42q37 41 63 41q10 0 15.5 7t6 14t0.5 22q11 71 32.5 238.5l29.5 226.5q0 86 44 168q24 93 104 211l5 5t13 9.5t19.5 10t22.5 3.5t24 -6q32 -16 60 -65t28 -83q24 -49 32 -113q11 -92 26 -278t23 -263
v-128q0 -6 10 -19t10 -24t-20 -20l-26 6q-21 0 -60 -3t-61 -3q-4 0 -14 -1.5t-15.5 -2t-12.5 0t-10.5 3.5t-3.5 8q0 18 20 47.5t36 29.5zM301 614q-44 -138 -63 -212q0 -9 -9.5 -51.5t-9.5 -55.5q62 -19 166 -19v126q0 99 -40 212q0 2 -0.5 5.5t-6 9.5t-15.5 6z" />
    <glyph glyph-name="Aring" unicode="&#xc5;" 
d="M376 784q-30 -10 -61 6.5t-48.5 46t-23 62.5t16.5 55q23 20 45 24.5t71 4.5q28 0 65 -37.5t16 -75.5q0 -45 -81 -86zM365 833q40 21 40 43q11 19 -7.5 37.5t-32.5 18.5q-42 0 -58 -14q-21 -22 3 -58.5t55 -26.5zM407 -168q0 275 -22 381q-17 0 -74.5 10.5t-91.5 10.5
q-22 -21 -22 -108q-23 -84 -23 -295q11 -9 32.5 -9t31.5 -10l-3 -42q-28 -19 -63 -20t-61 4.5t-61 -6.5l-44 42q37 41 63 41q10 0 15.5 7t6 14t0.5 22q11 71 32.5 238.5l29.5 226.5q0 86 44 168q24 93 104 211l5 5t13 9.5t19.5 10t22.5 3.5t24 -6q32 -16 60 -65t28 -83
q24 -49 32 -113q11 -92 26 -278t23 -263v-128q0 -6 10 -19t10 -24t-20 -20l-26 6q-21 0 -60 -3t-61 -3q-4 0 -14 -1.5t-15.5 -2t-12.5 0t-10.5 3.5t-3.5 8q0 18 20 47.5t36 29.5zM301 614q-44 -138 -63 -212q0 -9 -9.5 -51.5t-9.5 -55.5q62 -19 166 -19v126q0 99 -40 212
q0 2 -0.5 5.5t-6 9.5t-15.5 6z" />
    <glyph glyph-name="AE" unicode="&#xc6;" horiz-adv-x="775" 
d="M705 -87q14 0 23.5 -9t12.5 -27t4 -30.5t1 -34.5q0 -19 -41 -62h-103q-63 0 -93 1l-7 -4l-20 5l-18 1q-66 -6 -89 -6q-5 0 -13 -1.5t-12.5 -2t-9.5 0t-7.5 3.5t-2.5 8q0 16 17.5 43.5t33.5 32.5q4 35 5 49q0 115 -5 193q-3 81 -3 85v41v15q-16 0 -71 10t-88 10
q-22 -21 -22 -108q-23 -84 -23 -295q11 -9 32.5 -9t31.5 -10l-3 -42q-28 -19 -63 -20t-61 4.5t-61 -6.5l-44 42q37 41 63 41q10 0 15.5 7t6 14t0.5 22q11 71 32.5 238.5l29.5 226.5q0 86 44 168q8 30 21.5 59.5t21.5 42.5t32 47.5l29 41.5q29 21 68 25q5 3 19 3
q84 12 133 24h204q21 -20 21 -41q0 -10 5 -35.5t6 -41.5t-11 -30.5t-41 -14.5q-11 11 -11 41t-10 40q-20 11 -41 21q-101 0 -142 -21q-4 -4 -7.5 -8.5t-5.5 -11.5t-3 -11t-1.5 -14.5t-0.5 -14.5v-18v-18q0 -31 -1.5 -70t-1.5 -57q0 -22 4.5 -53t4.5 -52t-9 -39
q21 -19 122 -19q0 60 21 60q15 0 20 -2.5t21 -17.5q-11 -24 -6 -60.5t4 -70t-19 -33.5q-41 21 -41 41v21h-101q-9 -28 -10.5 -63.5t1.5 -82t3 -61.5l7 -75v-106q60 -20 162 -20q17 8 18.5 29t3.5 42.5t19 29.5zM219 295q62 -19 159 -19v128v81v152q-21 6 -40 -4.5t-28 -24.5
l-9 -14q-2 -6 -26 -74t-37 -118q0 -9 -9.5 -51.5t-9.5 -55.5z" />
    <glyph glyph-name="Ccedilla" unicode="&#xc7;" horiz-adv-x="555" 
d="M474 -17q24 0 40 -11t23 -11v-146q-28 -70 -151 -66l-4 -34q47 0 63 -11q12 -9 19 -26q24 -28 16 -59t-31.5 -56.5t-51.5 -37.5q-94 -6 -123 27q-7 15 -1 29.5t16.5 17.5t19.5 -3q2 -15 24 -21.5t51 0.5q17 7 25.5 19.5t8.5 27t-1 32.5q-11 28 -57 8q-16 -7 -21.5 3
t-4.5 29l8 58q-54 5 -137 23q-12 12 -39.5 33.5t-47.5 42.5t-38 49q-5 24 -24 101t-29 136t-10 115q6 31 16.5 98.5t21 118.5t25.5 95q9 10 18 30.5t22 32.5q36 51 96.5 87.5t132.5 36.5q16 -5 42.5 -12t40 -11t31.5 -14.5t32 -25.5q0 -10 11 -20t11 -20q0 -104 -22 -104
q-14 0 -21 13.5t-7.5 30.5t-3.5 35t-9 25q-101 32 -166 0q-11 -11 -32 -52.5t-31 -51.5q0 -22 -20 -42q-10 -40 -15 -82t-6 -72.5t-1 -95.5v-124q46 -261 146 -313q15 -7 30.5 -8.5t32.5 4t29.5 11t32.5 15.5q10 20 10 72.5t10 73.5z" />
    <glyph glyph-name="Egrave" unicode="&#xc8;" horiz-adv-x="520" 
d="M189 950q15 14 31 -2q6 3 7.5 2t5 -9t6.5 -11q66 -38 81 -94q-1 -27 -19 -46q-25 6 -52 48t-49 55q-33 33 -11 57zM450 587q-10 11 -10 41t-11 40q-20 11 -41 21q-101 0 -142 -21q-4 -4 -7.5 -8.5t-5.5 -11.5t-3 -11t-1.5 -14.5t-0.5 -14.5v-18v-18q0 -31 -1.5 -70
t-1.5 -57q0 -22 4.5 -53t4.5 -52t-9 -39q21 -19 122 -19q0 60 21 60q15 0 20 -2.5t21 -17.5q-11 -24 -6 -60.5t4 -70t-19 -33.5q-41 21 -41 41v21h-101q-9 -28 -10.5 -63.5t1.5 -82t3 -61.5q0 -34 3 -99t3 -82q61 -20 163 -20q17 8 19 29t3.5 42.5t18.5 29.5q14 0 23.5 -9
t12.5 -27t4 -30.5t1 -34.5q0 -19 -41 -62h-103q-204 0 -326 21v41h82q9 54 9 110t-4.5 125t-4.5 111v41v205v81v183h-82v41q42 11 123.5 21t121.5 20h204q21 -20 21 -41q0 -10 5 -35.5t6 -41.5t-11 -30.5t-41 -14.5z" />
    <glyph glyph-name="Eacute" unicode="&#xc9;" horiz-adv-x="520" 
d="M359 948q10 -11 -4.5 -30.5t-14.5 -26.5q-23 -13 -45.5 -55t-47.5 -48q-18 19 -19 46q9 34 23.5 54t47.5 40q3 3 6.5 11t5 9t7.5 -2q7 7 20.5 7.5t20.5 -5.5zM450 587q-10 11 -10 41t-11 40q-20 11 -41 21q-101 0 -142 -21q-4 -4 -7.5 -8.5t-5.5 -11.5t-3 -11t-1.5 -14.5
t-0.5 -14.5v-18v-18q0 -31 -1.5 -70t-1.5 -57q0 -22 4.5 -53t4.5 -52t-9 -39q21 -19 122 -19q0 60 21 60q15 0 20 -2.5t21 -17.5q-11 -24 -6 -60.5t4 -70t-19 -33.5q-41 21 -41 41v21h-101q-9 -28 -10.5 -63.5t1.5 -82t3 -61.5q0 -34 3 -99t3 -82q61 -20 163 -20q17 8 19 29
t3.5 42.5t18.5 29.5q14 0 23.5 -9t12.5 -27t4 -30.5t1 -34.5q0 -19 -41 -62h-103q-204 0 -326 21v41h82q9 54 9 110t-4.5 125t-4.5 111v41v205v81v183h-82v41q42 11 123.5 21t121.5 20h204q21 -20 21 -41q0 -10 5 -35.5t6 -41.5t-11 -30.5t-41 -14.5z" />
    <glyph glyph-name="Ecircumflex" unicode="&#xca;" horiz-adv-x="520" 
d="M404 808q-16 -21 -29 -12q-5 -4 -7 -3t-6.5 8t-7.5 9q-9 3 -17.5 8.5t-14.5 10t-13.5 12.5l-11 12l-11 12.5t-8.5 10.5l-5 -6q-5 -7 -6 -8.5t-6 -8t-7.5 -8.5t-7.5 -7.5t-8.5 -8l-9 -6.5t-10.5 -7t-11 -5l-20 -17q-9 -5 -19 -0.5t-17 12.5q-8 12 8.5 28.5t17.5 23.5
q23 9 50.5 42t43.5 40l1 1h2q6 2 10 2l4 -6q15 -6 40 -37.5t49 -40.5l13 -10t10 -9t7.5 -10t1 -10t-4.5 -12zM450 587q-10 11 -10 41t-11 40q-20 11 -41 21q-101 0 -142 -21q-4 -4 -7.5 -8.5t-5.5 -11.5t-3 -11t-1.5 -14.5t-0.5 -14.5v-18v-18q0 -31 -1.5 -70t-1.5 -57
q0 -22 4.5 -53t4.5 -52t-9 -39q21 -19 122 -19q0 60 21 60q15 0 20 -2.5t21 -17.5q-11 -24 -6 -60.5t4 -70t-19 -33.5q-41 21 -41 41v21h-101q-9 -28 -10.5 -63.5t1.5 -82t3 -61.5q0 -34 3 -99t3 -82q61 -20 163 -20q17 8 19 29t3.5 42.5t18.5 29.5q14 0 23.5 -9t12.5 -27
t4 -30.5t1 -34.5q0 -19 -41 -62h-103q-204 0 -326 21v41h82q9 54 9 110t-4.5 125t-4.5 111v41v205v81v183h-82v41q42 11 123.5 21t121.5 20h204q21 -20 21 -41q0 -10 5 -35.5t6 -41.5t-11 -30.5t-41 -14.5z" />
    <glyph glyph-name="Edieresis" unicode="&#xcb;" horiz-adv-x="520" 
d="M217 810q-26 -9 -46 22t-2 49q13 12 48 12q11 0 27 -15.5t7 -31.5q0 -18 -34 -36zM350 810q-26 -9 -46 22t-2 49q13 12 48 12q12 0 27.5 -15.5t6.5 -31.5q0 -18 -34 -36zM450 587q-10 11 -10 41t-11 40q-20 11 -41 21q-101 0 -142 -21q-4 -4 -7.5 -8.5t-5.5 -11.5t-3 -11
t-1.5 -14.5t-0.5 -14.5v-18v-18q0 -31 -1.5 -70t-1.5 -57q0 -22 4.5 -53t4.5 -52t-9 -39q21 -19 122 -19q0 60 21 60q15 0 20 -2.5t21 -17.5q-11 -24 -6 -60.5t4 -70t-19 -33.5q-41 21 -41 41v21h-101q-9 -28 -10.5 -63.5t1.5 -82t3 -61.5q0 -34 3 -99t3 -82q61 -20 163 -20
q17 8 19 29t3.5 42.5t18.5 29.5q14 0 23.5 -9t12.5 -27t4 -30.5t1 -34.5q0 -19 -41 -62h-103q-204 0 -326 21v41h82q9 54 9 110t-4.5 125t-4.5 111v41v205v81v183h-82v41q42 11 123.5 21t121.5 20h204q21 -20 21 -41q0 -10 5 -35.5t6 -41.5t-11 -30.5t-41 -14.5z" />
    <glyph glyph-name="Igrave" unicode="&#xcc;" horiz-adv-x="280" 
d="M58 950q15 14 31 -2q6 3 7.5 2t5 -9t6.5 -11q66 -38 81 -94q-1 -27 -19 -46q-25 6 -52 48t-49 55q-33 33 -11 57zM211 675q-10 -39 -9 -61t5.5 -62t3.5 -62q-2 -63 -8 -199t-9.5 -247t-3.5 -212q11 -11 31.5 -21t29.5 -19q0 -9 -5 -14.5t-16 -12.5t-19 -15
q-21 10 -87.5 10t-97.5 11q-21 21 0 40q0 11 15 11t25 10q9 9 9 24t-4.5 33.5t-4.5 24.5q0 32 1.5 90.5t1.5 88.5q-3 27 -3 48v185v349q-13 0 -19.5 0.5t-13.5 5.5t-7 15v41q0 9 6 9t22.5 -4.5t32.5 -4.5q13 0 49.5 4.5t66.5 4.5t48 -9q17 -16 3 -39t-43 -23z" />
    <glyph glyph-name="Iacute" unicode="&#xcd;" horiz-adv-x="280" 
d="M228 948q10 -11 -4.5 -30.5t-14.5 -26.5q-23 -13 -45.5 -55t-47.5 -48q-18 19 -19 46q9 34 23.5 54t47.5 40q3 3 6.5 11t5 9t7.5 -2q7 7 20.5 7.5t20.5 -5.5zM211 675q-10 -39 -9 -61t5.5 -62t3.5 -62q-2 -63 -8 -199t-9.5 -247t-3.5 -212q11 -11 31.5 -21t29.5 -19
q0 -9 -5 -14.5t-16 -12.5t-19 -15q-21 10 -87.5 10t-97.5 11q-21 21 0 40q0 11 15 11t25 10q9 9 9 24t-4.5 33.5t-4.5 24.5q0 32 1.5 90.5t1.5 88.5q-3 27 -3 48v185v349q-13 0 -19.5 0.5t-13.5 5.5t-7 15v41q0 9 6 9t22.5 -4.5t32.5 -4.5q13 0 49.5 4.5t66.5 4.5t48 -9
q17 -16 3 -39t-43 -23z" />
    <glyph glyph-name="Icircumflex" unicode="&#xce;" horiz-adv-x="280" 
d="M273 808q-16 -21 -29 -12q-5 -4 -7 -3t-6.5 8t-7.5 9q-9 3 -17.5 8.5t-14.5 10t-13.5 12.5l-11 12l-11 12.5t-8.5 10.5l-5 -6q-5 -7 -6 -8.5t-6 -8t-7.5 -8.5t-7.5 -7.5t-8.5 -8l-9 -6.5t-10.5 -7t-11 -5l-20 -17q-9 -5 -19 -0.5t-17 12.5q-8 12 8.5 28.5t17.5 23.5
q23 9 50.5 42t43.5 40l1 1h2q6 2 10 2l4 -6q15 -6 40 -37.5t49 -40.5l13 -10t10 -9t7.5 -10t1 -10t-4.5 -12zM211 675q-10 -39 -9 -61t5.5 -62t3.5 -62q-2 -63 -8 -199t-9.5 -247t-3.5 -212q11 -11 31.5 -21t29.5 -19q0 -9 -5 -14.5t-16 -12.5t-19 -15q-21 10 -87.5 10
t-97.5 11q-21 21 0 40q0 11 15 11t25 10q9 9 9 24t-4.5 33.5t-4.5 24.5q0 32 1.5 90.5t1.5 88.5q-3 27 -3 48v185v349q-13 0 -19.5 0.5t-13.5 5.5t-7 15v41q0 9 6 9t22.5 -4.5t32.5 -4.5q13 0 49.5 4.5t66.5 4.5t48 -9q17 -16 3 -39t-43 -23z" />
    <glyph glyph-name="Idieresis" unicode="&#xcf;" horiz-adv-x="280" 
d="M86 810q-26 -9 -46 22t-2 49q13 12 48 12q12 0 27.5 -15.5t6.5 -31.5q0 -18 -34 -36zM219 810q-26 -9 -46 22t-2 49q13 12 48 12q11 0 27 -15.5t7 -31.5q0 -18 -34 -36zM211 675q-10 -39 -9 -61t5.5 -62t3.5 -62q-2 -63 -8 -199t-9.5 -247t-3.5 -212q11 -11 31.5 -21
t29.5 -19q0 -9 -5 -14.5t-16 -12.5t-19 -15q-21 10 -87.5 10t-97.5 11q-21 21 0 40q0 11 15 11t25 10q9 9 9 24t-4.5 33.5t-4.5 24.5q0 32 1.5 90.5t1.5 88.5q-3 27 -3 48v185v349q-13 0 -19.5 0.5t-13.5 5.5t-7 15v41q0 9 6 9t22.5 -4.5t32.5 -4.5q13 0 49.5 4.5t66.5 4.5
t48 -9q17 -16 3 -39t-43 -23z" />
    <glyph glyph-name="Eth" unicode="&#xd0;" horiz-adv-x="617" 
d="M576 385q1 -4 3 -20.5t2.5 -22.5t2.5 -21.5t2.5 -23t1 -22.5t0.5 -24t-0.5 -23t-2 -25t-4 -24.5t-5.5 -25.5q0 -37 -11 -76.5t-21 -64.5t-38 -68t-36.5 -55l-41.5 -56q-8 -4 -40 -23.5t-62 -29.5t-69 -10h-41q-43 -21 -149 -21q-43 41 -43 64h84q11 0 22 10t21 10v235
q0 58 -14 175q-23 0 -47 5q-22 18 -22 53h63l-1 22q0 170 -22 233v86q-12 0 -30 -5.5t-28 -8t-18 5t-8 30.5q0 9 5.5 14t17.5 12t20 15l21 22q42 21 128 21q14 0 32.5 1.5t35.5 1.5t40 -4q1 1 3 1.5t7 1t9 -1.5q11 -11 42.5 -32.5t42.5 -31.5q20 -9 37 -28t26 -35t22 -43
q52 -107 63 -193zM428 153q0 13 4.5 46t4.5 64.5t-9 59.5v64q-5 25 -13.5 76.5t-14 79.5t-20.5 63t-37 58q-14 14 -31 17t-55 3q-7 -7 -10.5 -22t-3.5 -26.5t0.5 -32.5t0.5 -25q0 -34 2.5 -82t2.5 -67q0 -21 3 -57.5t4 -53.5h36q7 -6 26 -12.5t30.5 -15t11.5 -24.5
q0 -12 -23 -16t-45 -2l-35 4v-184q0 -22 11 -64.5t11 -62.5q0 -16 -5 -35t-5 -30.5t10 -20.5q11 0 32 10.5t32 10.5q0 10 5.5 15.5t11.5 6.5h5q9 0 14 5t5 11l1 5q20 29 30 72.5t11.5 74t1.5 87.5z" />
    <glyph glyph-name="Ntilde" unicode="&#xd1;" horiz-adv-x="647" 
d="M428 906q20 -7 29 -42q-8 -22 -51 -59q-12 -5 -29 0.5t-30 17.5q-2 3 -32 20t-34 20q-10 4 -24.5 -3t-22.5 -19l-11 -26q-16 -12 -33 1.5t-9 30.5q9 26 18 36q29 31 36 36q3 0 16 1.5t19.5 1.5h17t18 -2.5t13.5 -7.5l7 -6l27 -20q26 -16 38 -18q8 3 17.5 19.5t19.5 18.5z
M624 736q0 -9 -5 -19t-10 -15l-5 -6h-41q-9 -9 -9 -19.5t4.5 -28.5t4.5 -33q0 -16 -0.5 -150t0 -178.5t2 -148.5t5 -183.5t9.5 -159.5q1 -28 -18 -38.5t-41 -6t-33 15.5l-44 131l-58.5 175.5t-42.5 140.5q-9 32 -47 119l-13 32q-4 8 -13 52t-33 56v-140v-160v-161v-60v-100
q20 -20 59 -20q0 -10 1.5 -24t2 -22.5t-1 -17t-7.5 -12.5t-17 -4q-25 -1 -45 -1q-10 0 -67 -1.5t-67 -1.5q-6 0 -9 4t-3.5 12t-0.5 16.5t1 22t1 23.5q33 -14 33 6q9 18 10.5 41.5t-1 56.5t-2.5 42q0 32 -3.5 97t-3.5 83q0 20 -0.5 69t-0.5 72q0 22 -4 60t-4 58q0 10 -5.5 31
t-5.5 31v20v61q0 9 -1 22.5t-1 28.5t-9 37.5t-9 31.5q-29 0 -45 12t-16 28q0 15 10 26t25 11q11 0 21.5 1.5t24.5 2.5q10 1 30.5 -1.5t34.5 -2.5q12 0 21 -9t12 -19l2 -9q36 -54 65 -116t64.5 -155.5t50.5 -129.5q21 -63 61 -140q0 -22 17 -62l10.5 -32.5t18 -53t18.5 -38.5
q3 -5 3 12q0 14 -4 65q-4 53 -4 68q0 48 4 164.5t4 179.5v20q0 31 -10 81t-10 80q-40 40 -61 40q-4 4 -13.5 11.5t-12 11.5t-2 13.5t7.5 24.5q9 0 14.5 -3t21.5 -3q13 0 24.5 1.5t16.5 3.5l4 1q25 -6 51.5 -1.5t53 1.5t35.5 -21z" />
    <glyph glyph-name="Ograve" unicode="&#xd2;" horiz-adv-x="614" 
d="M203 950q15 14 31 -2q6 3 7.5 2t5 -9t6.5 -11q66 -38 81 -94q-1 -27 -19 -46q-25 6 -52 48t-49 55q-33 33 -11 57zM487 -154q-23 -41 -56 -61q-67 -42 -132.5 -37t-116.5 37.5t-77 81.5q-37 70 -62 144q-20 80 -20 244q0 14 -2 36t-2 42.5t4 44.5q11 62 11 78q3 13 7 40
t9 42t14 24q12 16 34.5 51t38 55.5t41 43.5t58.5 31t74 2q60 0 95.5 -18t66.5 -64q47 -31 79.5 -96t39.5 -143q4 -41 4 -108v-26.5v-29.5t-0.5 -28.5t-1.5 -32.5t-3 -31t-5 -35t-7 -34q-30 -142 -91 -253zM398 -140q36 90 54 170q20 61 20 184q0 21 3.5 52.5t3.5 51.5
t-3.5 60t-3.5 61q-10 20 -20 61t-21 62q-3 5 -14.5 31t-17.5 37.5t-19.5 27t-27.5 22.5q-19 0 -40.5 2t-42.5 2q-53 -53 -82 -142q-21 -41 -21 -123q-23 -193 21 -449q8 -16 18.5 -53.5t22.5 -49.5q11 0 14.5 -13.5t8.5 -18.5q23 -23 79.5 -13.5t67.5 38.5z" />
    <glyph glyph-name="Oacute" unicode="&#xd3;" horiz-adv-x="614" 
d="M373 948q10 -11 -4.5 -30.5t-14.5 -26.5q-23 -13 -45.5 -55t-47.5 -48q-18 19 -19 46q9 34 23.5 54t47.5 40q3 3 6.5 11t5 9t7.5 -2q7 7 20.5 7.5t20.5 -5.5zM487 -154q-23 -41 -56 -61q-67 -42 -132.5 -37t-116.5 37.5t-77 81.5q-37 70 -62 144q-20 80 -20 244
q0 14 -2 36t-2 42.5t4 44.5q11 62 11 78q3 13 7 40t9 42t14 24q12 16 34.5 51t38 55.5t41 43.5t58.5 31t74 2q60 0 95.5 -18t66.5 -64q47 -31 79.5 -96t39.5 -143q4 -41 4 -108v-26.5v-29.5t-0.5 -28.5t-1.5 -32.5t-3 -31t-5 -35t-7 -34q-30 -142 -91 -253zM398 -140
q36 90 54 170q20 61 20 184q0 21 3.5 52.5t3.5 51.5t-3.5 60t-3.5 61q-10 20 -20 61t-21 62q-3 5 -14.5 31t-17.5 37.5t-19.5 27t-27.5 22.5q-19 0 -40.5 2t-42.5 2q-53 -53 -82 -142q-21 -41 -21 -123q-23 -193 21 -449q8 -16 18.5 -53.5t22.5 -49.5q11 0 14.5 -13.5
t8.5 -18.5q23 -23 79.5 -13.5t67.5 38.5z" />
    <glyph glyph-name="Ocircumflex" unicode="&#xd4;" horiz-adv-x="614" 
d="M418 808q-16 -21 -29 -12q-5 -4 -7 -3t-6.5 8t-7.5 9q-9 3 -17.5 8.5t-14.5 10t-13.5 12.5l-11 11.5t-11 12.5t-8.5 11l-5 -6q-5 -7 -6 -8.5t-6 -8t-7.5 -8.5t-7.5 -7.5t-8.5 -8l-9 -6.5t-10.5 -7t-11 -5l-20 -17q-9 -5 -19 -0.5t-17 12.5q-8 12 8.5 28.5t17.5 23.5
q23 9 50.5 42t43.5 40l1 1h2q6 2 10 2l4 -6q15 -6 40 -37.5t49 -40.5l13 -10t10 -9t7.5 -10t1 -10t-4.5 -12zM487 -154q-23 -41 -56 -61q-67 -42 -132.5 -37t-116.5 37.5t-77 81.5q-37 70 -62 144q-20 80 -20 244q0 14 -2 36t-2 42.5t4 44.5q11 62 11 78q3 13 7 40t9 42
t14 24q12 16 34.5 51t38 55.5t41 43.5t58.5 31t74 2q60 0 95.5 -18t66.5 -64q47 -31 79.5 -96t39.5 -143q4 -41 4 -108v-26.5v-29.5t-0.5 -28.5t-1.5 -32.5t-3 -31t-5 -35t-7 -34q-30 -142 -91 -253zM398 -140q36 90 54 170q20 61 20 184q0 21 3.5 52.5t3.5 51.5t-3.5 60
t-3.5 61q-10 20 -20 61t-21 62q-3 5 -14.5 31t-17.5 37.5t-19.5 27t-27.5 22.5q-19 0 -40.5 2t-42.5 2q-53 -53 -82 -142q-21 -41 -21 -123q-23 -193 21 -449q8 -16 18.5 -53.5t22.5 -49.5q11 0 14.5 -13.5t8.5 -18.5q23 -23 79.5 -13.5t67.5 38.5z" />
    <glyph glyph-name="Otilde" unicode="&#xd5;" horiz-adv-x="614" 
d="M403 906q20 -7 29 -42q-8 -22 -51 -59q-12 -5 -29 0.5t-30 17.5q-2 3 -32 20t-34 20q-10 4 -24.5 -3t-22.5 -19l-11 -26q-16 -12 -33 1.5t-9 30.5q9 26 18 36q29 31 36 36q3 0 16 1.5t19.5 1.5h17t18 -2.5t13.5 -7.5l7 -6l27 -20q26 -16 38 -18q8 3 17.5 19.5t19.5 18.5z
M487 -154q-23 -41 -56 -61q-67 -42 -132.5 -37t-116.5 37.5t-77 81.5q-37 70 -62 144q-20 80 -20 244q0 14 -2 36t-2 42.5t4 44.5q11 62 11 78q3 13 7 40t9 42t14 24q12 16 34.5 51t38 55.5t41 43.5t58.5 31t74 2q60 0 95.5 -18t66.5 -64q47 -31 79.5 -96t39.5 -143
q4 -41 4 -108v-26.5v-29.5t-0.5 -28.5t-1.5 -32.5t-3 -31t-5 -35t-7 -34q-30 -142 -91 -253zM398 -140q36 90 54 170q20 61 20 184q0 21 3.5 52.5t3.5 51.5t-3.5 60t-3.5 61q-10 20 -20 61t-21 62q-3 5 -14.5 31t-17.5 37.5t-19.5 27t-27.5 22.5q-19 0 -40.5 2t-42.5 2
q-53 -53 -82 -142q-21 -41 -21 -123q-23 -193 21 -449q8 -16 18.5 -53.5t22.5 -49.5q11 0 14.5 -13.5t8.5 -18.5q23 -23 79.5 -13.5t67.5 38.5z" />
    <glyph glyph-name="Odieresis" unicode="&#xd6;" horiz-adv-x="614" 
d="M231 810q-26 -9 -46 22t-2 49q13 12 48 12q11 0 27 -15.5t7 -31.5q0 -18 -34 -36zM364 810q-26 -9 -46 22t-2 49q13 12 48 12q12 0 27.5 -15.5t6.5 -31.5q0 -18 -34 -36zM487 -154q-23 -41 -56 -61q-67 -42 -132.5 -37t-116.5 37.5t-77 81.5q-37 70 -62 144
q-20 80 -20 244q0 14 -2 36t-2 42.5t4 44.5q11 62 11 78q3 13 7 40t9 42t14 24q12 16 34.5 51t38 55.5t41 43.5t58.5 31t74 2q60 0 95.5 -18t66.5 -64q47 -31 79.5 -96t39.5 -143q4 -41 4 -108v-26.5v-29.5t-0.5 -28.5t-1.5 -32.5t-3 -31t-5 -35t-7 -34q-30 -142 -91 -253z
M398 -140q36 90 54 170q20 61 20 184q0 21 3.5 52.5t3.5 51.5t-3.5 60t-3.5 61q-10 20 -20 61t-21 62q-3 5 -14.5 31t-17.5 37.5t-19.5 27t-27.5 22.5q-19 0 -40.5 2t-42.5 2q-53 -53 -82 -142q-21 -41 -21 -123q-23 -193 21 -449q8 -16 18.5 -53.5t22.5 -49.5
q11 0 14.5 -13.5t8.5 -18.5q23 -23 79.5 -13.5t67.5 38.5z" />
    <glyph glyph-name="multiply" unicode="&#xd7;" horiz-adv-x="474" 
d="M114 476q20 -10 66 -64.5t65 -63.5q20 32 60 78.5t66 59.5q3 -3 26 -10t23 -19q-5 -15 -57 -72t-62 -76q13 -20 48 -58t57.5 -70t22.5 -58q-12 -13 -19.5 -18.5t-22 -11.5t-26.5 1q-18 37 -51.5 81.5t-65.5 63.5l-10 -10q-69 -112 -75 -118l-13 -17q-14 -16 -26 -21
q-3 3 -17.5 6t-22.5 10.5t-4 22.5q10 21 57.5 83t61.5 85q-5 13 -17.5 25.5t-29 24.5t-22.5 18l-14 10q-16 16 -31.5 29l-21.5 18t-9.5 10.5t-3.5 12.5q-5 5 8.5 20.5t32 26t27.5 1.5z" />
    <glyph glyph-name="Oslash" unicode="&#xd8;" horiz-adv-x="614" 
d="M595 316v-26.5v-29.5t-0.5 -28.5t-1.5 -32.5t-3 -31t-5 -35t-7 -34q-30 -142 -91 -253q-23 -41 -56 -61q-55 -35 -115 -37t-107 21t-80 62l-7 -6l-26 -52q-12 -19 -19.5 -29t-17.5 -18t-17 0t-12 31q2 24 11.5 43.5t28.5 44t27 38.5q-31 60 -54 128q-20 80 -20 244
q0 14 -2 36t-2 42.5t4 44.5q11 62 11 78q3 13 7 40t9 42t14 24q12 16 34.5 51t38 55.5t41 43.5t58.5 31t74 2q60 0 95.5 -18t66.5 -64l2 -1l6.5 9.5t6.5 10.5q2 32 17.5 57.5t31.5 22.5q15 -3 25.5 -25.5t8.5 -40.5q-2 -20 -41 -90q52 -77 62 -182q4 -41 4 -108zM166 419
q-19 -159 7 -357q96 146 128 252q17 32 126 257q-2 5 -9 20l-10.5 22t-10.5 19.5t-13 20t-14.5 15t-17.5 12.5q-19 0 -40.5 2t-42.5 2q-53 -53 -82 -142q-21 -41 -21 -123zM472 214q0 21 3.5 52.5t3.5 51.5t-3.5 60t-3.5 61q-4 8 -11 28l-45 -95l-52.5 -110.5t-33.5 -77.5
q-16 -13 -32.5 -38t-18.5 -39q-11 -10 -24.5 -41t-25.5 -41q-1 -15 -35 -72q4 -12 10 -32.5t11 -33t13 -20.5q11 0 14.5 -13.5t8.5 -18.5q23 -23 79.5 -13.5t67.5 38.5q36 90 54 170q20 61 20 184z" />
    <glyph glyph-name="Ugrave" unicode="&#xd9;" horiz-adv-x="598" 
d="M194 950q15 14 31 -2q6 3 7.5 2t5 -9t6.5 -11q66 -38 81 -94q-1 -27 -19 -46q-25 6 -52 48t-49 55q-33 33 -11 57zM221 -105q61 -61 113 -24q26 19 42 53t21.5 85t6.5 75.5t1 75.5v305q0 29 4.5 76.5t4.5 78t-9 48.5q-9 10 -19 15.5t-16 6.5h-5q0 5 -14 37q-7 18 5 18
q18 0 71.5 3t78.5 2q35 -1 55 -13.5t18.5 -26.5t-10.5 -24q-25 -20 -31 -66t-5.5 -112t-6.5 -103v-203v-22q0 -99 -12.5 -170t-47.5 -135q-66 -122 -163 -122q-7 0 -16 -1t-32 -1q-77 11 -135 104q-19 32 -26 96.5t-14 86.5v509q0 1 2 59t-2 62q-1 10 -11 17t-21.5 10.5
t-20.5 12.5t-9 22q6 6 12 9.5t15 5.5t14.5 2.5t19.5 1t21 1.5q27 5 67 3t58 -20t-24 -65v-121v-184q0 -45 0.5 -109.5t0.5 -83.5q0 -197 19 -275z" />
    <glyph glyph-name="Uacute" unicode="&#xda;" horiz-adv-x="598" 
d="M364 948q10 -11 -4.5 -30.5t-14.5 -26.5q-23 -13 -45.5 -55t-47.5 -48q-18 19 -19 46q9 34 23.5 54t47.5 40q3 3 6.5 11t5 9t7.5 -2q7 7 20.5 7.5t20.5 -5.5zM221 -105q61 -61 113 -24q26 19 42 53t21.5 85t6.5 75.5t1 75.5v305q0 29 4.5 76.5t4.5 78t-9 48.5
q-9 10 -19 15.5t-16 6.5h-5q0 5 -14 37q-7 18 5 18q18 0 71.5 3t78.5 2q35 -1 55 -13.5t18.5 -26.5t-10.5 -24q-25 -20 -31 -66t-5.5 -112t-6.5 -103v-203v-22q0 -99 -12.5 -170t-47.5 -135q-66 -122 -163 -122q-7 0 -16 -1t-32 -1q-77 11 -135 104q-19 32 -26 96.5
t-14 86.5v509q0 1 2 59t-2 62q-1 10 -11 17t-21.5 10.5t-20.5 12.5t-9 22q6 6 12 9.5t15 5.5t14.5 2.5t19.5 1t21 1.5q27 5 67 3t58 -20t-24 -65v-121v-184q0 -45 0.5 -109.5t0.5 -83.5q0 -197 19 -275z" />
    <glyph glyph-name="Ucircumflex" unicode="&#xdb;" horiz-adv-x="598" 
d="M409 808q-16 -21 -29 -12q-5 -4 -7 -3t-6.5 8t-7.5 9q-9 3 -17.5 8.5t-14.5 10t-13.5 12.5l-11 11.5t-11 12.5t-8.5 11l-5 -6q-5 -7 -6 -8.5t-6 -8t-7.5 -8.5t-7.5 -7.5t-8.5 -8l-9 -6.5t-10.5 -7t-11 -5l-20 -17q-9 -5 -19 -0.5t-17 12.5q-8 12 8.5 28.5t17.5 23.5
q23 9 50.5 42t43.5 40l1 1h2q6 2 10 2l4 -6q15 -6 40 -37.5t49 -40.5l13 -10t10 -9t7.5 -10t1 -10t-4.5 -12zM221 -105q61 -61 113 -24q26 19 42 53t21.5 85t6.5 75.5t1 75.5v305q0 29 4.5 76.5t4.5 78t-9 48.5q-9 10 -19 15.5t-16 6.5h-5q0 5 -14 37q-7 18 5 18
q18 0 71.5 3t78.5 2q35 -1 55 -13.5t18.5 -26.5t-10.5 -24q-25 -20 -31 -66t-5.5 -112t-6.5 -103v-203v-22q0 -99 -12.5 -170t-47.5 -135q-66 -122 -163 -122q-7 0 -16 -1t-32 -1q-77 11 -135 104q-19 32 -26 96.5t-14 86.5v509q0 1 2 59t-2 62q-1 10 -11 17t-21.5 10.5
t-20.5 12.5t-9 22q6 6 12 9.5t15 5.5t14.5 2.5t19.5 1t21 1.5q27 5 67 3t58 -20t-24 -65v-121v-184q0 -45 0.5 -109.5t0.5 -83.5q0 -197 19 -275z" />
    <glyph glyph-name="Udieresis" unicode="&#xdc;" horiz-adv-x="598" 
d="M222 810q-26 -9 -46 22t-2 49q13 12 48 12q12 0 27.5 -15.5t6.5 -31.5q0 -18 -34 -36zM355 810q-26 -9 -46 22t-2 49q13 12 48 12q11 0 27 -15.5t7 -31.5q0 -18 -34 -36zM221 -105q61 -61 113 -24q26 19 42 53t21.5 85t6.5 75.5t1 75.5v305q0 29 4.5 76.5t4.5 78t-9 48.5
q-9 10 -19 15.5t-16 6.5h-5q0 5 -14 37q-7 18 5 18q18 0 71.5 3t78.5 2q35 -1 55 -13.5t18.5 -26.5t-10.5 -24q-25 -20 -31 -66t-5.5 -112t-6.5 -103v-203v-22q0 -99 -12.5 -170t-47.5 -135q-66 -122 -163 -122q-7 0 -16 -1t-32 -1q-77 11 -135 104q-19 32 -26 96.5
t-14 86.5v509q0 1 2 59t-2 62q-1 10 -11 17t-21.5 10.5t-20.5 12.5t-9 22q6 6 12 9.5t15 5.5t14.5 2.5t19.5 1t21 1.5q27 5 67 3t58 -20t-24 -65v-121v-184q0 -45 0.5 -109.5t0.5 -83.5q0 -197 19 -275z" />
    <glyph glyph-name="Yacute" unicode="&#xdd;" horiz-adv-x="607" 
d="M388 948q10 -11 -4.5 -30.5t-14.5 -26.5q-23 -13 -45.5 -55t-47.5 -48q-18 19 -19 46q9 34 23.5 54t47.5 40q3 3 6.5 11t5 9t7.5 -2q7 7 20.5 7.5t20.5 -5.5zM588 742q0 -57 -18 -57h-59q-9 -26 -46 -161.5t-68 -201.5q-13 -14 -18.5 -30.5t-6 -29.5t1.5 -42.5t2 -49.5
q-6 -18 -5.5 -33t4 -43.5t3.5 -38.5q0 -18 -2 -60.5t-2.5 -69.5t5 -56.5t18.5 -42.5q52 2 52 -17q17 -52 -3 -57q-29 -7 -60 -7.5t-62 2.5t-41 3h-96q-26 28 0 57q10 9 39 9t38 10q0 19 1 77.5t0.5 89t-2.5 84.5t-8.5 89t-16.5 75.5t-27.5 70t-41.5 49.5q-13 38 -57 134
q-39 117 -39 190q-57 0 -57 18q-2 22 6.5 34t25.5 14.5t33 2t37 -3.5t30 -3q18 0 57.5 -2.5t58.5 -2.5q19 -19 19 -57q-5 0 -22 3t-30.5 1.5t-21.5 -9.5q3 -12 8 -76q1 -18 5 -40t4 -32q15 -58 41 -110.5t54 -80.5q18 9 28 25.5t21.5 49t19.5 48.5q45 93 47 202
q0 14 -34 25.5t-43 31.5q0 17 25.5 21.5t82.5 1t63 -3.5q7 0 18.5 4.5t21 4.5t17.5 -9z" />
    <glyph glyph-name="Thorn" unicode="&#xde;" horiz-adv-x="544" 
d="M345 571q58 -9 104 -77.5t63 -153.5q0 -125 -21 -168q-7 -22 -23 -44.5t-30 -36t-39 -35t-34 -30.5q-20 -10 -44.5 -15t-43 -6t-58.5 -1q-2 0 -5.5 -0.5t-9.5 -6t-6 -14.5v-38h-2q0 -19 -0.5 -56.5t-0.5 -56.5q11 -11 31.5 -21t29.5 -19q0 -9 -5 -14.5t-16 -12.5t-19 -15
q-21 10 -87.5 10t-97.5 11q-21 21 0 40q0 11 15 11t25 10q9 9 9 24t-4.5 33.5t-4.5 24.5v23h-1l-1 111q0 7 1 22v43q-1 5 3 71t5 72q0 57 -4 143t-5 167q2 37 2 109q-13 0 -19.5 0.5t-13.5 5.5t-7 15v41q0 9 6 9t22.5 -4.5t32.5 -4.5q13 0 49.5 4.5t66.5 4.5t48 -9
q17 -16 3 -39t-43 -23q-12 -37 -6 -103l92 -1q5 0 17.5 2t25.5 -2zM365 193q2 7 5 19.5t4 15.5t2.5 12t2 13.5t1 14.5t0.5 20.5v26.5q0 97 -35 169q-9 0 -35 12t-49 12h-43q0 -28 -4 -86q-2 -49 -7 -161.5t-7 -173.5q16 -14 41.5 -17t37.5 6q30 19 54 51.5t32 65.5z" />
    <glyph glyph-name="germandbls" unicode="&#xdf;" horiz-adv-x="600" 
d="M533 115q2 -12 8.5 -44t8 -43.5t3.5 -33.5t0.5 -38.5t-6.5 -34.5q-9 -35 -26.5 -65.5t-27 -42.5t-40.5 -46q-11 -2 -37.5 -12.5t-37.5 -12.5q-47 -9 -140 61q-3 4 -5 13t-4 13q7 37 14.5 49.5t25.5 1.5q11 -31 31.5 -53.5t44.5 -26.5q11 2 20 14.5t20 14.5q13 16 22.5 34
t14.5 40t8.5 39t2 44.5t-2.5 42.5t-6.5 48t-8 45.5t-10.5 49.5t-10 47q0 3 -5 10.5l-18.5 27.5l-26.5 41q-12 12 -64 70q-19 24 -20.5 35.5t9.5 35.5q16 18 37 62q42 121 21 163q-9 9 -26 11t-40 -0.5t-26 -2.5q-42 -44 -42 -99q0 -182 10 -276l-10 -327q-1 -48 -14 -113
q-10 -52 -25 -74q-5 -7 -9.5 -11t-11.5 -5.5t-11.5 -1.5t-18 0.5t-23.5 0.5q-49 0 -64 6t-15 35v21q5 4 14 4t26 -2t31 -2q39 191 28 347l-1 40v102v205q0 27 0.5 50.5t0.5 42.5q42 136 133 136q79 0 112 -8t63 -38q4 -9 14 -27t14.5 -27.5t8.5 -27.5t4 -40
q-14 -83 -93 -164q0 -9 5.5 -15t20.5 -17.5t26 -22.5q12 -12 78 -120q37 -76 46 -129z" />
    <glyph glyph-name="agrave" unicode="&#xe0;" 
d="M261 950q15 14 31 -2q6 3 7.5 2t5 -9t6.5 -11q66 -38 81 -94q-1 -27 -19 -46q-25 6 -52 48t-49 55q-33 33 -11 57zM407 -168q0 275 -22 381q-17 0 -74.5 10.5t-91.5 10.5q-22 -21 -22 -108q-23 -84 -23 -295q11 -9 32.5 -9t31.5 -10l-3 -42q-28 -19 -63 -20t-61 4.5
t-61 -6.5l-44 42q37 41 63 41q10 0 15.5 7t6 14t0.5 22q11 71 32.5 238.5l29.5 226.5q0 86 44 168q24 93 104 211l5 5t13 9.5t19.5 10t22.5 3.5t24 -6q32 -16 60 -65t28 -83q24 -49 32 -113q11 -92 26 -278t23 -263v-128q0 -6 10 -19t10 -24t-20 -20l-26 6q-21 0 -60 -3
t-61 -3q-4 0 -14 -1.5t-15.5 -2t-12.5 0t-10.5 3.5t-3.5 8q0 18 20 47.5t36 29.5zM301 614q-44 -138 -63 -212q0 -9 -9.5 -51.5t-9.5 -55.5q62 -19 166 -19v126q0 99 -40 212q0 2 -0.5 5.5t-6 9.5t-15.5 6z" />
    <glyph glyph-name="aacute" unicode="&#xe1;" 
d="M431 948q10 -11 -4.5 -30.5t-14.5 -26.5q-23 -13 -45.5 -55t-47.5 -48q-18 19 -19 46q9 34 23.5 54t47.5 40q3 3 6.5 11t5 9t7.5 -2q7 7 20.5 7.5t20.5 -5.5zM407 -168q0 275 -22 381q-17 0 -74.5 10.5t-91.5 10.5q-22 -21 -22 -108q-23 -84 -23 -295q11 -9 32.5 -9
t31.5 -10l-3 -42q-28 -19 -63 -20t-61 4.5t-61 -6.5l-44 42q37 41 63 41q10 0 15.5 7t6 14t0.5 22q11 71 32.5 238.5l29.5 226.5q0 86 44 168q24 93 104 211l5 5t13 9.5t19.5 10t22.5 3.5t24 -6q32 -16 60 -65t28 -83q24 -49 32 -113q11 -92 26 -278t23 -263v-128
q0 -6 10 -19t10 -24t-20 -20l-26 6q-21 0 -60 -3t-61 -3q-4 0 -14 -1.5t-15.5 -2t-12.5 0t-10.5 3.5t-3.5 8q0 18 20 47.5t36 29.5zM301 614q-44 -138 -63 -212q0 -9 -9.5 -51.5t-9.5 -55.5q62 -19 166 -19v126q0 99 -40 212q0 2 -0.5 5.5t-6 9.5t-15.5 6z" />
    <glyph glyph-name="acircumflex" unicode="&#xe2;" 
d="M476 808q-16 -21 -29 -12q-5 -4 -7 -3t-6.5 8t-7.5 9q-9 3 -17.5 8.5t-14.5 10t-13.5 12.5l-11 11.5t-11 12.5t-8.5 11l-5 -6q-5 -7 -6 -8.5t-6 -8t-7.5 -8.5t-7.5 -7.5t-8.5 -8l-9 -6.5t-10.5 -7t-11 -5l-20 -17q-9 -5 -19 -0.5t-17 12.5q-8 12 8.5 28.5t17.5 23.5
q23 9 50.5 42t43.5 40l1 1h2q6 2 10 2l4 -6q15 -6 40 -37.5t49 -40.5l13 -10t10 -9t7.5 -10t1 -10t-4.5 -12zM407 -168q0 275 -22 381q-17 0 -74.5 10.5t-91.5 10.5q-22 -21 -22 -108q-23 -84 -23 -295q11 -9 32.5 -9t31.5 -10l-3 -42q-28 -19 -63 -20t-61 4.5t-61 -6.5
l-44 42q37 41 63 41q10 0 15.5 7t6 14t0.5 22q11 71 32.5 238.5l29.5 226.5q0 86 44 168q24 93 104 211l5 5t13 9.5t19.5 10t22.5 3.5t24 -6q32 -16 60 -65t28 -83q24 -49 32 -113q11 -92 26 -278t23 -263v-128q0 -6 10 -19t10 -24t-20 -20l-26 6q-21 0 -60 -3t-61 -3
q-4 0 -14 -1.5t-15.5 -2t-12.5 0t-10.5 3.5t-3.5 8q0 18 20 47.5t36 29.5zM301 614q-44 -138 -63 -212q0 -9 -9.5 -51.5t-9.5 -55.5q62 -19 166 -19v126q0 99 -40 212q0 2 -0.5 5.5t-6 9.5t-15.5 6z" />
    <glyph glyph-name="atilde" unicode="&#xe3;" 
d="M461 906q20 -7 29 -42q-8 -22 -51 -59q-12 -5 -29 0.5t-30 17.5q-2 3 -32 20t-34 20q-10 4 -24.5 -3t-22.5 -19l-11 -26q-16 -12 -33 1.5t-9 30.5q9 26 18 36q29 31 36 36q3 0 16 1.5t19.5 1.5h17t18 -2.5t13.5 -7.5l7 -6l27 -20q26 -16 38 -18q8 3 17.5 19.5t19.5 18.5z
M407 -168q0 275 -22 381q-17 0 -74.5 10.5t-91.5 10.5q-22 -21 -22 -108q-23 -84 -23 -295q11 -9 32.5 -9t31.5 -10l-3 -42q-28 -19 -63 -20t-61 4.5t-61 -6.5l-44 42q37 41 63 41q10 0 15.5 7t6 14t0.5 22q11 71 32.5 238.5l29.5 226.5q0 86 44 168q24 93 104 211l5 5
t13 9.5t19.5 10t22.5 3.5t24 -6q32 -16 60 -65t28 -83q24 -49 32 -113q11 -92 26 -278t23 -263v-128q0 -6 10 -19t10 -24t-20 -20l-26 6q-21 0 -60 -3t-61 -3q-4 0 -14 -1.5t-15.5 -2t-12.5 0t-10.5 3.5t-3.5 8q0 18 20 47.5t36 29.5zM301 614q-44 -138 -63 -212
q0 -9 -9.5 -51.5t-9.5 -55.5q62 -19 166 -19v126q0 99 -40 212q0 2 -0.5 5.5t-6 9.5t-15.5 6z" />
    <glyph glyph-name="adieresis" unicode="&#xe4;" 
d="M289 810q-26 -9 -46 22t-2 49q13 12 48 12q11 0 27 -15.5t7 -31.5q0 -18 -34 -36zM422 810q-26 -9 -46 22t-2 49q13 12 48 12q12 0 27.5 -15.5t6.5 -31.5q0 -18 -34 -36zM407 -168q0 275 -22 381q-17 0 -74.5 10.5t-91.5 10.5q-22 -21 -22 -108q-23 -84 -23 -295
q11 -9 32.5 -9t31.5 -10l-3 -42q-28 -19 -63 -20t-61 4.5t-61 -6.5l-44 42q37 41 63 41q10 0 15.5 7t6 14t0.5 22q11 71 32.5 238.5l29.5 226.5q0 86 44 168q24 93 104 211l5 5t13 9.5t19.5 10t22.5 3.5t24 -6q32 -16 60 -65t28 -83q24 -49 32 -113q11 -92 26 -278t23 -263
v-128q0 -6 10 -19t10 -24t-20 -20l-26 6q-21 0 -60 -3t-61 -3q-4 0 -14 -1.5t-15.5 -2t-12.5 0t-10.5 3.5t-3.5 8q0 18 20 47.5t36 29.5zM301 614q-44 -138 -63 -212q0 -9 -9.5 -51.5t-9.5 -55.5q62 -19 166 -19v126q0 99 -40 212q0 2 -0.5 5.5t-6 9.5t-15.5 6z" />
    <glyph glyph-name="aring" unicode="&#xe5;" 
d="M376 784q-30 -10 -61 6.5t-48.5 46t-23 62.5t16.5 55q23 20 45 24.5t71 4.5q28 0 65 -37.5t16 -75.5q0 -45 -81 -86zM365 833q40 21 40 43q11 19 -7.5 37.5t-32.5 18.5q-42 0 -58 -14q-21 -22 3 -58.5t55 -26.5zM407 -168q0 275 -22 381q-17 0 -74.5 10.5t-91.5 10.5
q-22 -21 -22 -108q-23 -84 -23 -295q11 -9 32.5 -9t31.5 -10l-3 -42q-28 -19 -63 -20t-61 4.5t-61 -6.5l-44 42q37 41 63 41q10 0 15.5 7t6 14t0.5 22q11 71 32.5 238.5l29.5 226.5q0 86 44 168q24 93 104 211l5 5t13 9.5t19.5 10t22.5 3.5t24 -6q32 -16 60 -65t28 -83
q24 -49 32 -113q11 -92 26 -278t23 -263v-128q0 -6 10 -19t10 -24t-20 -20l-26 6q-21 0 -60 -3t-61 -3q-4 0 -14 -1.5t-15.5 -2t-12.5 0t-10.5 3.5t-3.5 8q0 18 20 47.5t36 29.5zM301 614q-44 -138 -63 -212q0 -9 -9.5 -51.5t-9.5 -55.5q62 -19 166 -19v126q0 99 -40 212
q0 2 -0.5 5.5t-6 9.5t-15.5 6z" />
    <glyph glyph-name="ae" unicode="&#xe6;" horiz-adv-x="775" 
d="M705 -87q14 0 23.5 -9t12.5 -27t4 -30.5t1 -34.5q0 -19 -41 -62h-103q-63 0 -93 1l-7 -4l-20 5l-18 1q-66 -6 -89 -6q-5 0 -13 -1.5t-12.5 -2t-9.5 0t-7.5 3.5t-2.5 8q0 16 17.5 43.5t33.5 32.5q4 35 5 49q0 115 -5 193q-3 81 -3 85v41v15q-16 0 -71 10t-88 10
q-22 -21 -22 -108q-23 -84 -23 -295q11 -9 32.5 -9t31.5 -10l-3 -42q-28 -19 -63 -20t-61 4.5t-61 -6.5l-44 42q37 41 63 41q10 0 15.5 7t6 14t0.5 22q11 71 32.5 238.5l29.5 226.5q0 86 44 168q8 30 21.5 59.5t21.5 42.5t32 47.5l29 41.5q29 21 68 25q5 3 19 3
q84 12 133 24h204q21 -20 21 -41q0 -10 5 -35.5t6 -41.5t-11 -30.5t-41 -14.5q-11 11 -11 41t-10 40q-20 11 -41 21q-101 0 -142 -21q-4 -4 -7.5 -8.5t-5.5 -11.5t-3 -11t-1.5 -14.5t-0.5 -14.5v-18v-18q0 -31 -1.5 -70t-1.5 -57q0 -22 4.5 -53t4.5 -52t-9 -39
q21 -19 122 -19q0 60 21 60q15 0 20 -2.5t21 -17.5q-11 -24 -6 -60.5t4 -70t-19 -33.5q-41 21 -41 41v21h-101q-9 -28 -10.5 -63.5t1.5 -82t3 -61.5l7 -75v-106q60 -20 162 -20q17 8 18.5 29t3.5 42.5t19 29.5zM219 295q62 -19 159 -19v128v81v152q-21 6 -40 -4.5t-28 -24.5
l-9 -14q-2 -6 -26 -74t-37 -118q0 -9 -9.5 -51.5t-9.5 -55.5z" />
    <glyph glyph-name="ccedilla" unicode="&#xe7;" horiz-adv-x="555" 
d="M474 -17q24 0 40 -11t23 -11v-146q-28 -70 -151 -66l-4 -34q47 0 63 -11q12 -9 19 -26q24 -28 16 -59t-31.5 -56.5t-51.5 -37.5q-94 -6 -123 27q-7 15 -1 29.5t16.5 17.5t19.5 -3q2 -15 24 -21.5t51 0.5q17 7 25.5 19.5t8.5 27t-1 32.5q-11 28 -57 8q-16 -7 -21.5 3
t-4.5 29l8 58q-54 5 -137 23q-12 12 -39.5 33.5t-47.5 42.5t-38 49q-5 24 -24 101t-29 136t-10 115q6 31 16.5 98.5t21 118.5t25.5 95q9 10 18 30.5t22 32.5q36 51 96.5 87.5t132.5 36.5q16 -5 42.5 -12t40 -11t31.5 -14.5t32 -25.5q0 -10 11 -20t11 -20q0 -104 -22 -104
q-14 0 -21 13.5t-7.5 30.5t-3.5 35t-9 25q-101 32 -166 0q-11 -11 -32 -52.5t-31 -51.5q0 -22 -20 -42q-10 -40 -15 -82t-6 -72.5t-1 -95.5v-124q46 -261 146 -313q15 -7 30.5 -8.5t32.5 4t29.5 11t32.5 15.5q10 20 10 72.5t10 73.5z" />
    <glyph glyph-name="egrave" unicode="&#xe8;" horiz-adv-x="520" 
d="M189 950q15 14 31 -2q6 3 7.5 2t5 -9t6.5 -11q66 -38 81 -94q-1 -27 -19 -46q-25 6 -52 48t-49 55q-33 33 -11 57zM450 587q-10 11 -10 41t-11 40q-20 11 -41 21q-101 0 -142 -21q-4 -4 -7.5 -8.5t-5.5 -11.5t-3 -11t-1.5 -14.5t-0.5 -14.5v-18v-18q0 -31 -1.5 -70
t-1.5 -57q0 -22 4.5 -53t4.5 -52t-9 -39q21 -19 122 -19q0 60 21 60q15 0 20 -2.5t21 -17.5q-11 -24 -6 -60.5t4 -70t-19 -33.5q-41 21 -41 41v21h-101q-9 -28 -10.5 -63.5t1.5 -82t3 -61.5q0 -34 3 -99t3 -82q61 -20 163 -20q17 8 19 29t3.5 42.5t18.5 29.5q14 0 23.5 -9
t12.5 -27t4 -30.5t1 -34.5q0 -19 -41 -62h-103q-204 0 -326 21v41h82q9 54 9 110t-4.5 125t-4.5 111v41v205v81v183h-82v41q42 11 123.5 21t121.5 20h204q21 -20 21 -41q0 -10 5 -35.5t6 -41.5t-11 -30.5t-41 -14.5z" />
    <glyph glyph-name="eacute" unicode="&#xe9;" horiz-adv-x="520" 
d="M359 948q10 -11 -4.5 -30.5t-14.5 -26.5q-23 -13 -45.5 -55t-47.5 -48q-18 19 -19 46q9 34 23.5 54t47.5 40q3 3 6.5 11t5 9t7.5 -2q7 7 20.5 7.5t20.5 -5.5zM450 587q-10 11 -10 41t-11 40q-20 11 -41 21q-101 0 -142 -21q-4 -4 -7.5 -8.5t-5.5 -11.5t-3 -11t-1.5 -14.5
t-0.5 -14.5v-18v-18q0 -31 -1.5 -70t-1.5 -57q0 -22 4.5 -53t4.5 -52t-9 -39q21 -19 122 -19q0 60 21 60q15 0 20 -2.5t21 -17.5q-11 -24 -6 -60.5t4 -70t-19 -33.5q-41 21 -41 41v21h-101q-9 -28 -10.5 -63.5t1.5 -82t3 -61.5q0 -34 3 -99t3 -82q61 -20 163 -20q17 8 19 29
t3.5 42.5t18.5 29.5q14 0 23.5 -9t12.5 -27t4 -30.5t1 -34.5q0 -19 -41 -62h-103q-204 0 -326 21v41h82q9 54 9 110t-4.5 125t-4.5 111v41v205v81v183h-82v41q42 11 123.5 21t121.5 20h204q21 -20 21 -41q0 -10 5 -35.5t6 -41.5t-11 -30.5t-41 -14.5z" />
    <glyph glyph-name="ecircumflex" unicode="&#xea;" horiz-adv-x="520" 
d="M404 808q-16 -21 -29 -12q-5 -4 -7 -3t-6.5 8t-7.5 9q-9 3 -17.5 8.5t-14.5 10t-13.5 12.5l-11 12l-11 12.5t-8.5 10.5l-5 -6q-5 -7 -6 -8.5t-6 -8t-7.5 -8.5t-7.5 -7.5t-8.5 -8l-9 -6.5t-10.5 -7t-11 -5l-20 -17q-9 -5 -19 -0.5t-17 12.5q-8 12 8.5 28.5t17.5 23.5
q23 9 50.5 42t43.5 40l1 1h2q6 2 10 2l4 -6q15 -6 40 -37.5t49 -40.5l13 -10t10 -9t7.5 -10t1 -10t-4.5 -12zM450 587q-10 11 -10 41t-11 40q-20 11 -41 21q-101 0 -142 -21q-4 -4 -7.5 -8.5t-5.5 -11.5t-3 -11t-1.5 -14.5t-0.5 -14.5v-18v-18q0 -31 -1.5 -70t-1.5 -57
q0 -22 4.5 -53t4.5 -52t-9 -39q21 -19 122 -19q0 60 21 60q15 0 20 -2.5t21 -17.5q-11 -24 -6 -60.5t4 -70t-19 -33.5q-41 21 -41 41v21h-101q-9 -28 -10.5 -63.5t1.5 -82t3 -61.5q0 -34 3 -99t3 -82q61 -20 163 -20q17 8 19 29t3.5 42.5t18.5 29.5q14 0 23.5 -9t12.5 -27
t4 -30.5t1 -34.5q0 -19 -41 -62h-103q-204 0 -326 21v41h82q9 54 9 110t-4.5 125t-4.5 111v41v205v81v183h-82v41q42 11 123.5 21t121.5 20h204q21 -20 21 -41q0 -10 5 -35.5t6 -41.5t-11 -30.5t-41 -14.5z" />
    <glyph glyph-name="edieresis" unicode="&#xeb;" horiz-adv-x="520" 
d="M217 810q-26 -9 -46 22t-2 49q13 12 48 12q11 0 27 -15.5t7 -31.5q0 -18 -34 -36zM350 810q-26 -9 -46 22t-2 49q13 12 48 12q12 0 27.5 -15.5t6.5 -31.5q0 -18 -34 -36zM450 587q-10 11 -10 41t-11 40q-20 11 -41 21q-101 0 -142 -21q-4 -4 -7.5 -8.5t-5.5 -11.5t-3 -11
t-1.5 -14.5t-0.5 -14.5v-18v-18q0 -31 -1.5 -70t-1.5 -57q0 -22 4.5 -53t4.5 -52t-9 -39q21 -19 122 -19q0 60 21 60q15 0 20 -2.5t21 -17.5q-11 -24 -6 -60.5t4 -70t-19 -33.5q-41 21 -41 41v21h-101q-9 -28 -10.5 -63.5t1.5 -82t3 -61.5q0 -34 3 -99t3 -82q61 -20 163 -20
q17 8 19 29t3.5 42.5t18.5 29.5q14 0 23.5 -9t12.5 -27t4 -30.5t1 -34.5q0 -19 -41 -62h-103q-204 0 -326 21v41h82q9 54 9 110t-4.5 125t-4.5 111v41v205v81v183h-82v41q42 11 123.5 21t121.5 20h204q21 -20 21 -41q0 -10 5 -35.5t6 -41.5t-11 -30.5t-41 -14.5z" />
    <glyph glyph-name="igrave" unicode="&#xec;" horiz-adv-x="280" 
d="M58 950q15 14 31 -2q6 3 7.5 2t5 -9t6.5 -11q66 -38 81 -94q-1 -27 -19 -46q-25 6 -52 48t-49 55q-33 33 -11 57zM211 675q-10 -39 -9 -61t5.5 -62t3.5 -62q-2 -63 -8 -199t-9.5 -247t-3.5 -212q11 -11 31.5 -21t29.5 -19q0 -9 -5 -14.5t-16 -12.5t-19 -15
q-21 10 -87.5 10t-97.5 11q-21 21 0 40q0 11 15 11t25 10q9 9 9 24t-4.5 33.5t-4.5 24.5q0 32 1.5 90.5t1.5 88.5q-3 27 -3 48v185v349q-13 0 -19.5 0.5t-13.5 5.5t-7 15v41q0 9 6 9t22.5 -4.5t32.5 -4.5q13 0 49.5 4.5t66.5 4.5t48 -9q17 -16 3 -39t-43 -23z" />
    <glyph glyph-name="iacute" unicode="&#xed;" horiz-adv-x="280" 
d="M228 948q10 -11 -4.5 -30.5t-14.5 -26.5q-23 -13 -45.5 -55t-47.5 -48q-18 19 -19 46q9 34 23.5 54t47.5 40q3 3 6.5 11t5 9t7.5 -2q7 7 20.5 7.5t20.5 -5.5zM211 675q-10 -39 -9 -61t5.5 -62t3.5 -62q-2 -63 -8 -199t-9.5 -247t-3.5 -212q11 -11 31.5 -21t29.5 -19
q0 -9 -5 -14.5t-16 -12.5t-19 -15q-21 10 -87.5 10t-97.5 11q-21 21 0 40q0 11 15 11t25 10q9 9 9 24t-4.5 33.5t-4.5 24.5q0 32 1.5 90.5t1.5 88.5q-3 27 -3 48v185v349q-13 0 -19.5 0.5t-13.5 5.5t-7 15v41q0 9 6 9t22.5 -4.5t32.5 -4.5q13 0 49.5 4.5t66.5 4.5t48 -9
q17 -16 3 -39t-43 -23z" />
    <glyph glyph-name="icircumflex" unicode="&#xee;" horiz-adv-x="280" 
d="M273 808q-16 -21 -29 -12q-5 -4 -7 -3t-6.5 8t-7.5 9q-9 3 -17.5 8.5t-14.5 10t-13.5 12.5l-11 12l-11 12.5t-8.5 10.5l-5 -6q-5 -7 -6 -8.5t-6 -8t-7.5 -8.5t-7.5 -7.5t-8.5 -8l-9 -6.5t-10.5 -7t-11 -5l-20 -17q-9 -5 -19 -0.5t-17 12.5q-8 12 8.5 28.5t17.5 23.5
q23 9 50.5 42t43.5 40l1 1h2q6 2 10 2l4 -6q15 -6 40 -37.5t49 -40.5l13 -10t10 -9t7.5 -10t1 -10t-4.5 -12zM211 675q-10 -39 -9 -61t5.5 -62t3.5 -62q-2 -63 -8 -199t-9.5 -247t-3.5 -212q11 -11 31.5 -21t29.5 -19q0 -9 -5 -14.5t-16 -12.5t-19 -15q-21 10 -87.5 10
t-97.5 11q-21 21 0 40q0 11 15 11t25 10q9 9 9 24t-4.5 33.5t-4.5 24.5q0 32 1.5 90.5t1.5 88.5q-3 27 -3 48v185v349q-13 0 -19.5 0.5t-13.5 5.5t-7 15v41q0 9 6 9t22.5 -4.5t32.5 -4.5q13 0 49.5 4.5t66.5 4.5t48 -9q17 -16 3 -39t-43 -23z" />
    <glyph glyph-name="idieresis" unicode="&#xef;" horiz-adv-x="280" 
d="M86 810q-26 -9 -46 22t-2 49q13 12 48 12q12 0 27.5 -15.5t6.5 -31.5q0 -18 -34 -36zM219 810q-26 -9 -46 22t-2 49q13 12 48 12q11 0 27 -15.5t7 -31.5q0 -18 -34 -36zM211 675q-10 -39 -9 -61t5.5 -62t3.5 -62q-2 -63 -8 -199t-9.5 -247t-3.5 -212q11 -11 31.5 -21
t29.5 -19q0 -9 -5 -14.5t-16 -12.5t-19 -15q-21 10 -87.5 10t-97.5 11q-21 21 0 40q0 11 15 11t25 10q9 9 9 24t-4.5 33.5t-4.5 24.5q0 32 1.5 90.5t1.5 88.5q-3 27 -3 48v185v349q-13 0 -19.5 0.5t-13.5 5.5t-7 15v41q0 9 6 9t22.5 -4.5t32.5 -4.5q13 0 49.5 4.5t66.5 4.5
t48 -9q17 -16 3 -39t-43 -23z" />
    <glyph glyph-name="eth" unicode="&#xf0;" horiz-adv-x="617" 
d="M576 385q1 -4 3 -20.5t2.5 -22.5t2.5 -21.5t2.5 -23t1 -22.5t0.5 -24t-0.5 -23t-2 -25t-4 -24.5t-5.5 -25.5q0 -37 -11 -76.5t-21 -64.5t-38 -68t-36.5 -55l-41.5 -56q-8 -4 -40 -23.5t-62 -29.5t-69 -10h-41q-43 -21 -149 -21q-43 41 -43 64h84q11 0 22 10t21 10v235
q0 58 -14 175q-23 0 -47 5q-22 18 -22 53h63l-1 22q0 170 -22 233v86q-12 0 -30 -5.5t-28 -8t-18 5t-8 30.5q0 9 5.5 14t17.5 12t20 15l21 22q42 21 128 21q14 0 32.5 1.5t35.5 1.5t40 -4q1 1 3 1.5t7 1t9 -1.5q11 -11 42.5 -32.5t42.5 -31.5q20 -9 37 -28t26 -35t22 -43
q52 -107 63 -193zM428 153q0 13 4.5 46t4.5 64.5t-9 59.5v64q-5 25 -13.5 76.5t-14 79.5t-20.5 63t-37 58q-14 14 -31 17t-55 3q-7 -7 -10.5 -22t-3.5 -26.5t0.5 -32.5t0.5 -25q0 -34 2.5 -82t2.5 -67q0 -21 3 -57.5t4 -53.5h36q7 -6 26 -12.5t30.5 -15t11.5 -24.5
q0 -12 -23 -16t-45 -2l-35 4v-184q0 -22 11 -64.5t11 -62.5q0 -16 -5 -35t-5 -30.5t10 -20.5q11 0 32 10.5t32 10.5q0 10 5.5 15.5t11.5 6.5h5q9 0 14 5t5 11l1 5q20 29 30 72.5t11.5 74t1.5 87.5z" />
    <glyph glyph-name="ntilde" unicode="&#xf1;" horiz-adv-x="647" 
d="M428 906q20 -7 29 -42q-8 -22 -51 -59q-12 -5 -29 0.5t-30 17.5q-2 3 -32 20t-34 20q-10 4 -24.5 -3t-22.5 -19l-11 -26q-16 -12 -33 1.5t-9 30.5q9 26 18 36q29 31 36 36q3 0 16 1.5t19.5 1.5h17t18 -2.5t13.5 -7.5l7 -6l27 -20q26 -16 38 -18q8 3 17.5 19.5t19.5 18.5z
M624 736q0 -9 -5 -19t-10 -15l-5 -6h-41q-9 -9 -9 -19.5t4.5 -28.5t4.5 -33q0 -16 -0.5 -150t0 -178.5t2 -148.5t5 -183.5t9.5 -159.5q1 -28 -18 -38.5t-41 -6t-33 15.5l-44 131l-58.5 175.5t-42.5 140.5q-9 32 -47 119l-13 32q-4 8 -13 52t-33 56v-140v-160v-161v-60v-100
q20 -20 59 -20q0 -10 1.5 -24t2 -22.5t-1 -17t-7.5 -12.5t-17 -4q-25 -1 -45 -1q-10 0 -67 -1.5t-67 -1.5q-6 0 -9 4t-3.5 12t-0.5 16.5t1 22t1 23.5q33 -14 33 6q9 18 10.5 41.5t-1 56.5t-2.5 42q0 32 -3.5 97t-3.5 83q0 20 -0.5 69t-0.5 72q0 22 -4 60t-4 58q0 10 -5.5 31
t-5.5 31v20v61q0 9 -1 22.5t-1 28.5t-9 37.5t-9 31.5q-29 0 -45 12t-16 28q0 15 10 26t25 11q11 0 21.5 1.5t24.5 2.5q10 1 30.5 -1.5t34.5 -2.5q12 0 21 -9t12 -19l2 -9q36 -54 65 -116t64.5 -155.5t50.5 -129.5q21 -63 61 -140q0 -22 17 -62l10.5 -32.5t18 -53t18.5 -38.5
q3 -5 3 12q0 14 -4 65q-4 53 -4 68q0 48 4 164.5t4 179.5v20q0 31 -10 81t-10 80q-40 40 -61 40q-4 4 -13.5 11.5t-12 11.5t-2 13.5t7.5 24.5q9 0 14.5 -3t21.5 -3q13 0 24.5 1.5t16.5 3.5l4 1q25 -6 51.5 -1.5t53 1.5t35.5 -21z" />
    <glyph glyph-name="ograve" unicode="&#xf2;" horiz-adv-x="614" 
d="M203 950q15 14 31 -2q6 3 7.5 2t5 -9t6.5 -11q66 -38 81 -94q-1 -27 -19 -46q-25 6 -52 48t-49 55q-33 33 -11 57zM487 -154q-23 -41 -56 -61q-67 -42 -132.5 -37t-116.5 37.5t-77 81.5q-37 70 -62 144q-20 80 -20 244q0 14 -2 36t-2 42.5t4 44.5q11 62 11 78q3 13 7 40
t9 42t14 24q12 16 34.5 51t38 55.5t41 43.5t58.5 31t74 2q60 0 95.5 -18t66.5 -64q47 -31 79.5 -96t39.5 -143q4 -41 4 -108v-26.5v-29.5t-0.5 -28.5t-1.5 -32.5t-3 -31t-5 -35t-7 -34q-30 -142 -91 -253zM398 -140q36 90 54 170q20 61 20 184q0 21 3.5 52.5t3.5 51.5
t-3.5 60t-3.5 61q-10 20 -20 61t-21 62q-3 5 -14.5 31t-17.5 37.5t-19.5 27t-27.5 22.5q-19 0 -40.5 2t-42.5 2q-53 -53 -82 -142q-21 -41 -21 -123q-23 -193 21 -449q8 -16 18.5 -53.5t22.5 -49.5q11 0 14.5 -13.5t8.5 -18.5q23 -23 79.5 -13.5t67.5 38.5z" />
    <glyph glyph-name="oacute" unicode="&#xf3;" horiz-adv-x="614" 
d="M373 948q10 -11 -4.5 -30.5t-14.5 -26.5q-23 -13 -45.5 -55t-47.5 -48q-18 19 -19 46q9 34 23.5 54t47.5 40q3 3 6.5 11t5 9t7.5 -2q7 7 20.5 7.5t20.5 -5.5zM487 -154q-23 -41 -56 -61q-67 -42 -132.5 -37t-116.5 37.5t-77 81.5q-37 70 -62 144q-20 80 -20 244
q0 14 -2 36t-2 42.5t4 44.5q11 62 11 78q3 13 7 40t9 42t14 24q12 16 34.5 51t38 55.5t41 43.5t58.5 31t74 2q60 0 95.5 -18t66.5 -64q47 -31 79.5 -96t39.5 -143q4 -41 4 -108v-26.5v-29.5t-0.5 -28.5t-1.5 -32.5t-3 -31t-5 -35t-7 -34q-30 -142 -91 -253zM398 -140
q36 90 54 170q20 61 20 184q0 21 3.5 52.5t3.5 51.5t-3.5 60t-3.5 61q-10 20 -20 61t-21 62q-3 5 -14.5 31t-17.5 37.5t-19.5 27t-27.5 22.5q-19 0 -40.5 2t-42.5 2q-53 -53 -82 -142q-21 -41 -21 -123q-23 -193 21 -449q8 -16 18.5 -53.5t22.5 -49.5q11 0 14.5 -13.5
t8.5 -18.5q23 -23 79.5 -13.5t67.5 38.5z" />
    <glyph glyph-name="ocircumflex" unicode="&#xf4;" horiz-adv-x="614" 
d="M418 808q-16 -21 -29 -12q-5 -4 -7 -3t-6.5 8t-7.5 9q-9 3 -17.5 8.5t-14.5 10t-13.5 12.5l-11 11.5t-11 12.5t-8.5 11l-5 -6q-5 -7 -6 -8.5t-6 -8t-7.5 -8.5t-7.5 -7.5t-8.5 -8l-9 -6.5t-10.5 -7t-11 -5l-20 -17q-9 -5 -19 -0.5t-17 12.5q-8 12 8.5 28.5t17.5 23.5
q23 9 50.5 42t43.5 40l1 1h2q6 2 10 2l4 -6q15 -6 40 -37.5t49 -40.5l13 -10t10 -9t7.5 -10t1 -10t-4.5 -12zM487 -154q-23 -41 -56 -61q-67 -42 -132.5 -37t-116.5 37.5t-77 81.5q-37 70 -62 144q-20 80 -20 244q0 14 -2 36t-2 42.5t4 44.5q11 62 11 78q3 13 7 40t9 42
t14 24q12 16 34.5 51t38 55.5t41 43.5t58.5 31t74 2q60 0 95.5 -18t66.5 -64q47 -31 79.5 -96t39.5 -143q4 -41 4 -108v-26.5v-29.5t-0.5 -28.5t-1.5 -32.5t-3 -31t-5 -35t-7 -34q-30 -142 -91 -253zM398 -140q36 90 54 170q20 61 20 184q0 21 3.5 52.5t3.5 51.5t-3.5 60
t-3.5 61q-10 20 -20 61t-21 62q-3 5 -14.5 31t-17.5 37.5t-19.5 27t-27.5 22.5q-19 0 -40.5 2t-42.5 2q-53 -53 -82 -142q-21 -41 -21 -123q-23 -193 21 -449q8 -16 18.5 -53.5t22.5 -49.5q11 0 14.5 -13.5t8.5 -18.5q23 -23 79.5 -13.5t67.5 38.5z" />
    <glyph glyph-name="otilde" unicode="&#xf5;" horiz-adv-x="614" 
d="M403 906q20 -7 29 -42q-8 -22 -51 -59q-12 -5 -29 0.5t-30 17.5q-2 3 -32 20t-34 20q-10 4 -24.5 -3t-22.5 -19l-11 -26q-16 -12 -33 1.5t-9 30.5q9 26 18 36q29 31 36 36q3 0 16 1.5t19.5 1.5h17t18 -2.5t13.5 -7.5l7 -6l27 -20q26 -16 38 -18q8 3 17.5 19.5t19.5 18.5z
M487 -154q-23 -41 -56 -61q-67 -42 -132.5 -37t-116.5 37.5t-77 81.5q-37 70 -62 144q-20 80 -20 244q0 14 -2 36t-2 42.5t4 44.5q11 62 11 78q3 13 7 40t9 42t14 24q12 16 34.5 51t38 55.5t41 43.5t58.5 31t74 2q60 0 95.5 -18t66.5 -64q47 -31 79.5 -96t39.5 -143
q4 -41 4 -108v-26.5v-29.5t-0.5 -28.5t-1.5 -32.5t-3 -31t-5 -35t-7 -34q-30 -142 -91 -253zM398 -140q36 90 54 170q20 61 20 184q0 21 3.5 52.5t3.5 51.5t-3.5 60t-3.5 61q-10 20 -20 61t-21 62q-3 5 -14.5 31t-17.5 37.5t-19.5 27t-27.5 22.5q-19 0 -40.5 2t-42.5 2
q-53 -53 -82 -142q-21 -41 -21 -123q-23 -193 21 -449q8 -16 18.5 -53.5t22.5 -49.5q11 0 14.5 -13.5t8.5 -18.5q23 -23 79.5 -13.5t67.5 38.5z" />
    <glyph glyph-name="odieresis" unicode="&#xf6;" horiz-adv-x="614" 
d="M231 810q-26 -9 -46 22t-2 49q13 12 48 12q11 0 27 -15.5t7 -31.5q0 -18 -34 -36zM364 810q-26 -9 -46 22t-2 49q13 12 48 12q12 0 27.5 -15.5t6.5 -31.5q0 -18 -34 -36zM487 -154q-23 -41 -56 -61q-67 -42 -132.5 -37t-116.5 37.5t-77 81.5q-37 70 -62 144
q-20 80 -20 244q0 14 -2 36t-2 42.5t4 44.5q11 62 11 78q3 13 7 40t9 42t14 24q12 16 34.5 51t38 55.5t41 43.5t58.5 31t74 2q60 0 95.5 -18t66.5 -64q47 -31 79.5 -96t39.5 -143q4 -41 4 -108v-26.5v-29.5t-0.5 -28.5t-1.5 -32.5t-3 -31t-5 -35t-7 -34q-30 -142 -91 -253z
M398 -140q36 90 54 170q20 61 20 184q0 21 3.5 52.5t3.5 51.5t-3.5 60t-3.5 61q-10 20 -20 61t-21 62q-3 5 -14.5 31t-17.5 37.5t-19.5 27t-27.5 22.5q-19 0 -40.5 2t-42.5 2q-53 -53 -82 -142q-21 -41 -21 -123q-23 -193 21 -449q8 -16 18.5 -53.5t22.5 -49.5
q11 0 14.5 -13.5t8.5 -18.5q23 -23 79.5 -13.5t67.5 38.5z" />
    <glyph glyph-name="divide" unicode="&#xf7;" horiz-adv-x="499" 
d="M250 385q-31 -10 -55 27.5t-2 59.5q15 14 57 14q14 0 32.5 -19t9.5 -38q0 -21 -42 -44zM379 237q-64 10 -164 1.5t-145 1.5q-17 14 -21 25t-4 30h125q62 16 209 16q9 -7 29.5 -12t33 -13.5t12.5 -25.5q0 -8 -13 -9.5t-32.5 -3.5t-29.5 -10zM250 66q-31 -10 -55 27.5
t-2 59.5q15 14 57 14q14 0 32.5 -19t9.5 -38q0 -22 -42 -44z" />
    <glyph glyph-name="oslash" unicode="&#xf8;" horiz-adv-x="614" 
d="M595 316v-26.5v-29.5t-0.5 -28.5t-1.5 -32.5t-3 -31t-5 -35t-7 -34q-30 -142 -91 -253q-23 -41 -56 -61q-55 -35 -115 -37t-107 21t-80 62l-7 -6l-26 -52q-12 -19 -19.5 -29t-17.5 -18t-17 0t-12 31q2 24 11.5 43.5t28.5 44t27 38.5q-31 60 -54 128q-20 80 -20 244
q0 14 -2 36t-2 42.5t4 44.5q11 62 11 78q3 13 7 40t9 42t14 24q12 16 34.5 51t38 55.5t41 43.5t58.5 31t74 2q60 0 95.5 -18t66.5 -64l2 -1l6.5 9.5t6.5 10.5q2 32 17.5 57.5t31.5 22.5q15 -3 25.5 -25.5t8.5 -40.5q-2 -20 -41 -90q52 -77 62 -182q4 -41 4 -108zM166 419
q-19 -159 7 -357q96 146 128 252q17 32 126 257q-2 5 -9 20l-10.5 22t-10.5 19.5t-13 20t-14.5 15t-17.5 12.5q-19 0 -40.5 2t-42.5 2q-53 -53 -82 -142q-21 -41 -21 -123zM472 214q0 21 3.5 52.5t3.5 51.5t-3.5 60t-3.5 61q-4 8 -11 28l-45 -95l-52.5 -110.5t-33.5 -77.5
q-16 -13 -32.5 -38t-18.5 -39q-11 -10 -24.5 -41t-25.5 -41q-1 -15 -35 -72q4 -12 10 -32.5t11 -33t13 -20.5q11 0 14.5 -13.5t8.5 -18.5q23 -23 79.5 -13.5t67.5 38.5q36 90 54 170q20 61 20 184z" />
    <glyph glyph-name="ugrave" unicode="&#xf9;" horiz-adv-x="598" 
d="M194 950q15 14 31 -2q6 3 7.5 2t5 -9t6.5 -11q66 -38 81 -94q-1 -27 -19 -46q-25 6 -52 48t-49 55q-33 33 -11 57zM221 -105q61 -61 113 -24q26 19 42 53t21.5 85t6.5 75.5t1 75.5v305q0 29 4.5 76.5t4.5 78t-9 48.5q-9 10 -19 15.5t-16 6.5h-5q0 5 -14 37q-7 18 5 18
q18 0 71.5 3t78.5 2q35 -1 55 -13.5t18.5 -26.5t-10.5 -24q-25 -20 -31 -66t-5.5 -112t-6.5 -103v-203v-22q0 -99 -12.5 -170t-47.5 -135q-66 -122 -163 -122q-7 0 -16 -1t-32 -1q-77 11 -135 104q-19 32 -26 96.5t-14 86.5v509q0 1 2 59t-2 62q-1 10 -11 17t-21.5 10.5
t-20.5 12.5t-9 22q6 6 12 9.5t15 5.5t14.5 2.5t19.5 1t21 1.5q27 5 67 3t58 -20t-24 -65v-121v-184q0 -45 0.5 -109.5t0.5 -83.5q0 -197 19 -275z" />
    <glyph glyph-name="uacute" unicode="&#xfa;" horiz-adv-x="598" 
d="M364 948q10 -11 -4.5 -30.5t-14.5 -26.5q-23 -13 -45.5 -55t-47.5 -48q-18 19 -19 46q9 34 23.5 54t47.5 40q3 3 6.5 11t5 9t7.5 -2q7 7 20.5 7.5t20.5 -5.5zM221 -105q61 -61 113 -24q26 19 42 53t21.5 85t6.5 75.5t1 75.5v305q0 29 4.5 76.5t4.5 78t-9 48.5
q-9 10 -19 15.5t-16 6.5h-5q0 5 -14 37q-7 18 5 18q18 0 71.5 3t78.5 2q35 -1 55 -13.5t18.5 -26.5t-10.5 -24q-25 -20 -31 -66t-5.5 -112t-6.5 -103v-203v-22q0 -99 -12.5 -170t-47.5 -135q-66 -122 -163 -122q-7 0 -16 -1t-32 -1q-77 11 -135 104q-19 32 -26 96.5
t-14 86.5v509q0 1 2 59t-2 62q-1 10 -11 17t-21.5 10.5t-20.5 12.5t-9 22q6 6 12 9.5t15 5.5t14.5 2.5t19.5 1t21 1.5q27 5 67 3t58 -20t-24 -65v-121v-184q0 -45 0.5 -109.5t0.5 -83.5q0 -197 19 -275z" />
    <glyph glyph-name="ucircumflex" unicode="&#xfb;" horiz-adv-x="598" 
d="M409 808q-16 -21 -29 -12q-5 -4 -7 -3t-6.5 8t-7.5 9q-9 3 -17.5 8.5t-14.5 10t-13.5 12.5l-11 11.5t-11 12.5t-8.5 11l-5 -6q-5 -7 -6 -8.5t-6 -8t-7.5 -8.5t-7.5 -7.5t-8.5 -8l-9 -6.5t-10.5 -7t-11 -5l-20 -17q-9 -5 -19 -0.5t-17 12.5q-8 12 8.5 28.5t17.5 23.5
q23 9 50.5 42t43.5 40l1 1h2q6 2 10 2l4 -6q15 -6 40 -37.5t49 -40.5l13 -10t10 -9t7.5 -10t1 -10t-4.5 -12zM221 -105q61 -61 113 -24q26 19 42 53t21.5 85t6.5 75.5t1 75.5v305q0 29 4.5 76.5t4.5 78t-9 48.5q-9 10 -19 15.5t-16 6.5h-5q0 5 -14 37q-7 18 5 18
q18 0 71.5 3t78.5 2q35 -1 55 -13.5t18.5 -26.5t-10.5 -24q-25 -20 -31 -66t-5.5 -112t-6.5 -103v-203v-22q0 -99 -12.5 -170t-47.5 -135q-66 -122 -163 -122q-7 0 -16 -1t-32 -1q-77 11 -135 104q-19 32 -26 96.5t-14 86.5v509q0 1 2 59t-2 62q-1 10 -11 17t-21.5 10.5
t-20.5 12.5t-9 22q6 6 12 9.5t15 5.5t14.5 2.5t19.5 1t21 1.5q27 5 67 3t58 -20t-24 -65v-121v-184q0 -45 0.5 -109.5t0.5 -83.5q0 -197 19 -275z" />
    <glyph glyph-name="udieresis" unicode="&#xfc;" horiz-adv-x="598" 
d="M222 810q-26 -9 -46 22t-2 49q13 12 48 12q12 0 27.5 -15.5t6.5 -31.5q0 -18 -34 -36zM355 810q-26 -9 -46 22t-2 49q13 12 48 12q11 0 27 -15.5t7 -31.5q0 -18 -34 -36zM221 -105q61 -61 113 -24q26 19 42 53t21.5 85t6.5 75.5t1 75.5v305q0 29 4.5 76.5t4.5 78t-9 48.5
q-9 10 -19 15.5t-16 6.5h-5q0 5 -14 37q-7 18 5 18q18 0 71.5 3t78.5 2q35 -1 55 -13.5t18.5 -26.5t-10.5 -24q-25 -20 -31 -66t-5.5 -112t-6.5 -103v-203v-22q0 -99 -12.5 -170t-47.5 -135q-66 -122 -163 -122q-7 0 -16 -1t-32 -1q-77 11 -135 104q-19 32 -26 96.5
t-14 86.5v509q0 1 2 59t-2 62q-1 10 -11 17t-21.5 10.5t-20.5 12.5t-9 22q6 6 12 9.5t15 5.5t14.5 2.5t19.5 1t21 1.5q27 5 67 3t58 -20t-24 -65v-121v-184q0 -45 0.5 -109.5t0.5 -83.5q0 -197 19 -275z" />
    <glyph glyph-name="yacute" unicode="&#xfd;" horiz-adv-x="607" 
d="M388 948q10 -11 -4.5 -30.5t-14.5 -26.5q-23 -13 -45.5 -55t-47.5 -48q-18 19 -19 46q9 34 23.5 54t47.5 40q3 3 6.5 11t5 9t7.5 -2q7 7 20.5 7.5t20.5 -5.5zM588 742q0 -57 -18 -57h-59q-9 -26 -46 -161.5t-68 -201.5q-13 -14 -18.5 -30.5t-6 -29.5t1.5 -42.5t2 -49.5
q-6 -18 -5.5 -33t4 -43.5t3.5 -38.5q0 -18 -2 -60.5t-2.5 -69.5t5 -56.5t18.5 -42.5q52 2 52 -17q17 -52 -3 -57q-29 -7 -60 -7.5t-62 2.5t-41 3h-96q-26 28 0 57q10 9 39 9t38 10q0 19 1 77.5t0.5 89t-2.5 84.5t-8.5 89t-16.5 75.5t-27.5 70t-41.5 49.5q-13 38 -57 134
q-39 117 -39 190q-57 0 -57 18q-2 22 6.5 34t25.5 14.5t33 2t37 -3.5t30 -3q18 0 57.5 -2.5t58.5 -2.5q19 -19 19 -57q-5 0 -22 3t-30.5 1.5t-21.5 -9.5q3 -12 8 -76q1 -18 5 -40t4 -32q15 -58 41 -110.5t54 -80.5q18 9 28 25.5t21.5 49t19.5 48.5q45 93 47 202
q0 14 -34 25.5t-43 31.5q0 17 25.5 21.5t82.5 1t63 -3.5q7 0 18.5 4.5t21 4.5t17.5 -9z" />
    <glyph glyph-name="thorn" unicode="&#xfe;" horiz-adv-x="544" 
d="M345 571q58 -9 104 -77.5t63 -153.5q0 -125 -21 -168q-7 -22 -23 -44.5t-30 -36t-39 -35t-34 -30.5q-20 -10 -44.5 -15t-43 -6t-58.5 -1q-2 0 -5.5 -0.5t-9.5 -6t-6 -14.5v-38h-2q0 -19 -0.5 -56.5t-0.5 -56.5q11 -11 31.5 -21t29.5 -19q0 -9 -5 -14.5t-16 -12.5t-19 -15
q-21 10 -87.5 10t-97.5 11q-21 21 0 40q0 11 15 11t25 10q9 9 9 24t-4.5 33.5t-4.5 24.5v23h-1l-1 111q0 7 1 22v43q-1 5 3 71t5 72q0 57 -4 143t-5 167q2 37 2 109q-13 0 -19.5 0.5t-13.5 5.5t-7 15v41q0 9 6 9t22.5 -4.5t32.5 -4.5q13 0 49.5 4.5t66.5 4.5t48 -9
q17 -16 3 -39t-43 -23q-12 -37 -6 -103l92 -1q5 0 17.5 2t25.5 -2zM365 193q2 7 5 19.5t4 15.5t2.5 12t2 13.5t1 14.5t0.5 20.5v26.5q0 97 -35 169q-9 0 -35 12t-49 12h-43q0 -28 -4 -86q-2 -49 -7 -161.5t-7 -173.5q16 -14 41.5 -17t37.5 6q30 19 54 51.5t32 65.5z" />
    <glyph glyph-name="ydieresis" unicode="&#xff;" horiz-adv-x="607" 
d="M246 810q-26 -9 -46 22t-2 49q13 12 48 12q12 0 27.5 -15.5t6.5 -31.5q0 -18 -34 -36zM379 810q-26 -9 -46 22t-2 49q13 12 48 12q11 0 27 -15.5t7 -31.5q0 -18 -34 -36zM588 742q0 -57 -18 -57h-59q-9 -26 -46 -161.5t-68 -201.5q-13 -14 -18.5 -30.5t-6 -29.5
t1.5 -42.5t2 -49.5q-6 -18 -5.5 -33t4 -43.5t3.5 -38.5q0 -18 -2 -60.5t-2.5 -69.5t5 -56.5t18.5 -42.5q52 2 52 -17q17 -52 -3 -57q-29 -7 -60 -7.5t-62 2.5t-41 3h-96q-26 28 0 57q10 9 39 9t38 10q0 19 1 77.5t0.5 89t-2.5 84.5t-8.5 89t-16.5 75.5t-27.5 70t-41.5 49.5
q-13 38 -57 134q-39 117 -39 190q-57 0 -57 18q-2 22 6.5 34t25.5 14.5t33 2t37 -3.5t30 -3q18 0 57.5 -2.5t58.5 -2.5q19 -19 19 -57q-5 0 -22 3t-30.5 1.5t-21.5 -9.5q3 -12 8 -76q1 -18 5 -40t4 -32q15 -58 41 -110.5t54 -80.5q18 9 28 25.5t21.5 49t19.5 48.5
q45 93 47 202q0 14 -34 25.5t-43 31.5q0 17 25.5 21.5t82.5 1t63 -3.5q7 0 18.5 4.5t21 4.5t17.5 -9z" />
    <glyph glyph-name="Amacron" unicode="&#x100;" 
d="M434 824q-153 -9 -199 0q-30 19 -15 50h175q13 3 49 10q40 -30 -10 -60zM407 -168q0 275 -22 381q-17 0 -74.5 10.5t-91.5 10.5q-22 -21 -22 -108q-23 -84 -23 -295q11 -9 32.5 -9t31.5 -10l-3 -42q-28 -19 -63 -20t-61 4.5t-61 -6.5l-44 42q37 41 63 41q10 0 15.5 7
t6 14t0.5 22q11 71 32.5 238.5l29.5 226.5q0 86 44 168q24 93 104 211l5 5t13 9.5t19.5 10t22.5 3.5t24 -6q32 -16 60 -65t28 -83q24 -49 32 -113q11 -92 26 -278t23 -263v-128q0 -6 10 -19t10 -24t-20 -20l-26 6q-21 0 -60 -3t-61 -3q-4 0 -14 -1.5t-15.5 -2t-12.5 0
t-10.5 3.5t-3.5 8q0 18 20 47.5t36 29.5zM301 614q-44 -138 -63 -212q0 -9 -9.5 -51.5t-9.5 -55.5q62 -19 166 -19v126q0 99 -40 212q0 2 -0.5 5.5t-6 9.5t-15.5 6z" />
    <glyph glyph-name="amacron" unicode="&#x101;" 
d="M434 824q-153 -9 -199 0q-30 19 -15 50h175q13 3 49 10q40 -30 -10 -60zM407 -168q0 275 -22 381q-17 0 -74.5 10.5t-91.5 10.5q-22 -21 -22 -108q-23 -84 -23 -295q11 -9 32.5 -9t31.5 -10l-3 -42q-28 -19 -63 -20t-61 4.5t-61 -6.5l-44 42q37 41 63 41q10 0 15.5 7
t6 14t0.5 22q11 71 32.5 238.5l29.5 226.5q0 86 44 168q24 93 104 211l5 5t13 9.5t19.5 10t22.5 3.5t24 -6q32 -16 60 -65t28 -83q24 -49 32 -113q11 -92 26 -278t23 -263v-128q0 -6 10 -19t10 -24t-20 -20l-26 6q-21 0 -60 -3t-61 -3q-4 0 -14 -1.5t-15.5 -2t-12.5 0
t-10.5 3.5t-3.5 8q0 18 20 47.5t36 29.5zM301 614q-44 -138 -63 -212q0 -9 -9.5 -51.5t-9.5 -55.5q62 -19 166 -19v126q0 99 -40 212q0 2 -0.5 5.5t-6 9.5t-15.5 6z" />
    <glyph glyph-name="Abreve" unicode="&#x102;" 
d="M259 937q33 -61 68 -73q57 -4 105 41q1 1 3 5t2.5 5.5t2.5 5t3 5t3 4t4 4t4 2.5t5 2l14.5 -5t17 -9t9.5 -17q-14 -27 -37 -49l-14 -17q-66 -43 -135 -32q-30 5 -57 35.5t-42 62.5q8 20 20 29.5t24 0.5zM407 -168q0 275 -22 381q-17 0 -74.5 10.5t-91.5 10.5
q-22 -21 -22 -108q-23 -84 -23 -295q11 -9 32.5 -9t31.5 -10l-3 -42q-28 -19 -63 -20t-61 4.5t-61 -6.5l-44 42q37 41 63 41q10 0 15.5 7t6 14t0.5 22q11 71 32.5 238.5l29.5 226.5q0 86 44 168q24 93 104 211l5 5t13 9.5t19.5 10t22.5 3.5t24 -6q32 -16 60 -65t28 -83
q24 -49 32 -113q11 -92 26 -278t23 -263v-128q0 -6 10 -19t10 -24t-20 -20l-26 6q-21 0 -60 -3t-61 -3q-4 0 -14 -1.5t-15.5 -2t-12.5 0t-10.5 3.5t-3.5 8q0 18 20 47.5t36 29.5zM301 614q-44 -138 -63 -212q0 -9 -9.5 -51.5t-9.5 -55.5q62 -19 166 -19v126q0 99 -40 212
q0 2 -0.5 5.5t-6 9.5t-15.5 6z" />
    <glyph glyph-name="abreve" unicode="&#x103;" 
d="M259 937q33 -61 68 -73q57 -4 105 41q1 1 3 5t2.5 5.5t2.5 5t3 5t3 4t4 4t4 2.5t5 2l14.5 -5t17 -9t9.5 -17q-14 -27 -37 -49l-14 -17q-66 -43 -135 -32q-30 5 -57 35.5t-42 62.5q8 20 20 29.5t24 0.5zM407 -168q0 275 -22 381q-17 0 -74.5 10.5t-91.5 10.5
q-22 -21 -22 -108q-23 -84 -23 -295q11 -9 32.5 -9t31.5 -10l-3 -42q-28 -19 -63 -20t-61 4.5t-61 -6.5l-44 42q37 41 63 41q10 0 15.5 7t6 14t0.5 22q11 71 32.5 238.5l29.5 226.5q0 86 44 168q24 93 104 211l5 5t13 9.5t19.5 10t22.5 3.5t24 -6q32 -16 60 -65t28 -83
q24 -49 32 -113q11 -92 26 -278t23 -263v-128q0 -6 10 -19t10 -24t-20 -20l-26 6q-21 0 -60 -3t-61 -3q-4 0 -14 -1.5t-15.5 -2t-12.5 0t-10.5 3.5t-3.5 8q0 18 20 47.5t36 29.5zM301 614q-44 -138 -63 -212q0 -9 -9.5 -51.5t-9.5 -55.5q62 -19 166 -19v126q0 99 -40 212
q0 2 -0.5 5.5t-6 9.5t-15.5 6z" />
    <glyph glyph-name="Aogonek" unicode="&#x104;" horiz-adv-x="587" 
d="M554 -190q18 -41 2 -60q-23 -22 -49 -65.5t-22 -62.5q6 -24 11 -34.5t13 -9.5q17 4 35 10q11 3 18 -7.5t1 -26.5q-7 -13 -14 -17.5t-27 -9.5q-35 -8 -61.5 11.5t-35.5 62.5q-12 64 62 150q-8 0 -36 -2t-44 -2q-4 0 -14 -1.5t-15.5 -2t-12.5 0t-10.5 3.5t-3.5 8
q0 18 20 47.5t36 29.5q0 275 -22 381q-17 0 -74.5 10.5t-91.5 10.5q-22 -21 -22 -108q-23 -84 -23 -295q11 -9 32.5 -9t31.5 -10l-3 -42q-28 -19 -63 -20t-61 4.5t-61 -6.5l-44 42q37 41 63 41q10 0 15.5 7t6 14t0.5 22q11 71 32.5 238.5l29.5 226.5q0 86 44 168
q24 93 104 211l5 5t13 9.5t19.5 10t22.5 3.5t24 -6q32 -16 60 -65t28 -83q24 -49 32 -113q11 -92 26 -278t23 -263v-128zM385 402q0 99 -40 212q0 2 -0.5 5.5t-6 9.5t-15.5 6l-22 -21q-44 -138 -63 -212q0 -9 -9.5 -51.5t-9.5 -55.5q62 -19 166 -19v126z" />
    <glyph glyph-name="aogonek" unicode="&#x105;" horiz-adv-x="587" 
d="M554 -190q18 -41 2 -60q-23 -22 -49 -65.5t-22 -62.5q6 -24 11 -34.5t13 -9.5q17 4 35 10q11 3 18 -7.5t1 -26.5q-7 -13 -14 -17.5t-27 -9.5q-35 -8 -61.5 11.5t-35.5 62.5q-12 64 62 150q-8 0 -36 -2t-44 -2q-4 0 -14 -1.5t-15.5 -2t-12.5 0t-10.5 3.5t-3.5 8
q0 18 20 47.5t36 29.5q0 275 -22 381q-17 0 -74.5 10.5t-91.5 10.5q-22 -21 -22 -108q-23 -84 -23 -295q11 -9 32.5 -9t31.5 -10l-3 -42q-28 -19 -63 -20t-61 4.5t-61 -6.5l-44 42q37 41 63 41q10 0 15.5 7t6 14t0.5 22q11 71 32.5 238.5l29.5 226.5q0 86 44 168
q24 93 104 211l5 5t13 9.5t19.5 10t22.5 3.5t24 -6q32 -16 60 -65t28 -83q24 -49 32 -113q11 -92 26 -278t23 -263v-128zM385 402q0 99 -40 212q0 2 -0.5 5.5t-6 9.5t-15.5 6l-22 -21q-44 -138 -63 -212q0 -9 -9.5 -51.5t-9.5 -55.5q62 -19 166 -19v126z" />
    <glyph glyph-name="Cacute" unicode="&#x106;" horiz-adv-x="555" 
d="M420 948q10 -11 -4.5 -30.5t-14.5 -26.5q-23 -13 -45.5 -55t-47.5 -48q-18 19 -19 46q9 34 23.5 54t47.5 40q3 3 6.5 11t5 9t7.5 -2q7 7 20.5 7.5t20.5 -5.5zM495 688q0 -10 11 -20t11 -20q0 -104 -22 -104q-14 0 -21 13.5t-7.5 30.5t-3.5 35t-9 25q-101 32 -166 0
q-11 -11 -32 -52.5t-31 -51.5q0 -22 -20 -42q-10 -40 -15 -82t-6 -72.5t-1 -95.5v-124q46 -261 146 -313q15 -7 30.5 -8.5t32.5 4t29.5 11t32.5 15.5q10 20 10 72.5t10 73.5q24 0 40 -11t23 -11v-146q-8 -21 -26 -35t-36.5 -21t-49 -9t-51.5 -1.5t-57.5 6t-52 8.5l-49.5 10
q-7 1 -10 2q-12 12 -39.5 33.5t-47.5 42.5t-38 49q-5 24 -24 101t-29 136t-10 115q6 31 16.5 98.5t21 118.5t25.5 95q9 10 18 30.5t22 32.5q36 51 96.5 87.5t132.5 36.5q16 -5 42.5 -12t40 -11t31.5 -14.5t32 -25.5z" />
    <glyph glyph-name="cacute" unicode="&#x107;" horiz-adv-x="555" 
d="M420 948q10 -11 -4.5 -30.5t-14.5 -26.5q-23 -13 -45.5 -55t-47.5 -48q-18 19 -19 46q9 34 23.5 54t47.5 40q3 3 6.5 11t5 9t7.5 -2q7 7 20.5 7.5t20.5 -5.5zM495 688q0 -10 11 -20t11 -20q0 -104 -22 -104q-14 0 -21 13.5t-7.5 30.5t-3.5 35t-9 25q-101 32 -166 0
q-11 -11 -32 -52.5t-31 -51.5q0 -22 -20 -42q-10 -40 -15 -82t-6 -72.5t-1 -95.5v-124q46 -261 146 -313q15 -7 30.5 -8.5t32.5 4t29.5 11t32.5 15.5q10 20 10 72.5t10 73.5q24 0 40 -11t23 -11v-146q-8 -21 -26 -35t-36.5 -21t-49 -9t-51.5 -1.5t-57.5 6t-52 8.5l-49.5 10
q-7 1 -10 2q-12 12 -39.5 33.5t-47.5 42.5t-38 49q-5 24 -24 101t-29 136t-10 115q6 31 16.5 98.5t21 118.5t25.5 95q9 10 18 30.5t22 32.5q36 51 96.5 87.5t132.5 36.5q16 -5 42.5 -12t40 -11t31.5 -14.5t32 -25.5z" />
    <glyph glyph-name="Cdotaccent" unicode="&#x10a;" horiz-adv-x="555" 
d="M348 802q-31 -10 -55 26.5t-3 58.5q16 14 58 14q14 0 32.5 -18.5t7.5 -37.5q0 -22 -40 -43zM495 688q0 -10 11 -20t11 -20q0 -104 -22 -104q-14 0 -21 13.5t-7.5 30.5t-3.5 35t-9 25q-101 32 -166 0q-11 -11 -32 -52.5t-31 -51.5q0 -22 -20 -42q-10 -40 -15 -82t-6 -72.5
t-1 -95.5v-124q46 -261 146 -313q15 -7 30.5 -8.5t32.5 4t29.5 11t32.5 15.5q10 20 10 72.5t10 73.5q24 0 40 -11t23 -11v-146q-8 -21 -26 -35t-36.5 -21t-49 -9t-51.5 -1.5t-57.5 6t-52 8.5l-49.5 10q-7 1 -10 2q-12 12 -39.5 33.5t-47.5 42.5t-38 49q-5 24 -24 101
t-29 136t-10 115q6 31 16.5 98.5t21 118.5t25.5 95q9 10 18 30.5t22 32.5q36 51 96.5 87.5t132.5 36.5q16 -5 42.5 -12t40 -11t31.5 -14.5t32 -25.5z" />
    <glyph glyph-name="cdotaccent" unicode="&#x10b;" horiz-adv-x="555" 
d="M348 802q-31 -10 -55 26.5t-3 58.5q16 14 58 14q14 0 32.5 -18.5t7.5 -37.5q0 -22 -40 -43zM495 688q0 -10 11 -20t11 -20q0 -104 -22 -104q-14 0 -21 13.5t-7.5 30.5t-3.5 35t-9 25q-101 32 -166 0q-11 -11 -32 -52.5t-31 -51.5q0 -22 -20 -42q-10 -40 -15 -82t-6 -72.5
t-1 -95.5v-124q46 -261 146 -313q15 -7 30.5 -8.5t32.5 4t29.5 11t32.5 15.5q10 20 10 72.5t10 73.5q24 0 40 -11t23 -11v-146q-8 -21 -26 -35t-36.5 -21t-49 -9t-51.5 -1.5t-57.5 6t-52 8.5l-49.5 10q-7 1 -10 2q-12 12 -39.5 33.5t-47.5 42.5t-38 49q-5 24 -24 101
t-29 136t-10 115q6 31 16.5 98.5t21 118.5t25.5 95q9 10 18 30.5t22 32.5q36 51 96.5 87.5t132.5 36.5q16 -5 42.5 -12t40 -11t31.5 -14.5t32 -25.5z" />
    <glyph glyph-name="Ccaron" unicode="&#x10c;" horiz-adv-x="555" 
d="M462 935q8 -12 -9 -28t-18 -23q-17 -8 -44.5 -39.5t-44.5 -38.5l-4 -6q-4 0 -10 2h-2q0 1 -1 1q-16 7 -41 40t-48 42q-2 2 -6.5 5.5t-6.5 5.5t-5.5 5t-5 5l-3.5 4.5t-2.5 4.5t-1.5 5t0 5.5t2 5.5t3 6q6 7 19 7.5t20 -5.5q5 4 6.5 3.5t6 -7.5t7.5 -10q10 -4 18 -9
t15.5 -12.5t10.5 -11t10.5 -14t8.5 -11.5q35 41 76 57q3 2 7.5 9t6.5 8t7 -3q17 12 29 -3zM495 688q0 -10 11 -20t11 -20q0 -104 -22 -104q-14 0 -21 13.5t-7.5 30.5t-3.5 35t-9 25q-101 32 -166 0q-11 -11 -32 -52.5t-31 -51.5q0 -22 -20 -42q-10 -40 -15 -82t-6 -72.5
t-1 -95.5v-124q46 -261 146 -313q15 -7 30.5 -8.5t32.5 4t29.5 11t32.5 15.5q10 20 10 72.5t10 73.5q24 0 40 -11t23 -11v-146q-8 -21 -26 -35t-36.5 -21t-49 -9t-51.5 -1.5t-57.5 6t-52 8.5l-49.5 10q-7 1 -10 2q-12 12 -39.5 33.5t-47.5 42.5t-38 49q-5 24 -24 101
t-29 136t-10 115q6 31 16.5 98.5t21 118.5t25.5 95q9 10 18 30.5t22 32.5q36 51 96.5 87.5t132.5 36.5q16 -5 42.5 -12t40 -11t31.5 -14.5t32 -25.5z" />
    <glyph glyph-name="ccaron" unicode="&#x10d;" horiz-adv-x="555" 
d="M462 935q8 -12 -9 -28t-18 -23q-17 -8 -44.5 -39.5t-44.5 -38.5l-4 -6q-4 0 -10 2h-2q0 1 -1 1q-16 7 -41 40t-48 42q-2 2 -6.5 5.5t-6.5 5.5t-5.5 5t-5 5l-3.5 4.5t-2.5 4.5t-1.5 5t0 5.5t2 5.5t3 6q6 7 19 7.5t20 -5.5q5 4 6.5 3.5t6 -7.5t7.5 -10q10 -4 18 -9
t15.5 -12.5t10.5 -11t10.5 -14t8.5 -11.5q35 41 76 57q3 2 7.5 9t6.5 8t7 -3q17 12 29 -3zM495 688q0 -10 11 -20t11 -20q0 -104 -22 -104q-14 0 -21 13.5t-7.5 30.5t-3.5 35t-9 25q-101 32 -166 0q-11 -11 -32 -52.5t-31 -51.5q0 -22 -20 -42q-10 -40 -15 -82t-6 -72.5
t-1 -95.5v-124q46 -261 146 -313q15 -7 30.5 -8.5t32.5 4t29.5 11t32.5 15.5q10 20 10 72.5t10 73.5q24 0 40 -11t23 -11v-146q-8 -21 -26 -35t-36.5 -21t-49 -9t-51.5 -1.5t-57.5 6t-52 8.5l-49.5 10q-7 1 -10 2q-12 12 -39.5 33.5t-47.5 42.5t-38 49q-5 24 -24 101
t-29 136t-10 115q6 31 16.5 98.5t21 118.5t25.5 95q9 10 18 30.5t22 32.5q36 51 96.5 87.5t132.5 36.5q16 -5 42.5 -12t40 -11t31.5 -14.5t32 -25.5z" />
    <glyph glyph-name="Dcaron" unicode="&#x10e;" horiz-adv-x="617" 
d="M341 935q8 -12 -9 -28t-18 -23q-17 -8 -44.5 -39.5t-44.5 -38.5l-4 -6q-4 0 -10 2h-2q0 1 -1 1q-16 7 -41 40t-48 42q-2 2 -6.5 5.5t-6.5 5.5t-5.5 5t-5 5l-3.5 4.5t-2.5 4.5t-1.5 5t0 5.5t2 5.5t3 6q6 7 19 7.5t20 -5.5q5 4 6.5 3.5t6 -7.5t7.5 -10q10 -4 18 -9
t15.5 -12.5t10.5 -11t10.5 -14t8.5 -11.5q35 41 76 57q3 2 7.5 9t6.5 8t7 -3q17 12 29 -3zM24 -187h84q11 0 22 10t21 10v235q0 58 -10.5 143t-10.5 112q0 170 -22 233v86q-12 0 -30 -5.5t-28 -8t-18 5t-8 30.5q0 9 5.5 14t17.5 12t20 15l21 22q42 21 128 21q14 0 32.5 1.5
t35.5 1.5t40 -4q1 1 3 1.5t7 1t9 -1.5q11 -11 42.5 -32.5t42.5 -31.5q20 -9 37 -28t26 -35t22 -43q52 -107 63 -193q1 -4 3 -20.5t2.5 -22.5t2.5 -21.5t2.5 -23t1 -22.5t0.5 -24t-0.5 -23t-2 -25t-4 -24.5t-5.5 -25.5q0 -37 -11 -76.5t-21 -64.5t-38 -68t-36.5 -55
l-41.5 -56q-8 -4 -40 -23.5t-62 -29.5t-69 -10h-41q-43 -21 -149 -21q-43 41 -43 64zM257 684q-7 -7 -10.5 -22t-3.5 -26.5t0.5 -32.5t0.5 -25q0 -34 2.5 -82t2.5 -67q0 -21 4 -68t4 -81v-212q0 -22 11 -64.5t11 -62.5q0 -16 -5 -35t-5 -30.5t10 -20.5q11 0 32 10.5t32 10.5
q0 10 5.5 15.5t11.5 6.5h5q9 0 14 5t5 11l1 5q20 29 30 72.5t11.5 74t1.5 87.5q0 13 4.5 46t4.5 64.5t-9 59.5v64q-5 25 -13.5 76.5t-14 79.5t-20.5 63t-37 58q-14 14 -31 17t-55 3z" />
    <glyph glyph-name="dcaron" unicode="&#x10f;" horiz-adv-x="617" 
d="M341 935q8 -12 -9 -28t-18 -23q-17 -8 -44.5 -39.5t-44.5 -38.5l-4 -6q-4 0 -10 2h-2q0 1 -1 1q-16 7 -41 40t-48 42q-2 2 -6.5 5.5t-6.5 5.5t-5.5 5t-5 5l-3.5 4.5t-2.5 4.5t-1.5 5t0 5.5t2 5.5t3 6q6 7 19 7.5t20 -5.5q5 4 6.5 3.5t6 -7.5t7.5 -10q10 -4 18 -9
t15.5 -12.5t10.5 -11t10.5 -14t8.5 -11.5q35 41 76 57q3 2 7.5 9t6.5 8t7 -3q17 12 29 -3zM24 -187h84q11 0 22 10t21 10v235q0 58 -10.5 143t-10.5 112q0 170 -22 233v86q-12 0 -30 -5.5t-28 -8t-18 5t-8 30.5q0 9 5.5 14t17.5 12t20 15l21 22q42 21 128 21q14 0 32.5 1.5
t35.5 1.5t40 -4q1 1 3 1.5t7 1t9 -1.5q11 -11 42.5 -32.5t42.5 -31.5q20 -9 37 -28t26 -35t22 -43q52 -107 63 -193q1 -4 3 -20.5t2.5 -22.5t2.5 -21.5t2.5 -23t1 -22.5t0.5 -24t-0.5 -23t-2 -25t-4 -24.5t-5.5 -25.5q0 -37 -11 -76.5t-21 -64.5t-38 -68t-36.5 -55
l-41.5 -56q-8 -4 -40 -23.5t-62 -29.5t-69 -10h-41q-43 -21 -149 -21q-43 41 -43 64zM257 684q-7 -7 -10.5 -22t-3.5 -26.5t0.5 -32.5t0.5 -25q0 -34 2.5 -82t2.5 -67q0 -21 4 -68t4 -81v-212q0 -22 11 -64.5t11 -62.5q0 -16 -5 -35t-5 -30.5t10 -20.5q11 0 32 10.5t32 10.5
q0 10 5.5 15.5t11.5 6.5h5q9 0 14 5t5 11l1 5q20 29 30 72.5t11.5 74t1.5 87.5q0 13 4.5 46t4.5 64.5t-9 59.5v64q-5 25 -13.5 76.5t-14 79.5t-20.5 63t-37 58q-14 14 -31 17t-55 3z" />
    <glyph glyph-name="Dcroat" unicode="&#x110;" horiz-adv-x="617" 
d="M576 385q1 -4 3 -20.5t2.5 -22.5t2.5 -21.5t2.5 -23t1 -22.5t0.5 -24t-0.5 -23t-2 -25t-4 -24.5t-5.5 -25.5q0 -37 -11 -76.5t-21 -64.5t-38 -68t-36.5 -55l-41.5 -56q-8 -4 -40 -23.5t-62 -29.5t-69 -10h-41q-43 -21 -149 -21q-43 41 -43 64h84q11 0 22 10t21 10v235
q0 58 -14 175q-23 0 -47 5q-22 18 -22 53h63l-1 22q0 170 -22 233v86q-12 0 -30 -5.5t-28 -8t-18 5t-8 30.5q0 9 5.5 14t17.5 12t20 15l21 22q42 21 128 21q14 0 32.5 1.5t35.5 1.5t40 -4q1 1 3 1.5t7 1t9 -1.5q11 -11 42.5 -32.5t42.5 -31.5q20 -9 37 -28t26 -35t22 -43
q52 -107 63 -193zM428 153q0 13 4.5 46t4.5 64.5t-9 59.5v64q-5 25 -13.5 76.5t-14 79.5t-20.5 63t-37 58q-14 14 -31 17t-55 3q-7 -7 -10.5 -22t-3.5 -26.5t0.5 -32.5t0.5 -25q0 -34 2.5 -82t2.5 -67q0 -21 3 -57.5t4 -53.5h36q7 -6 26 -12.5t30.5 -15t11.5 -24.5
q0 -12 -23 -16t-45 -2l-35 4v-184q0 -22 11 -64.5t11 -62.5q0 -16 -5 -35t-5 -30.5t10 -20.5q11 0 32 10.5t32 10.5q0 10 5.5 15.5t11.5 6.5h5q9 0 14 5t5 11l1 5q20 29 30 72.5t11.5 74t1.5 87.5z" />
    <glyph glyph-name="dcroat" unicode="&#x111;" horiz-adv-x="617" 
d="M576 385q1 -4 3 -20.5t2.5 -22.5t2.5 -21.5t2.5 -23t1 -22.5t0.5 -24t-0.5 -23t-2 -25t-4 -24.5t-5.5 -25.5q0 -37 -11 -76.5t-21 -64.5t-38 -68t-36.5 -55l-41.5 -56q-8 -4 -40 -23.5t-62 -29.5t-69 -10h-41q-43 -21 -149 -21q-43 41 -43 64h84q11 0 22 10t21 10v235
q0 58 -14 175q-23 0 -47 5q-22 18 -22 53h63l-1 22q0 170 -22 233v86q-12 0 -30 -5.5t-28 -8t-18 5t-8 30.5q0 9 5.5 14t17.5 12t20 15l21 22q42 21 128 21q14 0 32.5 1.5t35.5 1.5t40 -4q1 1 3 1.5t7 1t9 -1.5q11 -11 42.5 -32.5t42.5 -31.5q20 -9 37 -28t26 -35t22 -43
q52 -107 63 -193zM428 153q0 13 4.5 46t4.5 64.5t-9 59.5v64q-5 25 -13.5 76.5t-14 79.5t-20.5 63t-37 58q-14 14 -31 17t-55 3q-7 -7 -10.5 -22t-3.5 -26.5t0.5 -32.5t0.5 -25q0 -34 2.5 -82t2.5 -67q0 -21 3 -57.5t4 -53.5h36q7 -6 26 -12.5t30.5 -15t11.5 -24.5
q0 -12 -23 -16t-45 -2l-35 4v-184q0 -22 11 -64.5t11 -62.5q0 -16 -5 -35t-5 -30.5t10 -20.5q11 0 32 10.5t32 10.5q0 10 5.5 15.5t11.5 6.5h5q9 0 14 5t5 11l1 5q20 29 30 72.5t11.5 74t1.5 87.5z" />
    <glyph glyph-name="Emacron" unicode="&#x112;" horiz-adv-x="520" 
d="M362 824q-153 -9 -199 0q-30 19 -15 50h175q13 3 49 10q40 -30 -10 -60zM450 587q-10 11 -10 41t-11 40q-20 11 -41 21q-101 0 -142 -21q-4 -4 -7.5 -8.5t-5.5 -11.5t-3 -11t-1.5 -14.5t-0.5 -14.5v-18v-18q0 -31 -1.5 -70t-1.5 -57q0 -22 4.5 -53t4.5 -52t-9 -39
q21 -19 122 -19q0 60 21 60q15 0 20 -2.5t21 -17.5q-11 -24 -6 -60.5t4 -70t-19 -33.5q-41 21 -41 41v21h-101q-9 -28 -10.5 -63.5t1.5 -82t3 -61.5q0 -34 3 -99t3 -82q61 -20 163 -20q17 8 19 29t3.5 42.5t18.5 29.5q14 0 23.5 -9t12.5 -27t4 -30.5t1 -34.5q0 -19 -41 -62
h-103q-204 0 -326 21v41h82q9 54 9 110t-4.5 125t-4.5 111v41v205v81v183h-82v41q42 11 123.5 21t121.5 20h204q21 -20 21 -41q0 -10 5 -35.5t6 -41.5t-11 -30.5t-41 -14.5z" />
    <glyph glyph-name="emacron" unicode="&#x113;" horiz-adv-x="520" 
d="M362 824q-153 -9 -199 0q-30 19 -15 50h175q13 3 49 10q40 -30 -10 -60zM450 587q-10 11 -10 41t-11 40q-20 11 -41 21q-101 0 -142 -21q-4 -4 -7.5 -8.5t-5.5 -11.5t-3 -11t-1.5 -14.5t-0.5 -14.5v-18v-18q0 -31 -1.5 -70t-1.5 -57q0 -22 4.5 -53t4.5 -52t-9 -39
q21 -19 122 -19q0 60 21 60q15 0 20 -2.5t21 -17.5q-11 -24 -6 -60.5t4 -70t-19 -33.5q-41 21 -41 41v21h-101q-9 -28 -10.5 -63.5t1.5 -82t3 -61.5q0 -34 3 -99t3 -82q61 -20 163 -20q17 8 19 29t3.5 42.5t18.5 29.5q14 0 23.5 -9t12.5 -27t4 -30.5t1 -34.5q0 -19 -41 -62
h-103q-204 0 -326 21v41h82q9 54 9 110t-4.5 125t-4.5 111v41v205v81v183h-82v41q42 11 123.5 21t121.5 20h204q21 -20 21 -41q0 -10 5 -35.5t6 -41.5t-11 -30.5t-41 -14.5z" />
    <glyph glyph-name="Edotaccent" unicode="&#x116;" horiz-adv-x="520" 
d="M287 802q-31 -10 -55 26.5t-3 58.5q16 14 58 14q14 0 32.5 -18.5t7.5 -37.5q0 -22 -40 -43zM450 587q-10 11 -10 41t-11 40q-20 11 -41 21q-101 0 -142 -21q-4 -4 -7.5 -8.5t-5.5 -11.5t-3 -11t-1.5 -14.5t-0.5 -14.5v-18v-18q0 -31 -1.5 -70t-1.5 -57q0 -22 4.5 -53
t4.5 -52t-9 -39q21 -19 122 -19q0 60 21 60q15 0 20 -2.5t21 -17.5q-11 -24 -6 -60.5t4 -70t-19 -33.5q-41 21 -41 41v21h-101q-9 -28 -10.5 -63.5t1.5 -82t3 -61.5q0 -34 3 -99t3 -82q61 -20 163 -20q17 8 19 29t3.5 42.5t18.5 29.5q14 0 23.5 -9t12.5 -27t4 -30.5t1 -34.5
q0 -19 -41 -62h-103q-204 0 -326 21v41h82q9 54 9 110t-4.5 125t-4.5 111v41v205v81v183h-82v41q42 11 123.5 21t121.5 20h204q21 -20 21 -41q0 -10 5 -35.5t6 -41.5t-11 -30.5t-41 -14.5z" />
    <glyph glyph-name="edotaccent" unicode="&#x117;" horiz-adv-x="520" 
d="M287 802q-31 -10 -55 26.5t-3 58.5q16 14 58 14q14 0 32.5 -18.5t7.5 -37.5q0 -22 -40 -43zM450 587q-10 11 -10 41t-11 40q-20 11 -41 21q-101 0 -142 -21q-4 -4 -7.5 -8.5t-5.5 -11.5t-3 -11t-1.5 -14.5t-0.5 -14.5v-18v-18q0 -31 -1.5 -70t-1.5 -57q0 -22 4.5 -53
t4.5 -52t-9 -39q21 -19 122 -19q0 60 21 60q15 0 20 -2.5t21 -17.5q-11 -24 -6 -60.5t4 -70t-19 -33.5q-41 21 -41 41v21h-101q-9 -28 -10.5 -63.5t1.5 -82t3 -61.5q0 -34 3 -99t3 -82q61 -20 163 -20q17 8 19 29t3.5 42.5t18.5 29.5q14 0 23.5 -9t12.5 -27t4 -30.5t1 -34.5
q0 -19 -41 -62h-103q-204 0 -326 21v41h82q9 54 9 110t-4.5 125t-4.5 111v41v205v81v183h-82v41q42 11 123.5 21t121.5 20h204q21 -20 21 -41q0 -10 5 -35.5t6 -41.5t-11 -30.5t-41 -14.5z" />
    <glyph glyph-name="Eogonek" unicode="&#x118;" horiz-adv-x="520" 
d="M450 -87q14 0 23.5 -9t12.5 -27t4 -30.5t1 -34.5q0 -18 -28 -48l-2 -3q-25 -23 -54.5 -68t-26.5 -63q6 -24 11 -34.5t13 -9.5q17 4 35 10q11 3 18 -7.5t1 -26.5q-7 -13 -14 -17.5t-27 -9.5q-35 -8 -61.5 11.5t-35.5 62.5q-11 59 54 141h-27q-204 0 -326 21v41h82
q9 54 9 110t-4.5 125t-4.5 111v41v205v81v183h-82v41q42 11 123.5 21t121.5 20h204q21 -20 21 -41q0 -10 5 -35.5t6 -41.5t-11 -30.5t-41 -14.5q-10 11 -10 41t-11 40q-20 11 -41 21q-101 0 -142 -21q-4 -4 -7.5 -8.5t-5.5 -11.5t-3 -11t-1.5 -14.5t-0.5 -14.5v-18v-18
q0 -31 -1.5 -70t-1.5 -57q0 -22 4.5 -53t4.5 -52t-9 -39q21 -19 122 -19q0 60 21 60q15 0 20 -2.5t21 -17.5q-11 -24 -6 -60.5t4 -70t-19 -33.5q-41 21 -41 41v21h-101q-9 -28 -10.5 -63.5t1.5 -82t3 -61.5q0 -34 3 -99t3 -82q61 -20 163 -20q17 8 19 29t3.5 42.5t18.5 29.5
z" />
    <glyph glyph-name="eogonek" unicode="&#x119;" horiz-adv-x="520" 
d="M450 -87q14 0 23.5 -9t12.5 -27t4 -30.5t1 -34.5q0 -18 -28 -48l-2 -3q-25 -23 -54.5 -68t-26.5 -63q6 -24 11 -34.5t13 -9.5q17 4 35 10q11 3 18 -7.5t1 -26.5q-7 -13 -14 -17.5t-27 -9.5q-35 -8 -61.5 11.5t-35.5 62.5q-11 59 54 141h-27q-204 0 -326 21v41h82
q9 54 9 110t-4.5 125t-4.5 111v41v205v81v183h-82v41q42 11 123.5 21t121.5 20h204q21 -20 21 -41q0 -10 5 -35.5t6 -41.5t-11 -30.5t-41 -14.5q-10 11 -10 41t-11 40q-20 11 -41 21q-101 0 -142 -21q-4 -4 -7.5 -8.5t-5.5 -11.5t-3 -11t-1.5 -14.5t-0.5 -14.5v-18v-18
q0 -31 -1.5 -70t-1.5 -57q0 -22 4.5 -53t4.5 -52t-9 -39q21 -19 122 -19q0 60 21 60q15 0 20 -2.5t21 -17.5q-11 -24 -6 -60.5t4 -70t-19 -33.5q-41 21 -41 41v21h-101q-9 -28 -10.5 -63.5t1.5 -82t3 -61.5q0 -34 3 -99t3 -82q61 -20 163 -20q17 8 19 29t3.5 42.5t18.5 29.5
z" />
    <glyph glyph-name="Ecaron" unicode="&#x11a;" horiz-adv-x="520" 
d="M401 935q8 -12 -9 -28t-18 -23q-17 -8 -44.5 -39.5t-44.5 -38.5l-4 -6q-4 0 -10 2h-2q0 1 -1 1q-16 7 -41 40t-48 42q-2 2 -6.5 5.5t-6.5 5.5t-5.5 5t-5 5l-3.5 4.5t-2.5 4.5t-1.5 5t0 5.5t2 5.5t3 6q6 7 19 7.5t20 -5.5q5 4 6.5 3.5t6 -7.5t7.5 -10q10 -4 18 -9
t15.5 -12.5t10.5 -11t10.5 -14t8.5 -11.5q35 41 76 57q3 2 7.5 9t6.5 8t7 -3q17 12 29 -3zM450 587q-10 11 -10 41t-11 40q-20 11 -41 21q-101 0 -142 -21q-4 -4 -7.5 -8.5t-5.5 -11.5t-3 -11t-1.5 -14.5t-0.5 -14.5v-18v-18q0 -31 -1.5 -70t-1.5 -57q0 -22 4.5 -53t4.5 -52
t-9 -39q21 -19 122 -19q0 60 21 60q15 0 20 -2.5t21 -17.5q-11 -24 -6 -60.5t4 -70t-19 -33.5q-41 21 -41 41v21h-101q-9 -28 -10.5 -63.5t1.5 -82t3 -61.5q0 -34 3 -99t3 -82q61 -20 163 -20q17 8 19 29t3.5 42.5t18.5 29.5q14 0 23.5 -9t12.5 -27t4 -30.5t1 -34.5
q0 -19 -41 -62h-103q-204 0 -326 21v41h82q9 54 9 110t-4.5 125t-4.5 111v41v205v81v183h-82v41q42 11 123.5 21t121.5 20h204q21 -20 21 -41q0 -10 5 -35.5t6 -41.5t-11 -30.5t-41 -14.5z" />
    <glyph glyph-name="ecaron" unicode="&#x11b;" horiz-adv-x="520" 
d="M401 935q8 -12 -9 -28t-18 -23q-17 -8 -44.5 -39.5t-44.5 -38.5l-4 -6q-4 0 -10 2h-2q0 1 -1 1q-16 7 -41 40t-48 42q-2 2 -6.5 5.5t-6.5 5.5t-5.5 5t-5 5l-3.5 4.5t-2.5 4.5t-1.5 5t0 5.5t2 5.5t3 6q6 7 19 7.5t20 -5.5q5 4 6.5 3.5t6 -7.5t7.5 -10q10 -4 18 -9
t15.5 -12.5t10.5 -11t10.5 -14t8.5 -11.5q35 41 76 57q3 2 7.5 9t6.5 8t7 -3q17 12 29 -3zM450 587q-10 11 -10 41t-11 40q-20 11 -41 21q-101 0 -142 -21q-4 -4 -7.5 -8.5t-5.5 -11.5t-3 -11t-1.5 -14.5t-0.5 -14.5v-18v-18q0 -31 -1.5 -70t-1.5 -57q0 -22 4.5 -53t4.5 -52
t-9 -39q21 -19 122 -19q0 60 21 60q15 0 20 -2.5t21 -17.5q-11 -24 -6 -60.5t4 -70t-19 -33.5q-41 21 -41 41v21h-101q-9 -28 -10.5 -63.5t1.5 -82t3 -61.5q0 -34 3 -99t3 -82q61 -20 163 -20q17 8 19 29t3.5 42.5t18.5 29.5q14 0 23.5 -9t12.5 -27t4 -30.5t1 -34.5
q0 -19 -41 -62h-103q-204 0 -326 21v41h82q9 54 9 110t-4.5 125t-4.5 111v41v205v81v183h-82v41q42 11 123.5 21t121.5 20h204q21 -20 21 -41q0 -10 5 -35.5t6 -41.5t-11 -30.5t-41 -14.5z" />
    <glyph glyph-name="Gbreve" unicode="&#x11e;" horiz-adv-x="545" 
d="M234 919q33 -61 68 -73q57 -4 105 41q1 1 3 5t2.5 5.5t2.5 5t3 5t3 4t4 4t4 2.5t5 2l14.5 -5t17 -9t9.5 -17q-14 -27 -37 -49l-14 -17q-66 -43 -135 -32q-30 5 -57 35.5t-42 62.5q8 20 20 29.5t24 0.5zM466 537q-23 12 -28.5 70.5t-11.5 71.5q-46 0 -74.5 -2t-69.5 -16
t-60 -42q-2 -3 -9 -18l-10.5 -22t-10 -21.5t-10 -25t-7.5 -24.5t-5.5 -28t-1.5 -27q0 -51 -3.5 -151t-3.5 -150q0 -27 -4.5 -77t-4.5 -90.5t9 -76.5q6 -23 18 -39t33.5 -26t37 -15t47.5 -11.5t47 -10.5q36 5 57.5 25.5t29.5 55.5t10 67t2 81t2 76q-8 9 -18 9t-16 -4l-6 -5
q-6 -13 -11.5 -61.5t-29.5 -60.5q-9 0 -14 5t-12 16.5t-14 18.5q0 102 20 142q16 0 44.5 2.5t45.5 3t38 -5t35 -19.5q9 -9 9 -19.5t-4.5 -23t-4.5 -19.5q0 -26 2.5 -73.5t2.5 -75t-6 -60.5t-20 -54q0 -9 -10.5 -19.5t-26.5 -23t-23 -19.5q-32 -16 -86.5 -16.5t-96.5 16.5
q-70 28 -100 56.5t-83 106.5q-41 119 -41 224v121q0 45 17 139q12 60 21 82q8 18 16.5 50t18.5 54.5t28 40.5q11 11 21 31t20 30q9 0 19.5 5t15.5 10l6 5q41 21 122 21q5 0 24.5 4.5t39.5 4.5t38 -9q16 0 38 -13.5t22 -27.5q14 -48 5.5 -96.5t-25.5 -66.5z" />
    <glyph glyph-name="gbreve" unicode="&#x11f;" horiz-adv-x="545" 
d="M234 919q33 -61 68 -73q57 -4 105 41q1 1 3 5t2.5 5.5t2.5 5t3 5t3 4t4 4t4 2.5t5 2l14.5 -5t17 -9t9.5 -17q-14 -27 -37 -49l-14 -17q-66 -43 -135 -32q-30 5 -57 35.5t-42 62.5q8 20 20 29.5t24 0.5zM466 537q-23 12 -28.5 70.5t-11.5 71.5q-46 0 -74.5 -2t-69.5 -16
t-60 -42q-2 -3 -9 -18l-10.5 -22t-10 -21.5t-10 -25t-7.5 -24.5t-5.5 -28t-1.5 -27q0 -51 -3.5 -151t-3.5 -150q0 -27 -4.5 -77t-4.5 -90.5t9 -76.5q6 -23 18 -39t33.5 -26t37 -15t47.5 -11.5t47 -10.5q36 5 57.5 25.5t29.5 55.5t10 67t2 81t2 76q-8 9 -18 9t-16 -4l-6 -5
q-6 -13 -11.5 -61.5t-29.5 -60.5q-9 0 -14 5t-12 16.5t-14 18.5q0 102 20 142q16 0 44.5 2.5t45.5 3t38 -5t35 -19.5q9 -9 9 -19.5t-4.5 -23t-4.5 -19.5q0 -26 2.5 -73.5t2.5 -75t-6 -60.5t-20 -54q0 -9 -10.5 -19.5t-26.5 -23t-23 -19.5q-32 -16 -86.5 -16.5t-96.5 16.5
q-70 28 -100 56.5t-83 106.5q-41 119 -41 224v121q0 45 17 139q12 60 21 82q8 18 16.5 50t18.5 54.5t28 40.5q11 11 21 31t20 30q9 0 19.5 5t15.5 10l6 5q41 21 122 21q5 0 24.5 4.5t39.5 4.5t38 -9q16 0 38 -13.5t22 -27.5q14 -48 5.5 -96.5t-25.5 -66.5z" />
    <glyph glyph-name="Gdotaccent" unicode="&#x120;" horiz-adv-x="545" 
d="M334 784q-31 -10 -55 26.5t-3 58.5q16 14 58 14q14 0 32.5 -18.5t7.5 -37.5q0 -22 -40 -43zM466 537q-23 12 -28.5 70.5t-11.5 71.5q-46 0 -74.5 -2t-69.5 -16t-60 -42q-2 -3 -9 -18l-10.5 -22t-10 -21.5t-10 -25t-7.5 -24.5t-5.5 -28t-1.5 -27q0 -51 -3.5 -151
t-3.5 -150q0 -27 -4.5 -77t-4.5 -90.5t9 -76.5q6 -23 18 -39t33.5 -26t37 -15t47.5 -11.5t47 -10.5q36 5 57.5 25.5t29.5 55.5t10 67t2 81t2 76q-8 9 -18 9t-16 -4l-6 -5q-6 -13 -11.5 -61.5t-29.5 -60.5q-9 0 -14 5t-12 16.5t-14 18.5q0 102 20 142q16 0 44.5 2.5t45.5 3
t38 -5t35 -19.5q9 -9 9 -19.5t-4.5 -23t-4.5 -19.5q0 -26 2.5 -73.5t2.5 -75t-6 -60.5t-20 -54q0 -9 -10.5 -19.5t-26.5 -23t-23 -19.5q-32 -16 -86.5 -16.5t-96.5 16.5q-70 28 -100 56.5t-83 106.5q-41 119 -41 224v121q0 45 17 139q12 60 21 82q8 18 16.5 50t18.5 54.5
t28 40.5q11 11 21 31t20 30q9 0 19.5 5t15.5 10l6 5q41 21 122 21q5 0 24.5 4.5t39.5 4.5t38 -9q16 0 38 -13.5t22 -27.5q14 -48 5.5 -96.5t-25.5 -66.5z" />
    <glyph glyph-name="gdotaccent" unicode="&#x121;" horiz-adv-x="545" 
d="M334 784q-31 -10 -55 26.5t-3 58.5q16 14 58 14q14 0 32.5 -18.5t7.5 -37.5q0 -22 -40 -43zM466 537q-23 12 -28.5 70.5t-11.5 71.5q-46 0 -74.5 -2t-69.5 -16t-60 -42q-2 -3 -9 -18l-10.5 -22t-10 -21.5t-10 -25t-7.5 -24.5t-5.5 -28t-1.5 -27q0 -51 -3.5 -151
t-3.5 -150q0 -27 -4.5 -77t-4.5 -90.5t9 -76.5q6 -23 18 -39t33.5 -26t37 -15t47.5 -11.5t47 -10.5q36 5 57.5 25.5t29.5 55.5t10 67t2 81t2 76q-8 9 -18 9t-16 -4l-6 -5q-6 -13 -11.5 -61.5t-29.5 -60.5q-9 0 -14 5t-12 16.5t-14 18.5q0 102 20 142q16 0 44.5 2.5t45.5 3
t38 -5t35 -19.5q9 -9 9 -19.5t-4.5 -23t-4.5 -19.5q0 -26 2.5 -73.5t2.5 -75t-6 -60.5t-20 -54q0 -9 -10.5 -19.5t-26.5 -23t-23 -19.5q-32 -16 -86.5 -16.5t-96.5 16.5q-70 28 -100 56.5t-83 106.5q-41 119 -41 224v121q0 45 17 139q12 60 21 82q8 18 16.5 50t18.5 54.5
t28 40.5q11 11 21 31t20 30q9 0 19.5 5t15.5 10l6 5q41 21 122 21q5 0 24.5 4.5t39.5 4.5t38 -9q16 0 38 -13.5t22 -27.5q14 -48 5.5 -96.5t-25.5 -66.5z" />
    <glyph glyph-name="Gcommaaccent" unicode="&#x122;" horiz-adv-x="545" 
d="M466 537q-23 12 -28.5 70.5t-11.5 71.5q-46 0 -74.5 -2t-69.5 -16t-60 -42q-2 -3 -9 -18l-10.5 -22t-10 -21.5t-10 -25t-7.5 -24.5t-5.5 -28t-1.5 -27q0 -51 -3.5 -151t-3.5 -150q0 -27 -4.5 -77t-4.5 -90.5t9 -76.5q6 -23 18 -39t33.5 -26t37 -15t47.5 -11.5t47 -10.5
q36 5 57.5 25.5t29.5 55.5t10 67t2 81t2 76q-8 9 -18 9t-16 -4l-6 -5q-6 -13 -11.5 -61.5t-29.5 -60.5q-9 0 -14 5t-12 16.5t-14 18.5q0 102 20 142q16 0 44.5 2.5t45.5 3t38 -5t35 -19.5q9 -9 9 -19.5t-4.5 -23t-4.5 -19.5q0 -26 2.5 -73.5t2.5 -75t-6 -60.5t-20 -54
q0 -9 -10.5 -19.5t-26.5 -23t-23 -19.5q-32 -16 -86.5 -16.5t-96.5 16.5q-70 28 -100 56.5t-83 106.5q-41 119 -41 224v121q0 45 17 139q12 60 21 82q8 18 16.5 50t18.5 54.5t28 40.5q11 11 21 31t20 30q9 0 19.5 5t15.5 10l6 5q41 21 122 21q5 0 24.5 4.5t39.5 4.5t38 -9
q16 0 38 -13.5t22 -27.5q14 -48 5.5 -96.5t-25.5 -66.5zM284 -550q-11 4 -12 15.5t3 22.5t-1 22q14 22 17.5 85t22.5 80q18 -6 24.5 -12t14.5 -21q17 -77 -25 -146q-2 -6 -0.5 -13t-0.5 -10.5t-8 -1.5q-2 -9 -14 -16t-21 -5z" />
    <glyph glyph-name="gcommaaccent" unicode="&#x123;" horiz-adv-x="545" 
d="M466 537q-23 12 -28.5 70.5t-11.5 71.5q-46 0 -74.5 -2t-69.5 -16t-60 -42q-2 -3 -9 -18l-10.5 -22t-10 -21.5t-10 -25t-7.5 -24.5t-5.5 -28t-1.5 -27q0 -51 -3.5 -151t-3.5 -150q0 -27 -4.5 -77t-4.5 -90.5t9 -76.5q6 -23 18 -39t33.5 -26t37 -15t47.5 -11.5t47 -10.5
q36 5 57.5 25.5t29.5 55.5t10 67t2 81t2 76q-8 9 -18 9t-16 -4l-6 -5q-6 -13 -11.5 -61.5t-29.5 -60.5q-9 0 -14 5t-12 16.5t-14 18.5q0 102 20 142q16 0 44.5 2.5t45.5 3t38 -5t35 -19.5q9 -9 9 -19.5t-4.5 -23t-4.5 -19.5q0 -26 2.5 -73.5t2.5 -75t-6 -60.5t-20 -54
q0 -9 -10.5 -19.5t-26.5 -23t-23 -19.5q-32 -16 -86.5 -16.5t-96.5 16.5q-70 28 -100 56.5t-83 106.5q-41 119 -41 224v121q0 45 17 139q12 60 21 82q8 18 16.5 50t18.5 54.5t28 40.5q11 11 21 31t20 30q9 0 19.5 5t15.5 10l6 5q41 21 122 21q5 0 24.5 4.5t39.5 4.5t38 -9
q16 0 38 -13.5t22 -27.5q14 -48 5.5 -96.5t-25.5 -66.5zM284 -550q-11 4 -12 15.5t3 22.5t-1 22q14 22 17.5 85t22.5 80q18 -6 24.5 -12t14.5 -21q17 -77 -25 -146q-2 -6 -0.5 -13t-0.5 -10.5t-8 -1.5q-2 -9 -14 -16t-21 -5z" />
    <glyph glyph-name="Hbar" unicode="&#x126;" horiz-adv-x="642" 
d="M533 321v-163q0 -51 10.5 -163.5t10.5 -162.5q7 -7 18.5 -14t17 -12.5t5.5 -14.5v-41l-2 4t-6.5 5t-11.5 -5q-9 -3 -16.5 -4.5t-10.5 -1.5l-4 1q-8 0 -28.5 0.5t-43.5 0.5q-11 0 -25 -0.5t-23 -0.5l-7 7t-3.5 6.5t-1 5t2 5l3.5 5t6.5 6.5t7.5 7q0 11 20 21t20 20
q9 72 9 158.5t-4.5 191.5t-4.5 159q0 9 -5 14.5t-11 6.5h-5q-27 9 -62 9t-78 -4.5t-63 -4.5q-19 -19 -28.5 -43.5t-11 -43t-1.5 -57.5v-223v-62q11 -21 11 -51t10 -50q19 0 33 -23t-13 -38q-29 0 -67 -4.5t-69 -4.5t-67 9q-21 41 0 61h41v81v469v41v20v60v21l-3 8
q-17 0 -41 3q-30 19 -15 50h49q-2 65 -11 82q-20 0 -41 21q-20 20 0 41h82q13 0 43.5 4.5t55.5 4.5t43 -9q16 0 28.5 -13t12.5 -28q0 -21 -61 -21q-9 -9 -9 -19.5t4.5 -29t4.5 -33.5h239q-5 51 -16 82q-10 11 -40 11t-40 10v41q60 29 121 20q6 -3 34 -1l28 1
q20 -10 27.5 -30t0 -36t-27.5 -16q-16 -31 -19 -82h17q13 3 49 10q40 -30 -10 -60l-58 -2v-30v-182zM228 443q123 -30 244 0q0 56 -1 88q-148 -2 -249 -2q-8 -60 6 -86z" />
    <glyph glyph-name="hbar" unicode="&#x127;" horiz-adv-x="642" 
d="M533 321v-163q0 -51 10.5 -163.5t10.5 -162.5q7 -7 18.5 -14t17 -12.5t5.5 -14.5v-41l-2 4t-6.5 5t-11.5 -5q-9 -3 -16.5 -4.5t-10.5 -1.5l-4 1q-8 0 -28.5 0.5t-43.5 0.5q-11 0 -25 -0.5t-23 -0.5l-7 7t-3.5 6.5t-1 5t2 5l3.5 5t6.5 6.5t7.5 7q0 11 20 21t20 20
q9 72 9 158.5t-4.5 191.5t-4.5 159q0 9 -5 14.5t-11 6.5h-5q-27 9 -62 9t-78 -4.5t-63 -4.5q-19 -19 -28.5 -43.5t-11 -43t-1.5 -57.5v-223v-62q11 -21 11 -51t10 -50q19 0 33 -23t-13 -38q-29 0 -67 -4.5t-69 -4.5t-67 9q-21 41 0 61h41v81v469v41v20v60v21l-3 8
q-17 0 -41 3q-30 19 -15 50h49q-2 65 -11 82q-20 0 -41 21q-20 20 0 41h82q13 0 43.5 4.5t55.5 4.5t43 -9q16 0 28.5 -13t12.5 -28q0 -21 -61 -21q-9 -9 -9 -19.5t4.5 -29t4.5 -33.5h239q-5 51 -16 82q-10 11 -40 11t-40 10v41q60 29 121 20q6 -3 34 -1l28 1
q20 -10 27.5 -30t0 -36t-27.5 -16q-16 -31 -19 -82h17q13 3 49 10q40 -30 -10 -60l-58 -2v-30v-182zM228 443q123 -30 244 0q0 56 -1 88q-148 -2 -249 -2q-8 -60 6 -86z" />
    <glyph glyph-name="Imacron" unicode="&#x12a;" horiz-adv-x="280" 
d="M231 824q-153 -9 -199 0q-30 19 -15 50h175q13 3 49 10q40 -30 -10 -60zM211 675q-10 -39 -9 -61t5.5 -62t3.5 -62q-2 -63 -8 -199t-9.5 -247t-3.5 -212q11 -11 31.5 -21t29.5 -19q0 -9 -5 -14.5t-16 -12.5t-19 -15q-21 10 -87.5 10t-97.5 11q-21 21 0 40q0 11 15 11
t25 10q9 9 9 24t-4.5 33.5t-4.5 24.5q0 32 1.5 90.5t1.5 88.5q-3 27 -3 48v185v349q-13 0 -19.5 0.5t-13.5 5.5t-7 15v41q0 9 6 9t22.5 -4.5t32.5 -4.5q13 0 49.5 4.5t66.5 4.5t48 -9q17 -16 3 -39t-43 -23z" />
    <glyph glyph-name="imacron" unicode="&#x12b;" horiz-adv-x="280" 
d="M231 824q-153 -9 -199 0q-30 19 -15 50h175q13 3 49 10q40 -30 -10 -60zM211 675q-10 -39 -9 -61t5.5 -62t3.5 -62q-2 -63 -8 -199t-9.5 -247t-3.5 -212q11 -11 31.5 -21t29.5 -19q0 -9 -5 -14.5t-16 -12.5t-19 -15q-21 10 -87.5 10t-97.5 11q-21 21 0 40q0 11 15 11
t25 10q9 9 9 24t-4.5 33.5t-4.5 24.5q0 32 1.5 90.5t1.5 88.5q-3 27 -3 48v185v349q-13 0 -19.5 0.5t-13.5 5.5t-7 15v41q0 9 6 9t22.5 -4.5t32.5 -4.5q13 0 49.5 4.5t66.5 4.5t48 -9q17 -16 3 -39t-43 -23z" />
    <glyph glyph-name="Iogonek" unicode="&#x12e;" horiz-adv-x="280" 
d="M211 490q-2 -63 -8 -199t-9.5 -247t-3.5 -212q11 -11 31.5 -21t29.5 -19l-10 -37q-25 -23 -54.5 -68t-26.5 -63q6 -24 11 -34.5t13 -9.5q17 4 35 10q11 3 18 -7.5t1 -26.5q-7 -13 -14 -17.5t-27 -9.5q-35 -8 -61.5 11.5t-35.5 62.5q-12 66 67 157q-24 1 -46 0.5
t-48.5 1.5t-46.5 9q-21 21 0 40q0 11 15 11t25 10q9 9 9 24t-4.5 33.5t-4.5 24.5q0 32 1.5 90.5t1.5 88.5q-3 27 -3 48v185v349q-13 0 -19.5 0.5t-13.5 5.5t-7 15v41q0 9 6 9t22.5 -4.5t32.5 -4.5q13 0 49.5 4.5t66.5 4.5t48 -9q17 -16 3 -39t-43 -23q-10 -39 -9 -61
t5.5 -62t3.5 -62z" />
    <glyph glyph-name="iogonek" unicode="&#x12f;" horiz-adv-x="280" 
d="M211 490q-2 -63 -8 -199t-9.5 -247t-3.5 -212q11 -11 31.5 -21t29.5 -19l-10 -37q-25 -23 -54.5 -68t-26.5 -63q6 -24 11 -34.5t13 -9.5q17 4 35 10q11 3 18 -7.5t1 -26.5q-7 -13 -14 -17.5t-27 -9.5q-35 -8 -61.5 11.5t-35.5 62.5q-12 66 67 157q-24 1 -46 0.5
t-48.5 1.5t-46.5 9q-21 21 0 40q0 11 15 11t25 10q9 9 9 24t-4.5 33.5t-4.5 24.5q0 32 1.5 90.5t1.5 88.5q-3 27 -3 48v185v349q-13 0 -19.5 0.5t-13.5 5.5t-7 15v41q0 9 6 9t22.5 -4.5t32.5 -4.5q13 0 49.5 4.5t66.5 4.5t48 -9q17 -16 3 -39t-43 -23q-10 -39 -9 -61
t5.5 -62t3.5 -62z" />
    <glyph glyph-name="Idotaccent" unicode="&#x130;" horiz-adv-x="280" 
d="M156 802q-31 -10 -55 26.5t-3 58.5q16 14 58 14q14 0 32.5 -18.5t7.5 -37.5q0 -22 -40 -43zM211 675q-10 -39 -9 -61t5.5 -62t3.5 -62q-2 -63 -8 -199t-9.5 -247t-3.5 -212q11 -11 31.5 -21t29.5 -19q0 -9 -5 -14.5t-16 -12.5t-19 -15q-21 10 -87.5 10t-97.5 11
q-21 21 0 40q0 11 15 11t25 10q9 9 9 24t-4.5 33.5t-4.5 24.5q0 32 1.5 90.5t1.5 88.5q-3 27 -3 48v185v349q-13 0 -19.5 0.5t-13.5 5.5t-7 15v41q0 9 6 9t22.5 -4.5t32.5 -4.5q13 0 49.5 4.5t66.5 4.5t48 -9q17 -16 3 -39t-43 -23z" />
    <glyph glyph-name="dotlessi" unicode="&#x131;" horiz-adv-x="280" 
d="M156 802q-31 -10 -55 26.5t-3 58.5q16 14 58 14q14 0 32.5 -18.5t7.5 -37.5q0 -22 -40 -43zM211 675q-10 -39 -9 -61t5.5 -62t3.5 -62q-2 -63 -8 -199t-9.5 -247t-3.5 -212q11 -11 31.5 -21t29.5 -19q0 -9 -5 -14.5t-16 -12.5t-19 -15q-21 10 -87.5 10t-97.5 11
q-21 21 0 40q0 11 15 11t25 10q9 9 9 24t-4.5 33.5t-4.5 24.5q0 32 1.5 90.5t1.5 88.5q-3 27 -3 48v185v349q-13 0 -19.5 0.5t-13.5 5.5t-7 15v41q0 9 6 9t22.5 -4.5t32.5 -4.5q13 0 49.5 4.5t66.5 4.5t48 -9q17 -16 3 -39t-43 -23z" />
    <glyph glyph-name="IJ" unicode="&#x132;" horiz-adv-x="739" 
d="M211 686q-10 -39 -9 -61t5.5 -62t3.5 -62q-2 -63 -8 -199t-9.5 -247t-3.5 -212q11 -11 31.5 -21t29.5 -19q0 -9 -5 -14.5t-16 -12.5t-19 -15q-21 11 -87.5 11t-97.5 10q-21 21 0 40q0 7 3.5 9t9 1.5t13.5 1.5t14 9q9 9 9 24t-4.5 33.5t-4.5 24.5q0 32 1.5 90.5t1.5 88.5
q-3 27 -3 48v185v349q-13 0 -19.5 0.5t-13.5 5.5t-7 15v41q0 9 6 9t22.5 -4.5t32.5 -4.5q13 0 49.5 4.5t66.5 4.5t48 -9q17 -16 3 -39t-43 -23zM649 679h-43q-4 -17 -6.5 -35.5t-3.5 -41.5t-1.5 -39t0 -44t1 -40.5t2.5 -44.5t2.5 -39l3 -41t2.5 -36q2 -31 2 -62.5t-1 -63
t-1 -43.5q0 -27 3.5 -83t4.5 -96t-3 -86t-21 -76t-47 -42q-19 -9 -45.5 -9t-58 4.5t-45.5 4.5q-5 0 -9.5 1t-9.5 4l-8.5 5t-9.5 7l-9 7.5t-10 9t-9 8.5q-34 34 -42 98.5t22 115.5q6 0 24.5 4.5t34.5 4.5t26 -9q-11 -21 -16 -33.5t-10.5 -32.5t-4.5 -40t9 -43q0 -18 17 -30.5
t48 -12.5l20 21q0 53 10.5 170t10.5 170q0 19 -2 39.5t-5 46.5t-4 42q-2 22 -2 64q0 7 -3 29t-2 41q1 12 -1 40.5t-2 36.5q0 23 -5 47.5t-5 37.5q0 5 1 15t1.5 17t-2.5 16t-10 16q-11 -11 -38 -11t-48 -10q0 -63 -42 -63q-22 21 -22 127q0 10 7 15t14 5.5t21 0.5
q31 0 108.5 5t136 4.5t96.5 -9.5q32 -16 44.5 -45t-2.5 -62q0 -15 -3 -17.5t-19 -2.5q-18 0 -23.5 10.5t-7.5 27.5t-10 25z" />
    <glyph glyph-name="ij" unicode="&#x133;" horiz-adv-x="739" 
d="M211 686q-10 -39 -9 -61t5.5 -62t3.5 -62q-2 -63 -8 -199t-9.5 -247t-3.5 -212q11 -11 31.5 -21t29.5 -19q0 -9 -5 -14.5t-16 -12.5t-19 -15q-21 11 -87.5 11t-97.5 10q-21 21 0 40q0 7 3.5 9t9 1.5t13.5 1.5t14 9q9 9 9 24t-4.5 33.5t-4.5 24.5q0 32 1.5 90.5t1.5 88.5
q-3 27 -3 48v185v349q-13 0 -19.5 0.5t-13.5 5.5t-7 15v41q0 9 6 9t22.5 -4.5t32.5 -4.5q13 0 49.5 4.5t66.5 4.5t48 -9q17 -16 3 -39t-43 -23zM649 679h-43q-4 -17 -6.5 -35.5t-3.5 -41.5t-1.5 -39t0 -44t1 -40.5t2.5 -44.5t2.5 -39l3 -41t2.5 -36q2 -31 2 -62.5t-1 -63
t-1 -43.5q0 -27 3.5 -83t4.5 -96t-3 -86t-21 -76t-47 -42q-19 -9 -45.5 -9t-58 4.5t-45.5 4.5q-5 0 -9.5 1t-9.5 4l-8.5 5t-9.5 7l-9 7.5t-10 9t-9 8.5q-34 34 -42 98.5t22 115.5q6 0 24.5 4.5t34.5 4.5t26 -9q-11 -21 -16 -33.5t-10.5 -32.5t-4.5 -40t9 -43q0 -18 17 -30.5
t48 -12.5l20 21q0 53 10.5 170t10.5 170q0 19 -2 39.5t-5 46.5t-4 42q-2 22 -2 64q0 7 -3 29t-2 41q1 12 -1 40.5t-2 36.5q0 23 -5 47.5t-5 37.5q0 5 1 15t1.5 17t-2.5 16t-10 16q-11 -11 -38 -11t-48 -10q0 -63 -42 -63q-22 21 -22 127q0 10 7 15t14 5.5t21 0.5
q31 0 108.5 5t136 4.5t96.5 -9.5q32 -16 44.5 -45t-2.5 -62q0 -15 -3 -17.5t-19 -2.5q-18 0 -23.5 10.5t-7.5 27.5t-10 25z" />
    <glyph glyph-name="Kcommaaccent" unicode="&#x136;" horiz-adv-x="603" 
d="M449 665q0 -76 -40 -202l-61 -121q0 -16 2.5 -18.5t17.5 -2.5q10 -10 40 -30t41 -30q28 -37 42 -83.5t24.5 -124t14.5 -96.5q0 -14 -4.5 -37.5t-4.5 -39t9 -24.5q0 -10 23 -29t23 -30q0 -8 -3.5 -18t-6.5 -15l-4 -6q-33 0 -101 -1.5t-85 -1.5q-9 9 -11 19t1 16l2 5l41 41
q8 18 8 38t-4 44.5t-4 38.5v122v20q0 50 -16 99t-45 63q-61 30 -122 0q-14 -14 -20 -45.5t-5.5 -59.5t3 -72.5t2.5 -64.5t-10.5 -51.5t-10.5 -51.5v-80q33 -16 41.5 -40t-20.5 -41q-30 11 -80.5 0.5t-80.5 -0.5q-16 16 -18.5 21t-2.5 19q8 8 19 15t16 12t5 14v101v162
q2 1 2 22l-2 19q0 7 10.5 42.5t10.5 58.5q0 262 -21 364v60q-13 0 -19.5 0.5t-13.5 5.5t-7 15q-14 1 -13.5 24t11.5 34q6 6 16 6.5t29 -2t34 -2.5q7 0 30 1.5t39.5 1.5t36 -3t30 -13t10.5 -27q0 -9 -5.5 -14t-16.5 -12t-19 -15q0 -40 10 -111t10 -111q0 -6 -4.5 -24
t-4.5 -33t9 -24q103 26 142 182q0 20 10.5 60t10.5 61h-41q0 11 -10.5 21t-10.5 20q12 23 60.5 28.5t61.5 11.5q28 -9 35.5 -29t-4 -36t-31.5 -16zM267 -545q-11 4 -12 15.5t3 22.5t-1 22q14 22 17.5 85t22.5 80q18 -6 24.5 -12t14.5 -21q17 -77 -25 -146q-2 -6 -0.5 -13
t-0.5 -10.5t-8 -1.5q-2 -9 -14 -16t-21 -5z" />
    <glyph glyph-name="kcommaaccent" unicode="&#x137;" horiz-adv-x="603" 
d="M449 665q0 -76 -40 -202l-61 -121q0 -16 2.5 -18.5t17.5 -2.5q10 -10 40 -30t41 -30q28 -37 42 -83.5t24.5 -124t14.5 -96.5q0 -14 -4.5 -37.5t-4.5 -39t9 -24.5q0 -10 23 -29t23 -30q0 -8 -3.5 -18t-6.5 -15l-4 -6q-33 0 -101 -1.5t-85 -1.5q-9 9 -11 19t1 16l2 5l41 41
q8 18 8 38t-4 44.5t-4 38.5v122v20q0 50 -16 99t-45 63q-61 30 -122 0q-14 -14 -20 -45.5t-5.5 -59.5t3 -72.5t2.5 -64.5t-10.5 -51.5t-10.5 -51.5v-80q33 -16 41.5 -40t-20.5 -41q-30 11 -80.5 0.5t-80.5 -0.5q-16 16 -18.5 21t-2.5 19q8 8 19 15t16 12t5 14v101v162
q2 1 2 22l-2 19q0 7 10.5 42.5t10.5 58.5q0 262 -21 364v60q-13 0 -19.5 0.5t-13.5 5.5t-7 15q-14 1 -13.5 24t11.5 34q6 6 16 6.5t29 -2t34 -2.5q7 0 30 1.5t39.5 1.5t36 -3t30 -13t10.5 -27q0 -9 -5.5 -14t-16.5 -12t-19 -15q0 -40 10 -111t10 -111q0 -6 -4.5 -24
t-4.5 -33t9 -24q103 26 142 182q0 20 10.5 60t10.5 61h-41q0 11 -10.5 21t-10.5 20q12 23 60.5 28.5t61.5 11.5q28 -9 35.5 -29t-4 -36t-31.5 -16zM267 -545q-11 4 -12 15.5t3 22.5t-1 22q14 22 17.5 85t22.5 80q18 -6 24.5 -12t14.5 -21q17 -77 -25 -146q-2 -6 -0.5 -13
t-0.5 -10.5t-8 -1.5q-2 -9 -14 -16t-21 -5z" />
    <glyph glyph-name="Lacute" unicode="&#x139;" horiz-adv-x="443" 
d="M233 948q10 -11 -4.5 -30.5t-14.5 -26.5q-23 -13 -45.5 -55t-47.5 -48q-18 19 -19 46q9 34 23.5 54t47.5 40q3 3 6.5 11t5 9t7.5 -2q7 7 20.5 7.5t20.5 -5.5zM288 720q-10 -21 -25 -36.5t-15 -25.5q0 -91 -16.5 -367.5t-5.5 -442.5q0 -15 2.5 -17t19.5 -3q6 -1 20.5 -0.5
t19.5 0.5q16 -1 41 0h22v124v83q9 9 19.5 9t16.5 -4l6 -5q18 -19 23 -47t1 -79.5t-4 -60.5q0 -6 4.5 -24t4.5 -33.5t-9 -25.5q-62 -10 -181 -10t-171 -10q-8 7 -20 14t-17 12.5t-5 15.5q0 9 7 14t14 5.5t21 0.5q14 14 17 30.5t3 52.5q21 104 21 352v22v185q0 146 -21 209
q0 9 -5 14t-17 12t-20 14v42h22q18 0 95.5 6.5t115.5 1.5q5 -1 8 -1.5t5 -1t2.5 -3.5t0.5 -4.5v-7.5v-10z" />
    <glyph glyph-name="lacute" unicode="&#x13a;" horiz-adv-x="443" 
d="M233 948q10 -11 -4.5 -30.5t-14.5 -26.5q-23 -13 -45.5 -55t-47.5 -48q-18 19 -19 46q9 34 23.5 54t47.5 40q3 3 6.5 11t5 9t7.5 -2q7 7 20.5 7.5t20.5 -5.5zM288 720q-10 -21 -25 -36.5t-15 -25.5q0 -91 -16.5 -367.5t-5.5 -442.5q0 -15 2.5 -17t19.5 -3q6 -1 20.5 -0.5
t19.5 0.5q16 -1 41 0h22v124v83q9 9 19.5 9t16.5 -4l6 -5q18 -19 23 -47t1 -79.5t-4 -60.5q0 -6 4.5 -24t4.5 -33.5t-9 -25.5q-62 -10 -181 -10t-171 -10q-8 7 -20 14t-17 12.5t-5 15.5q0 9 7 14t14 5.5t21 0.5q14 14 17 30.5t3 52.5q21 104 21 352v22v185q0 146 -21 209
q0 9 -5 14t-17 12t-20 14v42h22q18 0 95.5 6.5t115.5 1.5q5 -1 8 -1.5t5 -1t2.5 -3.5t0.5 -4.5v-7.5v-10z" />
    <glyph glyph-name="Lcommaaccent" unicode="&#x13b;" horiz-adv-x="443" 
d="M288 720q-10 -21 -25 -36.5t-15 -25.5q0 -91 -16.5 -367.5t-5.5 -442.5q0 -15 2.5 -17t19.5 -3q6 -1 20.5 -0.5t19.5 0.5q16 -1 41 0h22v124v83q9 9 19.5 9t16.5 -4l6 -5q18 -19 23 -47t1 -79.5t-4 -60.5q0 -6 4.5 -24t4.5 -33.5t-9 -25.5q-62 -10 -181 -10t-171 -10
q-8 7 -20 14t-17 12.5t-5 15.5q0 9 7 14t14 5.5t21 0.5q14 14 17 30.5t3 52.5q21 104 21 352v22v185q0 146 -21 209q0 9 -5 14t-17 12t-20 14v42h22q18 0 95.5 6.5t115.5 1.5q5 -1 8 -1.5t5 -1t2.5 -3.5t0.5 -4.5v-7.5v-10zM191 -545q-11 4 -12 15.5t3 22.5t-1 22
q14 22 17.5 85t22.5 80q18 -6 24.5 -12t14.5 -21q17 -77 -25 -146q-2 -6 -0.5 -13t-0.5 -10.5t-8 -1.5q-2 -9 -14 -16t-21 -5z" />
    <glyph glyph-name="lcommaaccent" unicode="&#x13c;" horiz-adv-x="443" 
d="M288 720q-10 -21 -25 -36.5t-15 -25.5q0 -91 -16.5 -367.5t-5.5 -442.5q0 -15 2.5 -17t19.5 -3q6 -1 20.5 -0.5t19.5 0.5q16 -1 41 0h22v124v83q9 9 19.5 9t16.5 -4l6 -5q18 -19 23 -47t1 -79.5t-4 -60.5q0 -6 4.5 -24t4.5 -33.5t-9 -25.5q-62 -10 -181 -10t-171 -10
q-8 7 -20 14t-17 12.5t-5 15.5q0 9 7 14t14 5.5t21 0.5q14 14 17 30.5t3 52.5q21 104 21 352v22v185q0 146 -21 209q0 9 -5 14t-17 12t-20 14v42h22q18 0 95.5 6.5t115.5 1.5q5 -1 8 -1.5t5 -1t2.5 -3.5t0.5 -4.5v-7.5v-10zM191 -545q-11 4 -12 15.5t3 22.5t-1 22
q14 22 17.5 85t22.5 80q18 -6 24.5 -12t14.5 -21q17 -77 -25 -146q-2 -6 -0.5 -13t-0.5 -10.5t-8 -1.5q-2 -9 -14 -16t-21 -5z" />
    <glyph glyph-name="Lcaron" unicode="&#x13d;" horiz-adv-x="443" 
d="M288 720q-10 -21 -25 -36.5t-15 -25.5q0 -91 -16.5 -367.5t-5.5 -442.5q0 -15 2.5 -17t19.5 -3q6 -1 20.5 -0.5t19.5 0.5q16 -1 41 0h22v124v83q9 9 19.5 9t16.5 -4l6 -5q18 -19 23 -47t1 -79.5t-4 -60.5q0 -6 4.5 -24t4.5 -33.5t-9 -25.5q-62 -10 -181 -10t-171 -10
q-8 7 -20 14t-17 12.5t-5 15.5q0 9 7 14t14 5.5t21 0.5q14 14 17 30.5t3 52.5q21 104 21 352v22v185q0 146 -21 209q0 9 -5 14t-17 12t-20 14v42h22q18 0 95.5 6.5t115.5 1.5q5 -1 8 -1.5t5 -1t2.5 -3.5t0.5 -4.5v-7.5v-10zM398 732q11 -4 12 -13.5t-3 -18.5t1 -19
q-14 -21 -18.5 -59t-24.5 -55q-9 4 -15 8t-7.5 5.5t-6 10l-5.5 10.5q2 32 5.5 47t18.5 48q2 6 1 12.5t0.5 10.5t7.5 2q3 8 14.5 11t19.5 0z" />
    <glyph glyph-name="lcaron" unicode="&#x13e;" horiz-adv-x="443" 
d="M288 720q-10 -21 -25 -36.5t-15 -25.5q0 -91 -16.5 -367.5t-5.5 -442.5q0 -15 2.5 -17t19.5 -3q6 -1 20.5 -0.5t19.5 0.5q16 -1 41 0h22v124v83q9 9 19.5 9t16.5 -4l6 -5q18 -19 23 -47t1 -79.5t-4 -60.5q0 -6 4.5 -24t4.5 -33.5t-9 -25.5q-62 -10 -181 -10t-171 -10
q-8 7 -20 14t-17 12.5t-5 15.5q0 9 7 14t14 5.5t21 0.5q14 14 17 30.5t3 52.5q21 104 21 352v22v185q0 146 -21 209q0 9 -5 14t-17 12t-20 14v42h22q18 0 95.5 6.5t115.5 1.5q5 -1 8 -1.5t5 -1t2.5 -3.5t0.5 -4.5v-7.5v-10zM398 732q11 -4 12 -13.5t-3 -18.5t1 -19
q-14 -21 -18.5 -59t-24.5 -55q-9 4 -15 8t-7.5 5.5t-6 10l-5.5 10.5q2 32 5.5 47t18.5 48q2 6 1 12.5t0.5 10.5t7.5 2q3 8 14.5 11t19.5 0z" />
    <glyph glyph-name="Ldot" unicode="&#x13f;" horiz-adv-x="443" 
d="M288 720q-10 -21 -25 -36.5t-15 -25.5q0 -91 -16.5 -367.5t-5.5 -442.5q0 -15 2.5 -17t19.5 -3q6 -1 20.5 -0.5t19.5 0.5q16 -1 41 0h22v124v83q9 9 19.5 9t16.5 -4l6 -5q18 -19 23 -47t1 -79.5t-4 -60.5q0 -6 4.5 -24t4.5 -33.5t-9 -25.5q-62 -10 -181 -10t-171 -10
q-8 7 -20 14t-17 12.5t-5 15.5q0 9 7 14t14 5.5t21 0.5q14 14 17 30.5t3 52.5q21 104 21 352v22v185q0 146 -21 209q0 9 -5 14t-17 12t-20 14v42h22q18 0 95.5 6.5t115.5 1.5q5 -1 8 -1.5t5 -1t2.5 -3.5t0.5 -4.5v-7.5v-10zM343 213q-27 -10 -48.5 23.5t-2.5 53.5
q14 12 51 12q12 0 29 -16.5t8 -33.5q0 -20 -37 -39z" />
    <glyph glyph-name="ldot" unicode="&#x140;" horiz-adv-x="443" 
d="M288 720q-10 -21 -25 -36.5t-15 -25.5q0 -91 -16.5 -367.5t-5.5 -442.5q0 -15 2.5 -17t19.5 -3q6 -1 20.5 -0.5t19.5 0.5q16 -1 41 0h22v124v83q9 9 19.5 9t16.5 -4l6 -5q18 -19 23 -47t1 -79.5t-4 -60.5q0 -6 4.5 -24t4.5 -33.5t-9 -25.5q-62 -10 -181 -10t-171 -10
q-8 7 -20 14t-17 12.5t-5 15.5q0 9 7 14t14 5.5t21 0.5q14 14 17 30.5t3 52.5q21 104 21 352v22v185q0 146 -21 209q0 9 -5 14t-17 12t-20 14v42h22q18 0 95.5 6.5t115.5 1.5q5 -1 8 -1.5t5 -1t2.5 -3.5t0.5 -4.5v-7.5v-10zM343 213q-27 -10 -48.5 23.5t-2.5 53.5
q14 12 51 12q12 0 29 -16.5t8 -33.5q0 -20 -37 -39z" />
    <glyph glyph-name="Lslash" unicode="&#x141;" horiz-adv-x="443" 
d="M413 -152q0 -6 4.5 -24t4.5 -33.5t-9 -25.5q-62 -10 -181 -10t-171 -10q-8 7 -20 14t-17 12.5t-5 15.5q0 9 7 14t14 5.5t21 0.5q14 14 17 30.5t3 52.5q21 106 21 310q-26 -13 -39 -17q-37 4 -37 42l76 41v183q0 146 -21 209q0 9 -5 14t-17 12t-20 14v42h22q18 0 95.5 6.5
t115.5 1.5q5 -1 8 -1.5t5 -1t2.5 -3.5t0.5 -4.5v-7.5v-10q-10 -21 -25 -36.5t-15 -25.5q0 -119 -13 -308l47 30l39 32q24 -4 30 -22.5t-9 -43.5l-112 -71q-15 -259 -4 -427q0 -15 2.5 -17t19.5 -3q6 -1 20.5 -0.5t19.5 0.5q16 -1 41 0h22v124v83q9 9 19.5 9t16.5 -4l6 -5
q18 -19 23 -47t1 -79.5t-4 -60.5z" />
    <glyph glyph-name="lslash" unicode="&#x142;" horiz-adv-x="443" 
d="M413 -152q0 -6 4.5 -24t4.5 -33.5t-9 -25.5q-62 -10 -181 -10t-171 -10q-8 7 -20 14t-17 12.5t-5 15.5q0 9 7 14t14 5.5t21 0.5q14 14 17 30.5t3 52.5q21 106 21 310q-26 -13 -39 -17q-37 4 -37 42l76 41v183q0 146 -21 209q0 9 -5 14t-17 12t-20 14v42h22q18 0 95.5 6.5
t115.5 1.5q5 -1 8 -1.5t5 -1t2.5 -3.5t0.5 -4.5v-7.5v-10q-10 -21 -25 -36.5t-15 -25.5q0 -119 -13 -308l47 30l39 32q24 -4 30 -22.5t-9 -43.5l-112 -71q-15 -259 -4 -427q0 -15 2.5 -17t19.5 -3q6 -1 20.5 -0.5t19.5 0.5q16 -1 41 0h22v124v83q9 9 19.5 9t16.5 -4l6 -5
q18 -19 23 -47t1 -79.5t-4 -60.5z" />
    <glyph glyph-name="Nacute" unicode="&#x143;" horiz-adv-x="647" 
d="M398 948q10 -11 -4.5 -30.5t-14.5 -26.5q-23 -13 -45.5 -55t-47.5 -48q-18 19 -19 46q9 34 23.5 54t47.5 40q3 3 6.5 11t5 9t7.5 -2q7 7 20.5 7.5t20.5 -5.5zM624 736q0 -9 -5 -19t-10 -15l-5 -6h-41q-9 -9 -9 -19.5t4.5 -28.5t4.5 -33q0 -16 -0.5 -150t0 -178.5
t2 -148.5t5 -183.5t9.5 -159.5q1 -28 -18 -38.5t-41 -6t-33 15.5l-44 131l-58.5 175.5t-42.5 140.5q-9 32 -47 119l-13 32q-4 8 -13 52t-33 56v-140v-160v-161v-60v-100q20 -20 59 -20q0 -10 1.5 -24t2 -22.5t-1 -17t-7.5 -12.5t-17 -4q-25 -1 -45 -1q-10 0 -67 -1.5
t-67 -1.5q-6 0 -9 4t-3.5 12t-0.5 16.5t1 22t1 23.5q33 -14 33 6q9 18 10.5 41.5t-1 56.5t-2.5 42q0 32 -3.5 97t-3.5 83q0 20 -0.5 69t-0.5 72q0 22 -4 60t-4 58q0 10 -5.5 31t-5.5 31v20v61q0 9 -1 22.5t-1 28.5t-9 37.5t-9 31.5q-29 0 -45 12t-16 28q0 15 10 26t25 11
q11 0 21.5 1.5t24.5 2.5q10 1 30.5 -1.5t34.5 -2.5q12 0 21 -9t12 -19l2 -9q36 -54 65 -116t64.5 -155.5t50.5 -129.5q21 -63 61 -140q0 -22 17 -62l10.5 -32.5t18 -53t18.5 -38.5q3 -5 3 12q0 14 -4 65q-4 53 -4 68q0 48 4 164.5t4 179.5v20q0 31 -10 81t-10 80
q-40 40 -61 40q-4 4 -13.5 11.5t-12 11.5t-2 13.5t7.5 24.5q9 0 14.5 -3t21.5 -3q13 0 24.5 1.5t16.5 3.5l4 1q25 -6 51.5 -1.5t53 1.5t35.5 -21z" />
    <glyph glyph-name="nacute" unicode="&#x144;" horiz-adv-x="647" 
d="M398 948q10 -11 -4.5 -30.5t-14.5 -26.5q-23 -13 -45.5 -55t-47.5 -48q-18 19 -19 46q9 34 23.5 54t47.5 40q3 3 6.5 11t5 9t7.5 -2q7 7 20.5 7.5t20.5 -5.5zM624 736q0 -9 -5 -19t-10 -15l-5 -6h-41q-9 -9 -9 -19.5t4.5 -28.5t4.5 -33q0 -16 -0.5 -150t0 -178.5
t2 -148.5t5 -183.5t9.5 -159.5q1 -28 -18 -38.5t-41 -6t-33 15.5l-44 131l-58.5 175.5t-42.5 140.5q-9 32 -47 119l-13 32q-4 8 -13 52t-33 56v-140v-160v-161v-60v-100q20 -20 59 -20q0 -10 1.5 -24t2 -22.5t-1 -17t-7.5 -12.5t-17 -4q-25 -1 -45 -1q-10 0 -67 -1.5
t-67 -1.5q-6 0 -9 4t-3.5 12t-0.5 16.5t1 22t1 23.5q33 -14 33 6q9 18 10.5 41.5t-1 56.5t-2.5 42q0 32 -3.5 97t-3.5 83q0 20 -0.5 69t-0.5 72q0 22 -4 60t-4 58q0 10 -5.5 31t-5.5 31v20v61q0 9 -1 22.5t-1 28.5t-9 37.5t-9 31.5q-29 0 -45 12t-16 28q0 15 10 26t25 11
q11 0 21.5 1.5t24.5 2.5q10 1 30.5 -1.5t34.5 -2.5q12 0 21 -9t12 -19l2 -9q36 -54 65 -116t64.5 -155.5t50.5 -129.5q21 -63 61 -140q0 -22 17 -62l10.5 -32.5t18 -53t18.5 -38.5q3 -5 3 12q0 14 -4 65q-4 53 -4 68q0 48 4 164.5t4 179.5v20q0 31 -10 81t-10 80
q-40 40 -61 40q-4 4 -13.5 11.5t-12 11.5t-2 13.5t7.5 24.5q9 0 14.5 -3t21.5 -3q13 0 24.5 1.5t16.5 3.5l4 1q25 -6 51.5 -1.5t53 1.5t35.5 -21z" />
    <glyph glyph-name="Ncommaaccent" unicode="&#x145;" horiz-adv-x="647" 
d="M624 736q0 -9 -5 -19t-10 -15l-5 -6h-41q-9 -9 -9 -19.5t4.5 -28.5t4.5 -33q0 -16 -0.5 -150t0 -178.5t2 -148.5t5 -183.5t9.5 -159.5q1 -28 -18 -38.5t-41 -6t-33 15.5l-44 131l-58.5 175.5t-42.5 140.5q-9 32 -47 119l-13 32q-4 8 -13 52t-33 56v-140v-160v-161v-60
v-100q20 -20 59 -20q0 -10 1.5 -24t2 -22.5t-1 -17t-7.5 -12.5t-17 -4q-25 -1 -45 -1q-10 0 -67 -1.5t-67 -1.5q-6 0 -9 4t-3.5 12t-0.5 16.5t1 22t1 23.5q33 -14 33 6q9 18 10.5 41.5t-1 56.5t-2.5 42q0 32 -3.5 97t-3.5 83q0 20 -0.5 69t-0.5 72q0 22 -4 60t-4 58
q0 10 -5.5 31t-5.5 31v20v61q0 9 -1 22.5t-1 28.5t-9 37.5t-9 31.5q-29 0 -45 12t-16 28q0 15 10 26t25 11q11 0 21.5 1.5t24.5 2.5q10 1 30.5 -1.5t34.5 -2.5q12 0 21 -9t12 -19l2 -9q36 -54 65 -116t64.5 -155.5t50.5 -129.5q21 -63 61 -140q0 -22 17 -62l10.5 -32.5
t18 -53t18.5 -38.5q3 -5 3 12q0 14 -4 65q-4 53 -4 68q0 48 4 164.5t4 179.5v20q0 31 -10 81t-10 80q-40 40 -61 40q-4 4 -13.5 11.5t-12 11.5t-2 13.5t7.5 24.5q9 0 14.5 -3t21.5 -3q13 0 24.5 1.5t16.5 3.5l4 1q25 -6 51.5 -1.5t53 1.5t35.5 -21zM355 -545q-11 4 -12 15.5
t3 22.5t-1 22q14 22 17.5 85t22.5 80q18 -6 24.5 -12t14.5 -21q17 -77 -25 -146q-2 -6 -0.5 -13t-0.5 -10.5t-8 -1.5q-2 -9 -14 -16t-21 -5z" />
    <glyph glyph-name="ncommaaccent" unicode="&#x146;" horiz-adv-x="647" 
d="M624 736q0 -9 -5 -19t-10 -15l-5 -6h-41q-9 -9 -9 -19.5t4.5 -28.5t4.5 -33q0 -16 -0.5 -150t0 -178.5t2 -148.5t5 -183.5t9.5 -159.5q1 -28 -18 -38.5t-41 -6t-33 15.5l-44 131l-58.5 175.5t-42.5 140.5q-9 32 -47 119l-13 32q-4 8 -13 52t-33 56v-140v-160v-161v-60
v-100q20 -20 59 -20q0 -10 1.5 -24t2 -22.5t-1 -17t-7.5 -12.5t-17 -4q-25 -1 -45 -1q-10 0 -67 -1.5t-67 -1.5q-6 0 -9 4t-3.5 12t-0.5 16.5t1 22t1 23.5q33 -14 33 6q9 18 10.5 41.5t-1 56.5t-2.5 42q0 32 -3.5 97t-3.5 83q0 20 -0.5 69t-0.5 72q0 22 -4 60t-4 58
q0 10 -5.5 31t-5.5 31v20v61q0 9 -1 22.5t-1 28.5t-9 37.5t-9 31.5q-29 0 -45 12t-16 28q0 15 10 26t25 11q11 0 21.5 1.5t24.5 2.5q10 1 30.5 -1.5t34.5 -2.5q12 0 21 -9t12 -19l2 -9q36 -54 65 -116t64.5 -155.5t50.5 -129.5q21 -63 61 -140q0 -22 17 -62l10.5 -32.5
t18 -53t18.5 -38.5q3 -5 3 12q0 14 -4 65q-4 53 -4 68q0 48 4 164.5t4 179.5v20q0 31 -10 81t-10 80q-40 40 -61 40q-4 4 -13.5 11.5t-12 11.5t-2 13.5t7.5 24.5q9 0 14.5 -3t21.5 -3q13 0 24.5 1.5t16.5 3.5l4 1q25 -6 51.5 -1.5t53 1.5t35.5 -21zM355 -545q-11 4 -12 15.5
t3 22.5t-1 22q14 22 17.5 85t22.5 80q18 -6 24.5 -12t14.5 -21q17 -77 -25 -146q-2 -6 -0.5 -13t-0.5 -10.5t-8 -1.5q-2 -9 -14 -16t-21 -5z" />
    <glyph glyph-name="Ncaron" unicode="&#x147;" horiz-adv-x="647" 
d="M440 935q8 -12 -9 -28t-18 -23q-17 -8 -44.5 -39.5t-44.5 -38.5l-4 -6q-4 0 -10 2h-2q0 1 -1 1q-16 7 -41 40t-48 42q-2 2 -6.5 5.5t-6.5 5.5t-5.5 5t-5 5l-3.5 4.5t-2.5 4.5t-1.5 5t0 5.5t2 5.5t3 6q6 7 19 7.5t20 -5.5q5 4 6.5 3.5t6 -7.5t7.5 -10q10 -4 18 -9
t15.5 -12.5t10.5 -11t10.5 -14t8.5 -11.5q35 41 76 57q3 2 7.5 9t6.5 8t7 -3q17 12 29 -3zM624 736q0 -9 -5 -19t-10 -15l-5 -6h-41q-9 -9 -9 -19.5t4.5 -28.5t4.5 -33q0 -16 -0.5 -150t0 -178.5t2 -148.5t5 -183.5t9.5 -159.5q1 -28 -18 -38.5t-41 -6t-33 15.5l-44 131
l-58.5 175.5t-42.5 140.5q-9 32 -47 119l-13 32q-4 8 -13 52t-33 56v-140v-160v-161v-60v-100q20 -20 59 -20q0 -10 1.5 -24t2 -22.5t-1 -17t-7.5 -12.5t-17 -4q-25 -1 -45 -1q-10 0 -67 -1.5t-67 -1.5q-6 0 -9 4t-3.5 12t-0.5 16.5t1 22t1 23.5q33 -14 33 6q9 18 10.5 41.5
t-1 56.5t-2.5 42q0 32 -3.5 97t-3.5 83q0 20 -0.5 69t-0.5 72q0 22 -4 60t-4 58q0 10 -5.5 31t-5.5 31v20v61q0 9 -1 22.5t-1 28.5t-9 37.5t-9 31.5q-29 0 -45 12t-16 28q0 15 10 26t25 11q11 0 21.5 1.5t24.5 2.5q10 1 30.5 -1.5t34.5 -2.5q12 0 21 -9t12 -19l2 -9
q36 -54 65 -116t64.5 -155.5t50.5 -129.5q21 -63 61 -140q0 -22 17 -62l10.5 -32.5t18 -53t18.5 -38.5q3 -5 3 12q0 14 -4 65q-4 53 -4 68q0 48 4 164.5t4 179.5v20q0 31 -10 81t-10 80q-40 40 -61 40q-4 4 -13.5 11.5t-12 11.5t-2 13.5t7.5 24.5q9 0 14.5 -3t21.5 -3
q13 0 24.5 1.5t16.5 3.5l4 1q25 -6 51.5 -1.5t53 1.5t35.5 -21z" />
    <glyph glyph-name="ncaron" unicode="&#x148;" horiz-adv-x="647" 
d="M440 935q8 -12 -9 -28t-18 -23q-17 -8 -44.5 -39.5t-44.5 -38.5l-4 -6q-4 0 -10 2h-2q0 1 -1 1q-16 7 -41 40t-48 42q-2 2 -6.5 5.5t-6.5 5.5t-5.5 5t-5 5l-3.5 4.5t-2.5 4.5t-1.5 5t0 5.5t2 5.5t3 6q6 7 19 7.5t20 -5.5q5 4 6.5 3.5t6 -7.5t7.5 -10q10 -4 18 -9
t15.5 -12.5t10.5 -11t10.5 -14t8.5 -11.5q35 41 76 57q3 2 7.5 9t6.5 8t7 -3q17 12 29 -3zM624 736q0 -9 -5 -19t-10 -15l-5 -6h-41q-9 -9 -9 -19.5t4.5 -28.5t4.5 -33q0 -16 -0.5 -150t0 -178.5t2 -148.5t5 -183.5t9.5 -159.5q1 -28 -18 -38.5t-41 -6t-33 15.5l-44 131
l-58.5 175.5t-42.5 140.5q-9 32 -47 119l-13 32q-4 8 -13 52t-33 56v-140v-160v-161v-60v-100q20 -20 59 -20q0 -10 1.5 -24t2 -22.5t-1 -17t-7.5 -12.5t-17 -4q-25 -1 -45 -1q-10 0 -67 -1.5t-67 -1.5q-6 0 -9 4t-3.5 12t-0.5 16.5t1 22t1 23.5q33 -14 33 6q9 18 10.5 41.5
t-1 56.5t-2.5 42q0 32 -3.5 97t-3.5 83q0 20 -0.5 69t-0.5 72q0 22 -4 60t-4 58q0 10 -5.5 31t-5.5 31v20v61q0 9 -1 22.5t-1 28.5t-9 37.5t-9 31.5q-29 0 -45 12t-16 28q0 15 10 26t25 11q11 0 21.5 1.5t24.5 2.5q10 1 30.5 -1.5t34.5 -2.5q12 0 21 -9t12 -19l2 -9
q36 -54 65 -116t64.5 -155.5t50.5 -129.5q21 -63 61 -140q0 -22 17 -62l10.5 -32.5t18 -53t18.5 -38.5q3 -5 3 12q0 14 -4 65q-4 53 -4 68q0 48 4 164.5t4 179.5v20q0 31 -10 81t-10 80q-40 40 -61 40q-4 4 -13.5 11.5t-12 11.5t-2 13.5t7.5 24.5q9 0 14.5 -3t21.5 -3
q13 0 24.5 1.5t16.5 3.5l4 1q25 -6 51.5 -1.5t53 1.5t35.5 -21z" />
    <glyph glyph-name="Eng" unicode="&#x14a;" horiz-adv-x="643" 
d="M563 696q-9 -9 -9 -19.5t4.5 -28.5t4.5 -33q0 -522 10 -708q3 -31 5 -94l1 -18q-1 -12 -2 -43t-2 -44.5t-2.5 -41.5t-4 -42t-6 -36.5t-8.5 -36t-11.5 -28.5t-15 -25t-19.5 -17q-20 -10 -39 -14.5t-30.5 -5t-39.5 -0.5q-5 0 -9.5 1t-9.5 4l-8.5 5t-9.5 7l-9 7.5t-10 9
t-9 8.5q-57 59 -20 164q15 15 41.5 15t43.5 -15q-6 -12 -15 -24.5t-12.5 -18.5t-3 -19.5t8.5 -36.5q0 -18 17 -30.5t48 -12.5l20 21q38 99 25 220l-44 131l-58.5 175.5t-42.5 140.5q-9 32 -47 119l-13 32q-4 8 -13 52t-33 56v-140v-160v-161v-60v-100q20 -20 59 -20
q0 -10 1.5 -24t2 -22.5t-1 -17t-7.5 -12.5t-17 -4q-25 -1 -45 -1q-10 0 -67 -1.5t-67 -1.5q-6 0 -9 4t-3.5 12t-0.5 16.5t1 22t1 23.5q33 -14 33 6q9 18 10.5 41.5t-1 56.5t-2.5 42q0 32 -3.5 97t-3.5 83q0 20 -0.5 69t-0.5 72q0 22 -4 60t-4 58q0 10 -5.5 31t-5.5 31v20v61
q0 9 -1 22.5t-1 28.5t-9 37.5t-9 31.5q-29 0 -45 12t-16 28q0 15 10 26t25 11q11 0 21.5 1.5t24.5 2.5q10 1 30.5 -1.5t34.5 -2.5q12 0 21 -9t12 -19l2 -9q36 -54 65 -116t64.5 -155.5t50.5 -129.5q21 -63 61 -140q0 -22 17 -62l10.5 -32.5t18 -53t18.5 -38.5q3 -5 3 12
q0 14 -4 65q-4 53 -4 68q0 48 4 164.5t4 179.5v20q0 31 -10 81t-10 80q-40 40 -61 40q-4 4 -13.5 11.5t-12 11.5t-2 13.5t7.5 24.5q9 0 14.5 -3t21.5 -3q13 0 24.5 1.5t16.5 3.5l4 1q25 -6 51.5 -1.5t53 1.5t35.5 -21q0 -9 -5 -19t-10 -15l-5 -6h-41z" />
    <glyph glyph-name="eng" unicode="&#x14b;" horiz-adv-x="643" 
d="M563 696q-9 -9 -9 -19.5t4.5 -28.5t4.5 -33q0 -522 10 -708q3 -31 5 -94l1 -18q-1 -12 -2 -43t-2 -44.5t-2.5 -41.5t-4 -42t-6 -36.5t-8.5 -36t-11.5 -28.5t-15 -25t-19.5 -17q-20 -10 -39 -14.5t-30.5 -5t-39.5 -0.5q-5 0 -9.5 1t-9.5 4l-8.5 5t-9.5 7l-9 7.5t-10 9
t-9 8.5q-57 59 -20 164q15 15 41.5 15t43.5 -15q-6 -12 -15 -24.5t-12.5 -18.5t-3 -19.5t8.5 -36.5q0 -18 17 -30.5t48 -12.5l20 21q38 99 25 220l-44 131l-58.5 175.5t-42.5 140.5q-9 32 -47 119l-13 32q-4 8 -13 52t-33 56v-140v-160v-161v-60v-100q20 -20 59 -20
q0 -10 1.5 -24t2 -22.5t-1 -17t-7.5 -12.5t-17 -4q-25 -1 -45 -1q-10 0 -67 -1.5t-67 -1.5q-6 0 -9 4t-3.5 12t-0.5 16.5t1 22t1 23.5q33 -14 33 6q9 18 10.5 41.5t-1 56.5t-2.5 42q0 32 -3.5 97t-3.5 83q0 20 -0.5 69t-0.5 72q0 22 -4 60t-4 58q0 10 -5.5 31t-5.5 31v20v61
q0 9 -1 22.5t-1 28.5t-9 37.5t-9 31.5q-29 0 -45 12t-16 28q0 15 10 26t25 11q11 0 21.5 1.5t24.5 2.5q10 1 30.5 -1.5t34.5 -2.5q12 0 21 -9t12 -19l2 -9q36 -54 65 -116t64.5 -155.5t50.5 -129.5q21 -63 61 -140q0 -22 17 -62l10.5 -32.5t18 -53t18.5 -38.5q3 -5 3 12
q0 14 -4 65q-4 53 -4 68q0 48 4 164.5t4 179.5v20q0 31 -10 81t-10 80q-40 40 -61 40q-4 4 -13.5 11.5t-12 11.5t-2 13.5t7.5 24.5q9 0 14.5 -3t21.5 -3q13 0 24.5 1.5t16.5 3.5l4 1q25 -6 51.5 -1.5t53 1.5t35.5 -21q0 -9 -5 -19t-10 -15l-5 -6h-41z" />
    <glyph glyph-name="Omacron" unicode="&#x14c;" horiz-adv-x="614" 
d="M376 824q-153 -9 -199 0q-30 19 -15 50h175q13 3 49 10q40 -30 -10 -60zM487 -154q-23 -41 -56 -61q-67 -42 -132.5 -37t-116.5 37.5t-77 81.5q-37 70 -62 144q-20 80 -20 244q0 14 -2 36t-2 42.5t4 44.5q11 62 11 78q3 13 7 40t9 42t14 24q12 16 34.5 51t38 55.5
t41 43.5t58.5 31t74 2q60 0 95.5 -18t66.5 -64q47 -31 79.5 -96t39.5 -143q4 -41 4 -108v-26.5v-29.5t-0.5 -28.5t-1.5 -32.5t-3 -31t-5 -35t-7 -34q-30 -142 -91 -253zM398 -140q36 90 54 170q20 61 20 184q0 21 3.5 52.5t3.5 51.5t-3.5 60t-3.5 61q-10 20 -20 61t-21 62
q-3 5 -14.5 31t-17.5 37.5t-19.5 27t-27.5 22.5q-19 0 -40.5 2t-42.5 2q-53 -53 -82 -142q-21 -41 -21 -123q-23 -193 21 -449q8 -16 18.5 -53.5t22.5 -49.5q11 0 14.5 -13.5t8.5 -18.5q23 -23 79.5 -13.5t67.5 38.5z" />
    <glyph glyph-name="omacron" unicode="&#x14d;" horiz-adv-x="614" 
d="M376 824q-153 -9 -199 0q-30 19 -15 50h175q13 3 49 10q40 -30 -10 -60zM487 -154q-23 -41 -56 -61q-67 -42 -132.5 -37t-116.5 37.5t-77 81.5q-37 70 -62 144q-20 80 -20 244q0 14 -2 36t-2 42.5t4 44.5q11 62 11 78q3 13 7 40t9 42t14 24q12 16 34.5 51t38 55.5
t41 43.5t58.5 31t74 2q60 0 95.5 -18t66.5 -64q47 -31 79.5 -96t39.5 -143q4 -41 4 -108v-26.5v-29.5t-0.5 -28.5t-1.5 -32.5t-3 -31t-5 -35t-7 -34q-30 -142 -91 -253zM398 -140q36 90 54 170q20 61 20 184q0 21 3.5 52.5t3.5 51.5t-3.5 60t-3.5 61q-10 20 -20 61t-21 62
q-3 5 -14.5 31t-17.5 37.5t-19.5 27t-27.5 22.5q-19 0 -40.5 2t-42.5 2q-53 -53 -82 -142q-21 -41 -21 -123q-23 -193 21 -449q8 -16 18.5 -53.5t22.5 -49.5q11 0 14.5 -13.5t8.5 -18.5q23 -23 79.5 -13.5t67.5 38.5z" />
    <glyph glyph-name="Ohungarumlaut" unicode="&#x150;" horiz-adv-x="614" 
d="M213 787q-10 4 -10 16t4 23t0 21q16 21 20 63t24 58q17 -6 23 -12.5t13 -21.5q5 -29 -2.5 -50.5t-33.5 -58.5q-1 -4 -1 -12t-1.5 -11t-7.5 0q-8 -22 -28 -15zM323 780q-10 4 -10 16t4 23t0 21q16 21 20 63.5t24 58.5q17 -7 23 -13.5t13 -21.5q5 -29 -2.5 -50.5
t-33.5 -58.5q-1 -4 -1 -12t-1.5 -11t-7.5 0q-8 -22 -28 -15zM487 -154q-23 -41 -56 -61q-67 -42 -132.5 -37t-116.5 37.5t-77 81.5q-37 70 -62 144q-20 80 -20 244q0 14 -2 36t-2 42.5t4 44.5q11 62 11 78q3 13 7 40t9 42t14 24q12 16 34.5 51t38 55.5t41 43.5t58.5 31t74 2
q60 0 95.5 -18t66.5 -64q47 -31 79.5 -96t39.5 -143q4 -41 4 -108v-26.5v-29.5t-0.5 -28.5t-1.5 -32.5t-3 -31t-5 -35t-7 -34q-30 -142 -91 -253zM398 -140q36 90 54 170q20 61 20 184q0 21 3.5 52.5t3.5 51.5t-3.5 60t-3.5 61q-10 20 -20 61t-21 62q-3 5 -14.5 31
t-17.5 37.5t-19.5 27t-27.5 22.5q-19 0 -40.5 2t-42.5 2q-53 -53 -82 -142q-21 -41 -21 -123q-23 -193 21 -449q8 -16 18.5 -53.5t22.5 -49.5q11 0 14.5 -13.5t8.5 -18.5q23 -23 79.5 -13.5t67.5 38.5z" />
    <glyph glyph-name="ohungarumlaut" unicode="&#x151;" horiz-adv-x="614" 
d="M213 787q-10 4 -10 16t4 23t0 21q16 21 20 63t24 58q17 -6 23 -12.5t13 -21.5q5 -29 -2.5 -50.5t-33.5 -58.5q-1 -4 -1 -12t-1.5 -11t-7.5 0q-8 -22 -28 -15zM323 780q-10 4 -10 16t4 23t0 21q16 21 20 63.5t24 58.5q17 -7 23 -13.5t13 -21.5q5 -29 -2.5 -50.5
t-33.5 -58.5q-1 -4 -1 -12t-1.5 -11t-7.5 0q-8 -22 -28 -15zM487 -154q-23 -41 -56 -61q-67 -42 -132.5 -37t-116.5 37.5t-77 81.5q-37 70 -62 144q-20 80 -20 244q0 14 -2 36t-2 42.5t4 44.5q11 62 11 78q3 13 7 40t9 42t14 24q12 16 34.5 51t38 55.5t41 43.5t58.5 31t74 2
q60 0 95.5 -18t66.5 -64q47 -31 79.5 -96t39.5 -143q4 -41 4 -108v-26.5v-29.5t-0.5 -28.5t-1.5 -32.5t-3 -31t-5 -35t-7 -34q-30 -142 -91 -253zM398 -140q36 90 54 170q20 61 20 184q0 21 3.5 52.5t3.5 51.5t-3.5 60t-3.5 61q-10 20 -20 61t-21 62q-3 5 -14.5 31
t-17.5 37.5t-19.5 27t-27.5 22.5q-19 0 -40.5 2t-42.5 2q-53 -53 -82 -142q-21 -41 -21 -123q-23 -193 21 -449q8 -16 18.5 -53.5t22.5 -49.5q11 0 14.5 -13.5t8.5 -18.5q23 -23 79.5 -13.5t67.5 38.5z" />
    <glyph glyph-name="OE" unicode="&#x152;" horiz-adv-x="799" 
d="M525 668q-4 -4 -7.5 -8.5t-5.5 -11.5t-3 -11t-1.5 -14.5t-0.5 -14.5v-18v-18q0 -31 -1.5 -70t-1.5 -57q0 -22 4.5 -53t4.5 -52t-9 -39q21 -19 122 -19q0 60 21 60q15 0 20 -2.5t21 -17.5q-11 -24 -6 -60.5t4 -70t-19 -33.5q-41 21 -41 41v21h-101q-9 -28 -10.5 -63.5
t1.5 -82t3 -61.5q0 -34 3 -99t3 -82q61 -20 163 -20q17 8 18.5 29t3.5 42.5t19 29.5q14 0 23.5 -9t12.5 -27t4 -30.5t1 -34.5q0 -19 -41 -62h-103q-163 0 -256 1q-78 -17 -155 18t-110 98q-37 70 -62 144q-20 80 -20 244q0 14 -2 36t-2 42.5t4 44.5q11 62 11 78q3 13 7 40
t9 42t14 24l29 40.5t30.5 42t32 35t41 32.5t49 21t64.5 12q5 0 34 2.5t31 -0.5q47 -2 170 3h204q21 -20 21 -41q0 -10 5 -35.5t6 -41.5t-11 -30.5t-41 -14.5q-11 11 -11 41t-10 40q-20 11 -41 21q-101 0 -142 -21zM251 -165q28 -28 111 -27l20 4q9 54 9 110t-4.5 125
t-4.5 111v530l-61 -1q-24 2 -54 -13q-31 -31 -48 -59t-32 -73q-21 -41 -21 -123q-23 -193 21 -449q9 -18 14.5 -45t16.5 -38q23 -42 33 -52z" />
    <glyph glyph-name="oe" unicode="&#x153;" horiz-adv-x="799" 
d="M525 668q-4 -4 -7.5 -8.5t-5.5 -11.5t-3 -11t-1.5 -14.5t-0.5 -14.5v-18v-18q0 -31 -1.5 -70t-1.5 -57q0 -22 4.5 -53t4.5 -52t-9 -39q21 -19 122 -19q0 60 21 60q15 0 20 -2.5t21 -17.5q-11 -24 -6 -60.5t4 -70t-19 -33.5q-41 21 -41 41v21h-101q-9 -28 -10.5 -63.5
t1.5 -82t3 -61.5q0 -34 3 -99t3 -82q61 -20 163 -20q17 8 18.5 29t3.5 42.5t19 29.5q14 0 23.5 -9t12.5 -27t4 -30.5t1 -34.5q0 -19 -41 -62h-103q-163 0 -256 1q-78 -17 -155 18t-110 98q-37 70 -62 144q-20 80 -20 244q0 14 -2 36t-2 42.5t4 44.5q11 62 11 78q3 13 7 40
t9 42t14 24l29 40.5t30.5 42t32 35t41 32.5t49 21t64.5 12q5 0 34 2.5t31 -0.5q47 -2 170 3h204q21 -20 21 -41q0 -10 5 -35.5t6 -41.5t-11 -30.5t-41 -14.5q-11 11 -11 41t-10 40q-20 11 -41 21q-101 0 -142 -21zM251 -165q28 -28 111 -27l20 4q9 54 9 110t-4.5 125
t-4.5 111v530l-61 -1q-24 2 -54 -13q-31 -31 -48 -59t-32 -73q-21 -41 -21 -123q-23 -193 21 -449q9 -18 14.5 -45t16.5 -38q23 -42 33 -52z" />
    <glyph glyph-name="Racute" unicode="&#x154;" horiz-adv-x="594" 
d="M344 948q10 -11 -4.5 -30.5t-14.5 -26.5q-23 -13 -45.5 -55t-47.5 -48q-18 19 -19 46q9 34 23.5 54t47.5 40q3 3 6.5 11t5 9t7.5 -2q7 7 20.5 7.5t20.5 -5.5zM441 306q38 -48 54 -129.5t22 -198t12 -158.5q14 0 21 -0.5t14 -5.5t7 -15q0 -54 -91 -48q-12 1 -58 6
q-19 18 -16 43t12.5 60.5t-1.5 101.5q-4 26 -4.5 78.5t-8 93t-29.5 73.5q-5 7 -12.5 19t-13.5 20t-16 18q0 10 -5.5 15.5t-17.5 12.5t-20 14q-14 0 -21 -0.5t-14 -5.5t-7 -14q-10 -48 -10 -106.5t5 -124t5 -91.5q0 -86 20 -130q0 -11 21.5 -21t21.5 -20v-8v-7.5v-6.5
t-1 -5.5t-2 -4t-3 -3.5t-5 -2t-7 -1q-9 0 -50.5 3.5t-73.5 2t-50 -11.5q-27 0 -38.5 1.5t-24 11.5t-23.5 31q22 20 64 20v365q0 14 5 40t5 47.5t-10 40.5q0 11 3 26t4 30q3 50 -2 136t-5 130q-78 0 -78 31q0 44 19 54t74 10q11 0 24.5 6t23.5 6q53 9 105 9.5t103.5 -8
t88 -36.5t47.5 -72q26 -108 0 -171q-16 -39 -63 -86l-22 -22q0 -10 11 -21t11 -22zM228 669q0 -98 8 -264q3 -13 26 -10t52.5 16t40.5 24q0 12 9 43t11 42q6 14 3 45t-3 41q0 7 -2 14t-4 11.5t-7.5 11l-7.5 9t-10.5 10t-10.5 9.5q-11 0 -53 -1t-52 -1z" />
    <glyph glyph-name="racute" unicode="&#x155;" horiz-adv-x="594" 
d="M344 948q10 -11 -4.5 -30.5t-14.5 -26.5q-23 -13 -45.5 -55t-47.5 -48q-18 19 -19 46q9 34 23.5 54t47.5 40q3 3 6.5 11t5 9t7.5 -2q7 7 20.5 7.5t20.5 -5.5zM441 306q38 -48 54 -129.5t22 -198t12 -158.5q14 0 21 -0.5t14 -5.5t7 -15q0 -54 -91 -48q-12 1 -58 6
q-19 18 -16 43t12.5 60.5t-1.5 101.5q-4 26 -4.5 78.5t-8 93t-29.5 73.5q-5 7 -12.5 19t-13.5 20t-16 18q0 10 -5.5 15.5t-17.5 12.5t-20 14q-14 0 -21 -0.5t-14 -5.5t-7 -14q-10 -48 -10 -106.5t5 -124t5 -91.5q0 -86 20 -130q0 -11 21.5 -21t21.5 -20v-8v-7.5v-6.5
t-1 -5.5t-2 -4t-3 -3.5t-5 -2t-7 -1q-9 0 -50.5 3.5t-73.5 2t-50 -11.5q-27 0 -38.5 1.5t-24 11.5t-23.5 31q22 20 64 20v365q0 14 5 40t5 47.5t-10 40.5q0 11 3 26t4 30q3 50 -2 136t-5 130q-78 0 -78 31q0 44 19 54t74 10q11 0 24.5 6t23.5 6q53 9 105 9.5t103.5 -8
t88 -36.5t47.5 -72q26 -108 0 -171q-16 -39 -63 -86l-22 -22q0 -10 11 -21t11 -22zM228 669q0 -98 8 -264q3 -13 26 -10t52.5 16t40.5 24q0 12 9 43t11 42q6 14 3 45t-3 41q0 7 -2 14t-4 11.5t-7.5 11l-7.5 9t-10.5 10t-10.5 9.5q-11 0 -53 -1t-52 -1z" />
    <glyph glyph-name="Rcommaaccent" unicode="&#x156;" horiz-adv-x="594" 
d="M441 306q38 -48 54 -129.5t22 -198t12 -158.5q14 0 21 -0.5t14 -5.5t7 -15q0 -54 -91 -48q-12 1 -58 6q-19 18 -16 43t12.5 60.5t-1.5 101.5q-4 26 -4.5 78.5t-8 93t-29.5 73.5q-5 7 -12.5 19t-13.5 20t-16 18q0 10 -5.5 15.5t-17.5 12.5t-20 14q-14 0 -21 -0.5t-14 -5.5
t-7 -14q-10 -48 -10 -106.5t5 -124t5 -91.5q0 -86 20 -130q0 -11 21.5 -21t21.5 -20v-8v-7.5v-6.5t-1 -5.5t-2 -4t-3 -3.5t-5 -2t-7 -1q-9 0 -50.5 3.5t-73.5 2t-50 -11.5q-27 0 -38.5 1.5t-24 11.5t-23.5 31q22 20 64 20v365q0 14 5 40t5 47.5t-10 40.5q0 11 3 26t4 30
q3 50 -2 136t-5 130q-78 0 -78 31q0 44 19 54t74 10q11 0 24.5 6t23.5 6q53 9 105 9.5t103.5 -8t88 -36.5t47.5 -72q26 -108 0 -171q-16 -39 -63 -86l-22 -22q0 -10 11 -21t11 -22zM228 669q0 -98 8 -264q3 -13 26 -10t52.5 16t40.5 24q0 12 9 43t11 42q6 14 3 45t-3 41
q0 7 -2 14t-4 11.5t-7.5 11l-7.5 9t-10.5 10t-10.5 9.5q-11 0 -53 -1t-52 -1zM310 -545q-11 4 -12 15.5t3 22.5t-1 22q14 22 17.5 85t22.5 80q18 -6 24.5 -12t14.5 -21q17 -77 -25 -146q-2 -6 -0.5 -13t-0.5 -10.5t-8 -1.5q-2 -9 -14 -16t-21 -5z" />
    <glyph glyph-name="rcommaaccent" unicode="&#x157;" horiz-adv-x="594" 
d="M441 306q38 -48 54 -129.5t22 -198t12 -158.5q14 0 21 -0.5t14 -5.5t7 -15q0 -54 -91 -48q-12 1 -58 6q-19 18 -16 43t12.5 60.5t-1.5 101.5q-4 26 -4.5 78.5t-8 93t-29.5 73.5q-5 7 -12.5 19t-13.5 20t-16 18q0 10 -5.5 15.5t-17.5 12.5t-20 14q-14 0 -21 -0.5t-14 -5.5
t-7 -14q-10 -48 -10 -106.5t5 -124t5 -91.5q0 -86 20 -130q0 -11 21.5 -21t21.5 -20v-8v-7.5v-6.5t-1 -5.5t-2 -4t-3 -3.5t-5 -2t-7 -1q-9 0 -50.5 3.5t-73.5 2t-50 -11.5q-27 0 -38.5 1.5t-24 11.5t-23.5 31q22 20 64 20v365q0 14 5 40t5 47.5t-10 40.5q0 11 3 26t4 30
q3 50 -2 136t-5 130q-78 0 -78 31q0 44 19 54t74 10q11 0 24.5 6t23.5 6q53 9 105 9.5t103.5 -8t88 -36.5t47.5 -72q26 -108 0 -171q-16 -39 -63 -86l-22 -22q0 -10 11 -21t11 -22zM228 669q0 -98 8 -264q3 -13 26 -10t52.5 16t40.5 24q0 12 9 43t11 42q6 14 3 45t-3 41
q0 7 -2 14t-4 11.5t-7.5 11l-7.5 9t-10.5 10t-10.5 9.5q-11 0 -53 -1t-52 -1zM310 -545q-11 4 -12 15.5t3 22.5t-1 22q14 22 17.5 85t22.5 80q18 -6 24.5 -12t14.5 -21q17 -77 -25 -146q-2 -6 -0.5 -13t-0.5 -10.5t-8 -1.5q-2 -9 -14 -16t-21 -5z" />
    <glyph glyph-name="Rcaron" unicode="&#x158;" horiz-adv-x="594" 
d="M386 935q8 -12 -9 -28t-18 -23q-17 -8 -44.5 -39.5t-44.5 -38.5l-4 -6q-4 0 -10 2h-2q0 1 -1 1q-16 7 -41 40t-48 42q-2 2 -6.5 5.5t-6.5 5.5t-5.5 5t-5 5l-3.5 4.5t-2.5 4.5t-1.5 5t0 5.5t2 5.5t3 6q6 7 19 7.5t20 -5.5q5 4 6.5 3.5t6 -7.5t7.5 -10q10 -4 18 -9
t15.5 -12.5t10.5 -11t10.5 -14t8.5 -11.5q35 41 76 57q3 2 7.5 9t6.5 8t7 -3q17 12 29 -3zM441 306q38 -48 54 -129.5t22 -198t12 -158.5q14 0 21 -0.5t14 -5.5t7 -15q0 -54 -91 -48q-12 1 -58 6q-19 18 -16 43t12.5 60.5t-1.5 101.5q-4 26 -4.5 78.5t-8 93t-29.5 73.5
q-5 7 -12.5 19t-13.5 20t-16 18q0 10 -5.5 15.5t-17.5 12.5t-20 14q-14 0 -21 -0.5t-14 -5.5t-7 -14q-10 -48 -10 -106.5t5 -124t5 -91.5q0 -86 20 -130q0 -11 21.5 -21t21.5 -20v-8v-7.5v-6.5t-1 -5.5t-2 -4t-3 -3.5t-5 -2t-7 -1q-9 0 -50.5 3.5t-73.5 2t-50 -11.5
q-27 0 -38.5 1.5t-24 11.5t-23.5 31q22 20 64 20v365q0 14 5 40t5 47.5t-10 40.5q0 11 3 26t4 30q3 50 -2 136t-5 130q-78 0 -78 31q0 44 19 54t74 10q11 0 24.5 6t23.5 6q53 9 105 9.5t103.5 -8t88 -36.5t47.5 -72q26 -108 0 -171q-16 -39 -63 -86l-22 -22q0 -10 11 -21
t11 -22zM228 669q0 -98 8 -264q3 -13 26 -10t52.5 16t40.5 24q0 12 9 43t11 42q6 14 3 45t-3 41q0 7 -2 14t-4 11.5t-7.5 11l-7.5 9t-10.5 10t-10.5 9.5q-11 0 -53 -1t-52 -1z" />
    <glyph glyph-name="rcaron" unicode="&#x159;" horiz-adv-x="594" 
d="M386 935q8 -12 -9 -28t-18 -23q-17 -8 -44.5 -39.5t-44.5 -38.5l-4 -6q-4 0 -10 2h-2q0 1 -1 1q-16 7 -41 40t-48 42q-2 2 -6.5 5.5t-6.5 5.5t-5.5 5t-5 5l-3.5 4.5t-2.5 4.5t-1.5 5t0 5.5t2 5.5t3 6q6 7 19 7.5t20 -5.5q5 4 6.5 3.5t6 -7.5t7.5 -10q10 -4 18 -9
t15.5 -12.5t10.5 -11t10.5 -14t8.5 -11.5q35 41 76 57q3 2 7.5 9t6.5 8t7 -3q17 12 29 -3zM441 306q38 -48 54 -129.5t22 -198t12 -158.5q14 0 21 -0.5t14 -5.5t7 -15q0 -54 -91 -48q-12 1 -58 6q-19 18 -16 43t12.5 60.5t-1.5 101.5q-4 26 -4.5 78.5t-8 93t-29.5 73.5
q-5 7 -12.5 19t-13.5 20t-16 18q0 10 -5.5 15.5t-17.5 12.5t-20 14q-14 0 -21 -0.5t-14 -5.5t-7 -14q-10 -48 -10 -106.5t5 -124t5 -91.5q0 -86 20 -130q0 -11 21.5 -21t21.5 -20v-8v-7.5v-6.5t-1 -5.5t-2 -4t-3 -3.5t-5 -2t-7 -1q-9 0 -50.5 3.5t-73.5 2t-50 -11.5
q-27 0 -38.5 1.5t-24 11.5t-23.5 31q22 20 64 20v365q0 14 5 40t5 47.5t-10 40.5q0 11 3 26t4 30q3 50 -2 136t-5 130q-78 0 -78 31q0 44 19 54t74 10q11 0 24.5 6t23.5 6q53 9 105 9.5t103.5 -8t88 -36.5t47.5 -72q26 -108 0 -171q-16 -39 -63 -86l-22 -22q0 -10 11 -21
t11 -22zM228 669q0 -98 8 -264q3 -13 26 -10t52.5 16t40.5 24q0 12 9 43t11 42q6 14 3 45t-3 41q0 7 -2 14t-4 11.5t-7.5 11l-7.5 9t-10.5 10t-10.5 9.5q-11 0 -53 -1t-52 -1z" />
    <glyph glyph-name="Sacute" unicode="&#x15a;" horiz-adv-x="513" 
d="M312 948q10 -11 -4.5 -30.5t-14.5 -26.5q-23 -13 -45.5 -55t-47.5 -48q-18 19 -19 46q9 34 23.5 54t47.5 40q3 3 6.5 11t5 9t7.5 -2q7 7 20.5 7.5t20.5 -5.5zM345 709q0 22 22 22q14 0 21 -0.5t13.5 -6t6.5 -15.5q10 -9 10 -24.5t-5 -34t-5 -24.5q-2 -5 -6.5 -15
t-7.5 -16l-7.5 -15.5t-8 -15t-8.5 -12t-10 -10t-11 -5.5t-12.5 -1.5t-13.5 4.5q-9 9 -9 25t4.5 41t4.5 40q-16 17 -46 30t-60 13q-17 -32 -17 -96t17 -97q14 -28 44.5 -54t60.5 -44.5t64 -48.5t53 -64q25 -43 41 -76q32 -63 32 -140q0 -103 -40 -190q-24 -52 -64 -81.5
t-105 -45.5h-86q-27 0 -64.5 29t-62.5 56q-48 91 -22 191q-11 0 -21.5 -11t-20.5 -11q-22 22 -22 64q29 10 83.5 20t87.5 24q32 0 45 -27t-3 -59q-42 0 -64 -22q-33 -30 -18.5 -102.5t60.5 -88.5q11 0 22 11t22 11q93 47 126.5 159.5t1.5 244.5q-17 31 -36 50t-50 36
q-43 21 -86 64q-9 9 -31 22t-40 32l-16.5 17l-18.5 19.5l-15.5 17.5t-15 20.5t-8.5 19.5t-4 21q-25 82 64 171q8 0 34.5 11t50.5 11q20 0 35 -3t35 -9t38 -10q20 -22 42 -22z" />
    <glyph glyph-name="sacute" unicode="&#x15b;" horiz-adv-x="513" 
d="M312 948q10 -11 -4.5 -30.5t-14.5 -26.5q-23 -13 -45.5 -55t-47.5 -48q-18 19 -19 46q9 34 23.5 54t47.5 40q3 3 6.5 11t5 9t7.5 -2q7 7 20.5 7.5t20.5 -5.5zM345 709q0 22 22 22q14 0 21 -0.5t13.5 -6t6.5 -15.5q10 -9 10 -24.5t-5 -34t-5 -24.5q-2 -5 -6.5 -15
t-7.5 -16l-7.5 -15.5t-8 -15t-8.5 -12t-10 -10t-11 -5.5t-12.5 -1.5t-13.5 4.5q-9 9 -9 25t4.5 41t4.5 40q-16 17 -46 30t-60 13q-17 -32 -17 -96t17 -97q14 -28 44.5 -54t60.5 -44.5t64 -48.5t53 -64q25 -43 41 -76q32 -63 32 -140q0 -103 -40 -190q-24 -52 -64 -81.5
t-105 -45.5h-86q-27 0 -64.5 29t-62.5 56q-48 91 -22 191q-11 0 -21.5 -11t-20.5 -11q-22 22 -22 64q29 10 83.5 20t87.5 24q32 0 45 -27t-3 -59q-42 0 -64 -22q-33 -30 -18.5 -102.5t60.5 -88.5q11 0 22 11t22 11q93 47 126.5 159.5t1.5 244.5q-17 31 -36 50t-50 36
q-43 21 -86 64q-9 9 -31 22t-40 32l-16.5 17l-18.5 19.5l-15.5 17.5t-15 20.5t-8.5 19.5t-4 21q-25 82 64 171q8 0 34.5 11t50.5 11q20 0 35 -3t35 -9t38 -10q20 -22 42 -22z" />
    <glyph glyph-name="Scedilla" unicode="&#x15e;" horiz-adv-x="513" 
d="M480 209q32 -63 32 -140q0 -103 -40 -190q-24 -52 -64 -81.5t-105 -45.5h-20l-6 -48q47 0 63 -11q12 -9 19 -26q24 -28 16 -59t-31.5 -56.5t-51.5 -37.5q-94 -6 -123 27q-7 15 -1 29.5t16.5 17.5t19.5 -3q2 -15 24 -21.5t51 0.5q17 7 25.5 19.5t8.5 27t-1 32.5
q-11 28 -57 8q-16 -7 -21.5 3t-4.5 29l10 69h-22q-27 0 -64.5 29t-62.5 56q-48 91 -22 191q-11 0 -21.5 -11t-20.5 -11q-22 22 -22 64q29 10 83.5 20t87.5 24q32 0 45 -27t-3 -59q-42 0 -64 -22q-33 -30 -18.5 -102.5t60.5 -88.5q11 0 22 11t22 11q93 47 126.5 159.5
t1.5 244.5q-17 31 -36 50t-50 36q-43 21 -86 64q-9 9 -31 22t-40 32l-16.5 17l-18.5 19.5l-15.5 17.5t-15 20.5t-8.5 19.5t-4 21q-25 82 64 171q8 0 34.5 11t50.5 11q20 0 35 -3t35 -9t38 -10q20 -22 42 -22q0 22 22 22q14 0 21 -0.5t13.5 -6t6.5 -15.5q10 -9 10 -24.5
t-5 -34t-5 -24.5q-2 -5 -6.5 -15t-7.5 -16l-7.5 -15.5t-8 -15t-8.5 -12t-10 -10t-11 -5.5t-12.5 -1.5t-13.5 4.5q-9 9 -9 25t4.5 41t4.5 40q-16 17 -46 30t-60 13q-17 -32 -17 -96t17 -97q14 -28 44.5 -54t60.5 -44.5t64 -48.5t53 -64q25 -43 41 -76z" />
    <glyph glyph-name="scedilla" unicode="&#x15f;" horiz-adv-x="513" 
d="M480 209q32 -63 32 -140q0 -103 -40 -190q-24 -52 -64 -81.5t-105 -45.5h-20l-6 -48q47 0 63 -11q12 -9 19 -26q24 -28 16 -59t-31.5 -56.5t-51.5 -37.5q-94 -6 -123 27q-7 15 -1 29.5t16.5 17.5t19.5 -3q2 -15 24 -21.5t51 0.5q17 7 25.5 19.5t8.5 27t-1 32.5
q-11 28 -57 8q-16 -7 -21.5 3t-4.5 29l10 69h-22q-27 0 -64.5 29t-62.5 56q-48 91 -22 191q-11 0 -21.5 -11t-20.5 -11q-22 22 -22 64q29 10 83.5 20t87.5 24q32 0 45 -27t-3 -59q-42 0 -64 -22q-33 -30 -18.5 -102.5t60.5 -88.5q11 0 22 11t22 11q93 47 126.5 159.5
t1.5 244.5q-17 31 -36 50t-50 36q-43 21 -86 64q-9 9 -31 22t-40 32l-16.5 17l-18.5 19.5l-15.5 17.5t-15 20.5t-8.5 19.5t-4 21q-25 82 64 171q8 0 34.5 11t50.5 11q20 0 35 -3t35 -9t38 -10q20 -22 42 -22q0 22 22 22q14 0 21 -0.5t13.5 -6t6.5 -15.5q10 -9 10 -24.5
t-5 -34t-5 -24.5q-2 -5 -6.5 -15t-7.5 -16l-7.5 -15.5t-8 -15t-8.5 -12t-10 -10t-11 -5.5t-12.5 -1.5t-13.5 4.5q-9 9 -9 25t4.5 41t4.5 40q-16 17 -46 30t-60 13q-17 -32 -17 -96t17 -97q14 -28 44.5 -54t60.5 -44.5t64 -48.5t53 -64q25 -43 41 -76z" />
    </font>
</defs>
</svg>
