<svg xmlns="http://www.w3.org/2000/svg" width="189" height="54" viewBox="0 0 189 54"><g><g><path fill="#d1bc94" d="M188.398 40.773c0 7.248-5.727 13.124-12.79 13.124H12.85c-7.064 0-12.79-5.875-12.79-13.124V13.428C.06 6.182 5.786.306 12.85.306h162.756c7.064 0 12.791 5.876 12.791 13.125z"/></g><g><path fill="#35302c" d="M182.574 38.614c0 6.104-5.373 11.052-12 11.052H17.887c-6.629 0-12-4.948-12-11.052V15.588c0-6.104 5.371-11.052 12-11.052h152.687c6.627 0 12 4.948 12 11.052z"/></g><g><path fill="#8d7758" d="M180.98 37.383c0 6.104-5.372 11.053-12 11.053H16.294c-6.628 0-12-4.95-12-11.053V14.358c0-6.105 5.372-11.053 12-11.053H168.98c6.628 0 12 4.948 12 11.053z"/></g></g></svg>